<?xml version="1.0" encoding="UTF-8" standalone="no"?>
<!-- Created with Inkscape (http://www.inkscape.org/) -->

<svg
   width="1920"
   height="1080"
   viewBox="0 0 508.00102 285.75057"
   version="1.1"
   id="svg8244"
   inkscape:version="1.2.2 (b0a8486541, 2022-12-01)"
   sodipodi:docname="5 Effects Text.svg"
   xmlns:inkscape="http://www.inkscape.org/namespaces/inkscape"
   xmlns:sodipodi="http://sodipodi.sourceforge.net/DTD/sodipodi-0.dtd"
   xmlns:xlink="http://www.w3.org/1999/xlink"
   xmlns="http://www.w3.org/2000/svg"
   xmlns:svg="http://www.w3.org/2000/svg">
  <sodipodi:namedview
     id="namedview8246"
     pagecolor="#d4d4d4"
     bordercolor="#111111"
     borderopacity="1"
     inkscape:showpageshadow="0"
     inkscape:pageopacity="0"
     inkscape:pagecheckerboard="false"
     inkscape:deskcolor="#cfcfcf"
     inkscape:document-units="px"
     showgrid="true"
     showborder="false"
     inkscape:zoom="0.30903185"
     inkscape:cx="444.93795"
     inkscape:cy="61.482335"
     inkscape:window-width="1256"
     inkscape:window-height="1010"
     inkscape:window-x="0"
     inkscape:window-y="0"
     inkscape:window-maximized="0"
     inkscape:current-layer="layer1" />
  <defs
     id="defs8241">
    <inkscape:path-effect
       effect="slice"
       start_point="199.60461,-187.53075"
       end_point="110.98087,169.66257"
       center_point="155.29274,-8.9340892"
       id="path-effect28128"
       is_visible="true"
       lpeversion="1.2"
       lpesatellites=""
       allow_transforms="true" />
    <inkscape:path-effect
       effect="fillet_chamfer"
       id="path-effect28122"
       is_visible="true"
       lpeversion="1"
       nodesatellites_param="F,0,1,1,0,12.546151,0,1 @ F,0,0,1,0,0,0,1 @ F,0,0,1,0,0,0,1 @ F,0,0,1,0,0,0,1 @ F,0,0,1,0,0,0,1 @ F,0,1,1,0,12.546151,0,1 | F,0,1,1,0,12.546151,0,1 @ F,0,0,1,0,0,0,1 @ F,0,0,1,0,0,0,1 @ F,0,0,1,0,0,0,1 @ F,0,0,1,0,0,0,1 @ F,0,0,1,0,0,0,1 @ F,0,0,1,0,0,0,1 @ F,0,0,1,0,0,0,1 @ F,0,0,1,0,0,0,1 @ F,0,0,1,0,0,0,1 @ F,0,0,1,0,12.546151,0,1 | F,0,1,1,0,12.546151,0,1 @ F,0,0,1,0,0,0,1 @ F,0,0,1,0,0,0,1 @ F,0,0,1,0,0,0,1 @ F,0,1,1,0,12.546151,0,1 | F,0,1,1,0,12.546151,0,1 @ F,0,0,1,0,0,0,1 @ F,0,0,1,0,0,0,1 @ F,0,0,1,0,0,0,1 @ F,0,0,1,0,0,0,1 @ F,0,0,1,0,0,0,1 @ F,0,0,1,0,0,0,1 @ F,0,0,1,0,0,0,1 @ F,0,0,1,0,0,0,1 @ F,0,0,1,0,0,0,1 @ F,0,0,1,0,0,0,1 @ F,0,0,1,0,0,0,1 @ F,0,0,1,0,0,0,1 @ F,0,0,1,0,0,0,1 @ F,0,0,1,0,0,0,1 @ F,0,1,1,0,12.546151,0,1"
       unit="px"
       method="auto"
       mode="F"
       radius="0"
       chamfer_steps="1"
       flexible="false"
       use_knot_distance="true"
       apply_no_radius="true"
       apply_with_radius="true"
       only_selected="false"
       hide_knots="false" />
    <inkscape:path-effect
       effect="skeletal"
       id="path-effect28108"
       is_visible="true"
       lpeversion="1"
       pattern="m -192.5184,157.40498 h 6.05403 v 27.84857 h -6.05403 z"
       copytype="repeated_stretched"
       prop_scale="1.4"
       scale_y_rel="false"
       spacing="6.8"
       normal_offset="0"
       tang_offset="0"
       prop_units="false"
       vertical_pattern="false"
       hide_knot="false"
       fuse_tolerance="0" />
    <linearGradient
       inkscape:collect="always"
       id="linearGradient19204">
      <stop
         style="stop-color:#ffd480;stop-opacity:1;"
         offset="0"
         id="stop19200" />
      <stop
         style="stop-color:#c7403b;stop-opacity:1;"
         offset="1"
         id="stop19202" />
    </linearGradient>
    <linearGradient
       inkscape:collect="always"
       id="linearGradient14610">
      <stop
         style="stop-color:#ffffff;stop-opacity:1;"
         offset="0"
         id="stop14608" />
      <stop
         style="stop-color:#000000;stop-opacity:1;"
         offset="1"
         id="stop14606" />
    </linearGradient>
    <inkscape:path-effect
       effect="powerstroke"
       id="path-effect13078"
       is_visible="true"
       lpeversion="1"
       offset_points="0.18374328,-0.42690276 | 6.7776263,-14.226062 | 15.646921,-0.66105581"
       not_jump="false"
       sort_points="true"
       interpolator_type="CentripetalCatmullRom"
       interpolator_beta="0.2"
       start_linecap_type="zerowidth"
       linejoin_type="round"
       miter_limit="4"
       scale_width="1"
       end_linecap_type="zerowidth" />
    <inkscape:path-effect
       effect="spiro"
       id="path-effect13074"
       is_visible="true"
       lpeversion="1" />
    <inkscape:path-effect
       effect="powerstroke"
       id="path-effect13068"
       is_visible="true"
       lpeversion="1"
       offset_points="0.18374328,-0.42690276 | 6.7776263,-14.226062 | 15.646921,-0.66105581"
       not_jump="false"
       sort_points="true"
       interpolator_type="CentripetalCatmullRom"
       interpolator_beta="0.2"
       start_linecap_type="zerowidth"
       linejoin_type="round"
       miter_limit="4"
       scale_width="1"
       end_linecap_type="zerowidth" />
    <inkscape:path-effect
       effect="spiro"
       id="path-effect12340"
       is_visible="true"
       lpeversion="1" />
    <linearGradient
       inkscape:collect="always"
       xlink:href="#linearGradient14610"
       id="linearGradient14612"
       x1="-2.7133732"
       y1="-171.61958"
       x2="507.78159"
       y2="114.13099"
       gradientUnits="userSpaceOnUse" />
    <linearGradient
       inkscape:collect="always"
       xlink:href="#linearGradient19204"
       id="linearGradient19206"
       x1="-105.63201"
       y1="-20.920472"
       x2="417.92985"
       y2="-20.920472"
       gradientUnits="userSpaceOnUse" />
    <linearGradient
       inkscape:collect="always"
       xlink:href="#linearGradient19204"
       id="linearGradient28136"
       gradientUnits="userSpaceOnUse"
       x1="-105.63201"
       y1="-20.920472"
       x2="417.92985"
       y2="-20.920472" />
    <linearGradient
       inkscape:collect="always"
       xlink:href="#linearGradient14610"
       id="linearGradient28138"
       gradientUnits="userSpaceOnUse"
       x1="-2.7133732"
       y1="-171.61958"
       x2="507.78159"
       y2="114.13099" />
  </defs>
  <g
     inkscape:label="Layer 1"
     inkscape:groupmode="layer"
     id="layer1">
    <rect
       style="opacity:1;fill:#000000;stroke:none;stroke-width:2.64584;stroke-linecap:round;stroke-linejoin:round;paint-order:stroke fill markers"
       id="rect28140"
       width="630.99744"
       height="452.91403"
       x="-170.37787"
       y="-260.27573" />
    <g
       id="g28126"
       transform="translate(-3.4246804,-40.239999)">
      <path
         id="path13142"
         style="font-weight:normal;font-size:368.446px;font-family:Kanit;-inkscape-font-specification:'Kanit, Normal';fill:url(#linearGradient28136);fill-opacity:1;stroke-width:2.64584;stroke-linecap:round;stroke-linejoin:round;paint-order:stroke fill markers"
         d="m 143.37086,39.116417 c -0.76254,-0.614251 -1.52177,-1.228265 -2.27711,-1.841026 -0.46808,-0.376211 -0.93443,-0.751427 -1.40039,-1.126953 l 3.35547,-4.154297 c -0.97594,-0.782319 -1.94998,-1.562815 -2.92774,-2.347657 v 5.4375 l -3.93554,-5.552734 -1.85157,2.285156 c -1.57869,-1.277714 -3.14713,-2.546617 -4.70898,-3.804687 l 2.91602,-3.623047 -1.30079,-1.835938 c -1.21131,-0.965197 -2.40265,-1.899745 -3.59961,-2.84375 l -3.2539,4.111328 c -1.54845,-1.228235 -3.09332,-2.44196 -4.63477,-3.636718 l 3.19532,-4.13086 c -1.75314,-1.353225 -3.51216,-2.688659 -5.26954,-3.998046 l -3.11523,4.177734 c -1.53912,-1.149385 -3.07716,-2.276834 -4.61914,-3.378906 l 3.0332,-4.2402348 c -1.72416,-1.2328852 -3.45638,-2.4543882 -5.2207,-3.6484374 -0.0309,-0.020957 -0.0609,-0.039616 -0.0918,-0.060547 l -2.92968,4.3359375 c -1.55236,-1.031608 -3.109,-2.0416573 -4.66797,-3.0253906 l 2.82421,-4.4472657 C 101.75927,1.0431868 100.62901,0.32432846 99.503906,-0.36523438 98.8361,-0.77452434 98.1561,-1.1716016 97.480469,-1.5742188 L 94.800781,3.0058594 C 93.234024,2.0862522 91.663841,1.1970488 90.089844,0.34375 L 92.625,-4.3730469 C 90.814473,-5.3731367 88.971112,-6.3323748 87.109375,-7.2617188 L 84.771484,-2.390625 C 83.189001,-3.1590923 81.60207,-3.8885408 80.011719,-4.5722656 l 2.148437,-5.0390625 c -1.848919,-0.8289439 -3.722323,-1.6111089 -5.617187,-2.3457029 l -1.904297,5.2558591 c -1.59954,-0.5781878 -3.204467,-1.1070198 -4.8125,-1.5820312 l 1.664062,-5.4824219 c -0.621105,-0.205393 -1.237626,-0.423818 -1.863281,-0.617187 -1.2731,-0.393692 -2.564228,-0.744874 -3.861328,-1.080079 l -0.341797,1.470703 67.483342,95.281965 z M 17.789062,-12.259766 c -1.263711,0.561844 -2.526453,1.156268 -3.789062,1.800782 -0.551497,0.281518 -1.095827,0.5964274 -1.644531,0.8906246 l 4.289062,7.0371094 c -1.409877,0.8771553 -2.819938,1.80806568 -4.228515,2.78320312 L 7.5566406,-6.8261719 C 5.7664879,-5.7384318 3.9865618,-4.6112276 2.2246094,-3.4121094 L 7.6699219,3.6953125 C 6.5335557,4.5541818 5.3983655,5.4344603 4.2617188,6.3339844 3.9911606,6.5534347 3.721398,6.775346 3.4511719,6.9980469 L -2.4335938,-0.09179687 C -4.1778575,1.1956845 -5.9038859,2.5244932 -7.6191406,3.8808594 l 6.359375,7.1601566 c -1.3979417,1.243056 -2.7978698,2.522316 -4.2050782,3.832031 L -12.216797,7.5957031 c -1.726338,1.4250766 -3.448562,2.8655119 -5.166015,4.3242189 l 7.140624,7.472656 c -1.430222,1.370296 -2.873997,2.764269 -4.335937,4.175781 l -4.46875,-4.632812 V 97.71875 H 21.113281 V -5.8242188 Z M -65.84375,46.787109 c -0.31562,0.152961 -0.630267,0.310426 -0.951172,0.453125 -1.938004,0.862294 -3.878317,1.633895 -5.814453,2.335938 l 5.820313,13.332031 c -2.320885,1.027681 -4.703671,1.963308 -7.142579,2.796875 l -4.896484,-14.144531 c -2.398738,0.660803 -4.781132,1.193956 -7.138672,1.603515 l 3.617188,14.951172 c -2.554673,0.593303 -5.158,1.073992 -7.800782,1.433594 l -2.25,-15.566406 c -2.488627,0.192647 -4.904541,0.23291 -7.248047,0.140625 l 0.449219,16.164062 c -2.124021,0.05837 -4.273261,0.01268 -6.433591,-0.09375 V 97.71875 h 40.162107 V 47.482422 Z" />
      <path
         id="path13130"
         style="font-weight:normal;font-size:368.446px;font-family:Kanit;-inkscape-font-specification:'Kanit, Normal';fill:url(#linearGradient28138);fill-opacity:1;stroke-width:2.64584;stroke-linecap:round;stroke-linejoin:round;paint-order:stroke fill markers"
         d="m -93.085938,-139.56055 c -6.929042,0 -12.546872,5.61783 -12.546872,12.54688 V 47.929688 c 5.26028,0.05777 10.848116,-0.718439 16.679685,-2.484376 5.70636,-1.728022 11.494883,-4.358259 17.121094,-7.835937 2.171206,-1.341236 4.280773,-2.799133 6.361328,-4.330078 V -127.01367 c -10e-7,-6.92905 -5.617828,-12.54688 -12.546875,-12.54688 z m 86.585938,0 c -6.929047,0 -12.546874,5.61783 -12.546875,12.54688 v 114.431639 c 1.461895,-1.415883 2.931656,-2.810256 4.416016,-4.15625 5.2284133,-4.739982 10.9647604,-9.330823 17.2207028,-13.34375 5.7008088,-3.656832 11.8730932,-6.847733 18.5234372,-9.246094 V -76.556641 L 44.171875,-44 c 2.028164,-0.132631 4.053481,-0.207849 6.068359,-0.210938 9.233766,-0.01415 18.288887,1.284904 26.789063,3.492188 4.161055,1.080106 8.180577,2.391984 12.083984,3.84375 l -65.533203,-92.44922 c -4.550982,-6.42013 -11.933202,-10.23633 -19.8027342,-10.23633 z m 186.41406,31.39153 v -18.84465 c 0,-6.92905 -5.61783,-12.54688 -12.54687,-12.54688 h -14.69922 c -6.92905,0 -12.54688,5.61783 -12.54688,12.54688 V -6.6972656 c 4.11418,3.1896666 8.16452,6.44249839 12.20426,9.7230902 z" />
    </g>
    <g
       id="g28134"
       style="display:inline"
       transform="translate(2.5685106,7.7055318)">
      <path
         id="path28130"
         d="m 367.82031,-139.56055 -27.69336,29.91797 c 0.7654,0.71893 1.52487,1.42644 2.29493,2.1582 l -10.23829,10.802739 c 1.766,1.507526 3.53747,3.013157 5.27539,4.552735 l 10.16993,-10.318364 c 1.5494,1.52963 3.10114,3.092085 4.64843,4.693364 l -10.19336,9.828125 c 0.97563,0.908744 1.94585,1.8174 2.87696,2.722656 0.73891,0.718471 1.47985,1.455612 2.21875,2.201172 l 10.30664,-9.205078 c 1.53728,1.698209 3.051,3.449501 4.5332,5.257812 l -10.45117,8.576172 c 1.14176,1.254638 2.27774,2.530609 3.39062,3.853516 l 59.28711,-65.041019 z M 132.90717,81.289777 144.54297,97.71875 h 35.37109 V 61.25 l -1.79687,2.943359 c -1.91519,-1.174283 -3.80291,-2.370293 -5.66211,-3.583984 l 3.04687,-4.664063 c -2.04936,-1.317374 -4.06347,-2.663718 -6.05273,-4.027343 l -3.1582,4.539062 c -1.80107,-1.249564 -3.57847,-2.513079 -5.33204,-3.787109 l 3.23829,-4.441406 c -1.95022,-1.401839 -3.86999,-2.814133 -5.75977,-4.232422 l -3.30273,4.345703 c -1.70494,-1.293118 -3.39075,-2.591892 -5.05665,-3.894531 l 3.33985,-4.271485 c -1.88612,-1.458167 -3.6966,-2.895036 -5.51953,-4.33789 l -3.36524,4.21289 c -0.38824,-0.311427 -0.77572,-0.622926 -1.16234,-0.934364 z m 234.8526,-61.567121 c -0.18853,0.414387 -0.3975,0.817009 -0.5918,1.228516 l 2.04687,1.033203 z m -3.68555,7.265625 c -1.2398,2.21304 -2.57193,4.370793 -3.97656,6.482422 l 7.73828,5.449219 c -1.41786,2.019308 -2.89905,3.988419 -4.43946,5.904297 l -7.24023,-5.84961 c -1.54073,2.012038 -3.15175,3.969235 -4.83789,5.865235 l 6.66797,6.236328 c -1.6692,1.794328 -3.39199,3.533517 -5.16797,5.214844 l -6.17578,-6.550782 c -0.36351,0.357392 -0.71064,0.730507 -1.07813,1.083985 l 29.625,46.894531 h 42.74024 L 373.89844,29.265625 c -0.50055,0.893482 -1.00567,1.784774 -1.5293,2.662109 z M 226.70703,78.496094 v 0.130859 l 0.0332,-0.123047 c -0.011,-0.0027 -0.0222,-0.005 -0.0332,-0.0078 z m 6.53906,1.482422 -1.38476,6.234375 c -1.72968,-0.382544 -3.44202,-0.81864 -5.1543,-1.25586 V 97.71875 h 40.16016 V 82.828125 c -1.7823,0.06644 -3.56345,0.0866 -5.3418,0.08594 l -0.14453,6.951172 c -2.35704,-0.05258 -4.7113,-0.163532 -7.05859,-0.333984 l 0.47265,-6.779297 c -1.06771,-0.05336 -2.13565,-0.1121 -3.19922,-0.191406 -1.44858,-0.107958 -2.88268,-0.269715 -4.32031,-0.421875 l -0.81641,6.605469 c -2.3185,-0.292057 -4.62612,-0.633382 -6.91992,-1.025391 l 1.09571,-6.435547 c -2.4807,-0.380085 -4.94692,-0.803836 -7.38868,-1.304687 z"
         style="font-weight:normal;font-size:368.446px;font-family:Kanit;-inkscape-font-specification:'Kanit, Normal';fill:url(#linearGradient19206);fill-opacity:1;stroke-width:2.64584;stroke-linecap:round;stroke-linejoin:round;paint-order:stroke fill markers" />
      <path
         id="path28132"
         d="m 152.32535,3.0258246 c 3.29198,2.6733541 6.57692,5.3651427 9.88363,8.0562064 5.86507,4.773123 11.73164,9.475689 17.70508,13.925781 V -108.16902 Z m 86.9266,-142.5863746 c -6.92904,0 -12.54492,5.61783 -12.54492,12.54688 V 50.800781 c 8.77386,3.040015 17.90286,5.233948 27.25391,6.3125 4.2682,0.492547 8.58246,0.734252 12.90625,0.742188 V 19.240234 l 35.00195,-37.582031 32.23242,51.021485 c 0.10437,-0.09818 0.21448,-0.190367 0.31836,-0.289063 7.00005,-6.650604 12.84182,-14.417325 17.05664,-22.9960938 1.45502,-2.9604894 2.69522,-6.0301031 3.74414,-9.1679687 l -28.29687,-43.9902345 19.27929,-21.15039 c -2.84397,-4.433653 -6.01565,-8.689508 -9.3789,-12.751954 -3.98164,-4.808832 -8.48171,-9.673787 -12.98242,-14.384765 L 266.86719,-30.5 v -96.51367 c 0,-6.92905 -5.61783,-12.54688 -12.54688,-12.54688 z"
         style="font-weight:normal;font-size:368.446px;font-family:Kanit;-inkscape-font-specification:'Kanit, Normal';fill:url(#linearGradient14612);fill-opacity:1;stroke-width:2.64584;stroke-linecap:round;stroke-linejoin:round;paint-order:stroke fill markers" />
    </g>
  </g>
</svg>
