<?xml version="1.0" encoding="UTF-8" standalone="no"?>
<!-- Created with Inkscape (http://www.inkscape.org/) -->

<svg
   width="210mm"
   height="297mm"
   viewBox="0 0 210 297"
   version="1.1"
   id="svg1"
   xml:space="preserve"
   inkscape:version="1.3 (0e150ed6c4, 2023-07-21)"
   sodipodi:docname="DistressedLetters.svg"
   xmlns:inkscape="http://www.inkscape.org/namespaces/inkscape"
   xmlns:sodipodi="http://sodipodi.sourceforge.net/DTD/sodipodi-0.dtd"
   xmlns="http://www.w3.org/2000/svg"
   xmlns:svg="http://www.w3.org/2000/svg"><sodipodi:namedview
     id="namedview1"
     pagecolor="#ffffff"
     bordercolor="#000000"
     borderopacity="0.25"
     inkscape:showpageshadow="2"
     inkscape:pageopacity="0.0"
     inkscape:pagecheckerboard="0"
     inkscape:deskcolor="#d1d1d1"
     inkscape:document-units="mm"
     inkscape:zoom="1.0733976"
     inkscape:cx="508.66519"
     inkscape:cy="564.56246"
     inkscape:window-width="1920"
     inkscape:window-height="1056"
     inkscape:window-x="0"
     inkscape:window-y="0"
     inkscape:window-maximized="1"
     inkscape:current-layer="layer1" /><defs
     id="defs1" /><g
     inkscape:label="Layer 1"
     inkscape:groupmode="layer"
     id="layer1"><path
       id="text1"
       style="font-size:213.686px;font-family:'League Gothic';-inkscape-font-specification:'League Gothic';stroke-width:4.45178"
       d="M 105.83023 54.881405 C 99.561839 54.881405 93.997984 54.993091 89.368188 58.055888 C 84.738293 61.047485 80.729566 66.306938 78.236568 71.435433 C 75.743571 76.563828 75.710624 81.493071 75.710624 87.832365 L 75.913196 101.32095 L 74.867265 117.76284 L 74.414579 131.92476 L 74.499845 147.33623 L 74.627486 160.31476 L 76.221704 180.45617 C 76.221704 186.86616 76.465702 192.96379 78.3177 198.09178 C 80.240798 203.22078 82.41885 207.35124 86.407646 210.34323 C 90.396442 213.33523 97.093969 214.12698 103.43296 214.12698 L 102.80819 214.24325 C 106.58319 214.24325 110.66598 214.844 113.72898 213.064 C 116.86297 211.212 118.22089 207.408 120.21488 204.20201 L 124.01775 213.63089 L 137.38386 213.15598 L 136.04493 190.7868 L 136.00307 171.66497 L 136.14776 154.93111 L 137.62002 134.32203 L 126.85582 135.59896 L 115.69681 134.62796 L 104.74193 134.45226 L 104.15592 156.2008 L 114.64106 156.19408 L 114.10001 169.74106 L 114.10208 182.59506 C 114.10208 185.65805 113.83286 188.77684 112.69286 191.12684 C 111.55386 193.40683 109.17222 193.60524 106.32323 193.60524 C 103.61623 193.60524 100.5241 193.53499 99.312801 191.25499 C 98.101902 188.905 97.621431 185.74125 97.621431 182.67826 L 98.209509 168.61917 L 98.469958 153.43921 L 98.35627 138.39982 L 98.633256 120.42521 L 98.997058 103.70375 L 97.692745 87.888692 C 97.692745 84.968395 98.121943 81.883111 99.261641 79.532613 C 100.47284 77.110816 103.56021 76.956543 106.33821 76.956543 C 109.18721 76.956543 110.53894 77.273986 111.67794 79.553284 C 112.81794 81.832581 113.82199 85.80321 113.82199 88.937207 L 114.43901 99.915865 L 114.5899 113.4308 L 124.07511 112.8019 L 136.16585 113.0701 L 136.58701 98.772266 L 137.33012 88.539299 C 137.33012 83.838203 135.4008 78.367605 133.9758 74.307609 C 132.6228 70.176313 131.92702 67.637553 129.22002 64.503556 C 126.58502 61.369459 122.44393 58.21716 118.59793 56.507662 C 114.82293 54.726964 110.60223 54.881405 105.83023 54.881405 z M 106.35061 58.551982 C 106.44801 58.550553 106.5162 58.591283 106.56714 58.655851 C 106.7575 58.653505 106.95226 58.647561 107.14178 58.646033 C 107.05648 58.902323 106.78517 58.964812 106.58678 58.665153 C 106.58255 58.65877 106.57175 58.661693 106.56714 58.655851 C 106.3725 58.65825 106.17602 58.661874 105.97958 58.66567 C 105.96826 58.671043 105.96223 58.668671 105.95064 58.674455 C 105.56942 58.864923 105.52034 59.007987 105.71809 59.352966 C 106.05676 59.943718 106.03407 60.821091 105.67159 61.159574 C 105.34387 61.465511 105.55645 62.246988 106.51081 64.248275 C 107.20852 65.711386 107.0068 66.142508 105.72068 65.939644 C 105.17678 65.853874 104.73211 65.875907 104.73211 65.988737 C 104.73211 66.335061 105.30112 66.747864 105.77856 66.747864 C 106.34263 66.747864 106.61262 67.341034 106.23951 67.760722 C 106.0859 67.933535 106.03041 68.245467 106.116 68.453703 C 106.2016 68.661928 106.14294 68.977151 105.98578 69.153918 C 105.82034 69.339993 105.76979 69.734955 105.86589 70.092362 C 105.96209 70.45023 105.89955 70.94099 105.71654 71.26025 C 105.43727 71.747409 105.47644 71.903183 106.05606 72.612622 C 106.22988 72.825365 106.19351 72.839422 106.2979 72.980042 C 105.91016 72.953793 105.52389 72.935231 105.13415 72.943351 C 105.09396 72.842665 105.03654 72.766788 105.01943 72.627091 C 104.97343 72.251063 104.83078 71.825014 104.70265 71.680379 C 104.57452 71.535691 104.43487 70.808332 104.39259 70.06394 L 104.3156 68.710018 L 103.35183 68.635087 C 102.82176 68.593867 102.24774 68.451432 102.07594 68.318311 C 101.62054 67.965481 101.69415 67.440328 102.19893 67.440328 C 102.56344 67.440328 102.63744 67.21634 102.6542 66.064701 C 102.6652 65.308288 102.81233 64.533938 102.98131 64.343876 C 103.15029 64.153794 103.21907 63.794403 103.13427 63.544958 C 103.04947 63.295535 103.09614 63.02463 103.23763 62.942928 C 103.37922 62.861218 103.49497 62.13086 103.49497 61.320288 C 103.49497 60.509706 103.60646 59.782335 103.7425 59.703849 C 103.87855 59.625359 103.99003 59.261679 103.99003 58.89563 C 103.99003 58.817682 104.03349 58.798553 104.04274 58.723547 C 104.4771 58.706988 104.93 58.688641 105.35946 58.676005 C 105.56987 58.669814 105.77225 58.669676 105.97958 58.66567 C 106.12477 58.596718 106.25208 58.553427 106.35061 58.551982 z M 108.85795 58.662052 C 109.30992 58.671954 109.75869 58.68734 110.19896 58.710628 C 110.16916 58.743289 110.19594 58.759337 110.16227 58.792794 C 109.50155 59.449351 109.35141 59.478183 108.94839 59.024821 C 108.88005 58.947962 108.89757 58.788984 108.85795 58.662052 z M 111.0325 58.767989 C 111.50199 58.803783 111.96466 58.850087 112.41949 58.905965 C 112.06945 59.196259 111.77145 59.589128 111.65727 59.589128 C 111.55502 59.589128 111.32229 59.4216 111.13999 59.216541 C 110.98567 59.042943 110.95636 58.915717 111.0325 58.767989 z M 107.09682 59.382939 C 107.19895 59.359054 107.31969 59.378052 107.46579 59.442883 C 107.75801 59.572545 108.15086 59.885275 108.69517 60.403031 C 109.58266 61.247237 109.74318 61.521095 109.53285 61.832402 C 109.11338 62.453193 108.83712 62.412198 108.0611 61.613293 C 107.12758 60.652163 106.65352 59.862825 106.84051 59.580343 C 106.91119 59.473589 106.9947 59.406823 107.09682 59.382939 z M 110.53227 59.83149 C 110.84901 59.896909 111.31487 60.263433 111.5441 60.684668 C 111.68547 60.94444 111.94538 61.319209 112.12184 61.517692 C 112.29831 61.716195 112.37085 61.987142 112.28307 62.119722 C 112.00855 62.534392 111.46706 62.384582 110.92863 61.745585 C 110.3544 61.064056 110.02442 60.113619 110.27957 59.875415 C 110.33775 59.821108 110.42669 59.809684 110.53227 59.83149 z M 109.29514 62.622534 C 109.34873 62.61652 109.41076 62.623717 109.48169 62.645789 C 109.88719 62.771988 110.71155 64.187572 110.53486 64.454464 C 110.29553 64.816004 110.04423 64.701187 109.45844 63.961471 C 108.97016 63.344921 108.91999 62.664635 109.29514 62.622534 z M 88.956327 63.204411 C 88.936204 63.240524 88.953813 63.326988 88.927905 63.351172 C 88.882751 63.393324 88.863844 63.303182 88.825069 63.319132 C 88.868638 63.28046 88.912596 63.242646 88.956327 63.204411 z M 113.07992 64.251892 C 113.35377 64.301122 113.51348 64.540385 113.51348 64.900948 C 113.51348 65.559234 112.73241 65.838175 112.49649 65.264233 C 112.27143 64.716722 112.59029 64.163872 113.07992 64.251892 z M 110.17364 65.028072 C 110.46107 65.001743 110.8288 65.0919 111.1498 65.310225 C 111.49735 65.546639 111.98869 65.812021 112.24121 65.899854 C 112.57942 66.017538 112.66094 66.204944 112.55179 66.610921 C 112.45579 66.967873 112.52278 67.204757 112.74196 67.283232 C 113.16814 67.435923 113.415 68.845549 113.08302 69.230916 C 112.75988 69.605969 112.17068 69.600678 112.01487 69.221098 C 111.94766 69.057298 111.92355 68.673057 111.96112 68.36637 C 112.01192 67.950502 111.8517 67.727383 111.33222 67.489421 C 110.65382 67.178634 109.68199 65.976019 109.68013 65.445101 C 109.67913 65.197435 109.8862 65.054401 110.17364 65.028072 z M 108.12725 65.880216 C 108.39673 65.948208 108.5954 66.17945 108.64195 66.55356 C 108.68815 66.925303 108.90532 67.208579 109.1985 67.280131 C 109.87616 67.445575 109.79568 68.010061 109.04916 68.327612 C 108.1849 68.695222 108.1294 68.682553 107.37536 67.947791 C 106.58803 67.180593 106.54041 66.732631 107.18726 66.186141 C 107.51754 65.907102 107.85777 65.812226 108.12725 65.880216 z M 100.46519 66.78042 C 100.58366 66.777926 100.69258 66.810733 100.77524 66.887907 C 101.19189 67.276836 100.78252 67.902832 100.1112 67.902832 C 99.677804 67.902832 99.524172 67.793042 99.581002 67.523527 C 99.638532 67.250614 99.854357 67.014552 100.09725 66.885323 C 100.21869 66.820709 100.34671 66.782914 100.46519 66.78042 z M 115.57744 67.340076 C 115.7368 67.314361 115.86623 67.333624 115.95106 67.388652 C 116.12073 67.498705 116.11244 67.75135 115.80895 68.07078 C 115.59491 68.296045 115.38056 68.679433 115.3325 68.922925 C 115.239 69.396437 114.82827 69.631108 114.54908 69.370443 C 114.12928 68.978548 114.40133 67.942627 115.02399 67.561768 C 115.22881 67.436483 115.41809 67.36579 115.57744 67.340076 z M 120.2247 69.057284 C 120.44144 69.057284 120.56605 69.219548 120.51978 69.442273 C 120.42348 69.906083 119.9291 70.10063 119.70535 69.762667 C 119.48788 69.434143 119.76521 69.057284 120.2247 69.057284 z M 108.60939 69.122913 C 108.78931 69.148127 108.9609 69.210798 109.09825 69.317216 C 109.31948 69.488613 109.74208 69.599285 110.03721 69.563196 C 110.52678 69.503346 110.57556 69.604831 110.59583 70.720748 C 110.60803 71.393429 110.5047 72.073524 110.36587 72.232284 C 109.97601 72.678052 109.43209 72.573913 109.43208 72.053483 C 109.43208 71.767209 109.19212 71.501085 108.81351 71.366703 C 108.47339 71.245988 108.19495 70.985567 108.19495 70.787927 C 108.19495 70.590288 108.02799 70.368565 107.82391 70.295451 C 107.61984 70.222271 107.45287 69.967589 107.45287 69.729594 C 107.45287 69.447906 107.7272 69.238775 108.06989 69.152885 C 108.24123 69.10994 108.42948 69.097698 108.60939 69.122913 z M 103.00198 69.750264 C 103.14567 69.750264 103.33067 69.914533 103.41333 70.115617 C 103.58966 70.544599 102.64991 71.54056 102.41029 71.178601 C 102.20496 70.868439 102.66814 69.750264 103.00198 69.750264 z M 115.86321 69.750264 C 115.99927 69.750264 116.11074 69.854225 116.11074 69.981258 C 116.11074 70.108282 115.99927 70.211735 115.86321 70.211735 C 115.72717 70.211735 115.6162 70.108313 115.6162 69.981258 C 115.6162 69.854266 115.72717 69.750264 115.86321 69.750264 z M 113.15537 69.836047 C 113.28547 69.798405 113.41997 69.810692 113.55121 69.86912 C 113.81367 69.985976 114.06279 70.288387 114.23851 70.748653 C 114.4186 71.220449 114.3697 71.455324 114.01475 71.821456 C 113.56476 72.285673 112.88366 72.433465 112.56522 72.136165 C 112.26805 71.858752 112.40801 70.56836 112.78588 70.101664 C 112.89957 69.961263 113.02526 69.87369 113.15537 69.836047 z M 106.64672 70.035518 C 106.68436 70.023572 106.72683 70.024309 106.77281 70.038619 C 106.94287 70.091599 107.08184 70.273382 107.08184 70.442729 C 107.08184 70.612066 106.94287 70.793918 106.77281 70.846838 C 106.58887 70.904088 106.46327 70.740357 106.46327 70.442729 C 106.46327 70.219476 106.5338 70.071358 106.64672 70.035518 z M 115.40639 71.59718 C 115.80426 71.59718 115.94721 72.329852 115.59036 72.540792 C 115.13538 72.809742 114.93657 72.802649 114.74338 72.510819 C 114.56989 72.248771 115.04268 71.59718 115.40639 71.59718 z M 129.14974 71.820422 C 129.50427 72.627626 129.79927 73.465553 130.0639 74.316394 C 130.04677 74.429529 129.96427 74.548056 129.96416 74.645056 C 129.9637 75.113836 129.84099 75.56773 129.69183 75.65378 C 129.52013 75.75288 129.4495 76.498908 129.49907 77.687764 C 129.54607 78.813972 129.46335 79.755704 129.29237 80.040592 C 129.00502 80.519582 128.86437 81.308051 128.93528 82.042021 C 128.95638 82.261029 129.30745 82.601554 129.7156 82.798564 C 130.57918 83.215472 130.70756 84.017211 130.0055 84.610339 C 129.41876 85.106079 129.43332 85.109342 128.60249 84.299764 C 127.74379 83.463016 127.54417 83.441946 127.2527 84.157654 C 127.04868 84.658612 126.92101 84.697744 125.83676 84.590186 C 123.90012 84.398066 123.04925 83.214903 124.42651 82.629065 C 124.99427 82.387595 125.12852 82.416381 125.5174 82.864709 C 126.68872 84.215107 128.17548 82.489758 127.03411 81.10461 C 126.62058 80.602732 126.46224 80.573768 124.75156 80.684998 C 123.74053 80.750796 122.5825 80.837421 122.17807 80.877751 C 121.6513 80.930351 121.41931 80.843216 121.36055 80.570276 C 121.30315 80.303626 121.6992 79.997058 122.67985 79.54915 C 123.82668 79.02536 124.16509 78.958273 124.54485 79.179663 C 125.58809 79.787911 126.73942 79.289973 127.45114 77.922375 C 127.74441 77.358807 127.98392 76.591835 127.98392 76.218087 C 127.98392 75.844297 128.19462 75.188303 128.45211 74.760295 C 128.76359 74.242594 128.93164 73.446612 129.14974 71.820422 z M 102.01083 73.213102 C 102.08957 73.213102 102.10859 73.292993 102.15397 73.346944 C 102.03018 73.379979 101.91144 73.430301 101.78862 73.46735 C 101.78646 73.455128 101.76381 73.456868 101.76381 73.444096 C 101.76381 73.317106 101.87478 73.213102 102.01083 73.213102 z M 114.77439 73.453398 C 114.96226 73.473098 115.12166 73.581922 115.12166 73.766557 C 115.12166 74.158105 114.45283 74.435155 114.24936 74.127775 L 114.24884 74.127775 C 114.16844 74.006315 114.17116 73.803143 114.25556 73.676123 C 114.36985 73.503488 114.58652 73.433698 114.77439 73.453398 z M 115.6069 75.116862 C 115.694 75.113594 115.78497 75.131866 115.86735 75.17939 C 116.14398 75.33902 115.96271 75.754549 115.6162 75.754549 C 115.49621 75.754549 115.33378 75.657845 115.2555 75.539575 C 115.11828 75.332328 115.3456 75.126666 115.6069 75.116862 z M 127.31109 75.379895 C 127.33707 75.355618 127.37135 75.388052 127.41083 75.480147 C 127.48223 75.646867 127.47349 75.845768 127.39119 75.922498 C 127.30889 75.999196 127.25074 75.863062 127.26148 75.619674 C 127.26743 75.485159 127.28511 75.404172 127.31109 75.379895 z M 118.96948 76.805648 C 119.08477 76.809287 119.21796 76.849767 119.34414 76.914685 C 119.59649 77.044522 119.82111 77.27172 119.82111 77.494495 C 119.82111 77.929903 119.2272 77.93118 118.84081 77.496562 C 118.67639 77.311612 118.61381 77.051202 118.7018 76.918302 C 118.7568 76.83521 118.85419 76.802009 118.96948 76.805648 z M 85.166895 78.349223 C 85.507458 78.404092 85.754913 78.694941 85.574622 78.967273 C 85.346362 79.312083 85.059621 79.281992 84.697673 78.874772 C 84.449603 78.595732 84.470355 78.503176 84.807743 78.382296 C 84.929588 78.338648 85.053373 78.330933 85.166895 78.349223 z M 131.38164 78.359041 C 131.48991 78.671236 131.58607 78.984145 131.68705 79.296969 C 131.58047 79.24279 131.44567 79.201492 131.16874 79.176046 C 130.27023 79.093546 129.86192 78.525439 130.70107 78.525439 C 130.90883 78.525439 131.14864 78.431986 131.38164 78.359041 z M 86.189571 79.068559 C 86.301511 79.074846 86.422385 79.119077 86.539937 79.210152 C 86.749767 79.372742 86.921826 79.649118 86.921826 79.824068 C 86.921826 80.262998 85.951181 80.226043 85.767891 79.780143 C 85.655733 79.507255 85.731144 79.27362 85.893465 79.153825 C 85.974626 79.093927 86.077631 79.062271 86.189571 79.068559 z M 131.81418 79.700562 C 131.90708 79.998128 132.00889 80.295058 132.09478 80.593014 C 131.99447 80.573268 131.90251 80.499549 131.81728 80.370805 L 131.81676 80.370805 C 131.7327 80.243917 131.73346 79.94367 131.81418 79.700562 z M 87.643229 80.170817 C 87.729231 80.174101 87.803151 80.195046 87.84425 80.233346 C 87.92655 80.310044 87.780492 80.364815 87.519722 80.354785 C 87.231564 80.343785 87.172521 80.288989 87.369861 80.215259 C 87.459141 80.181909 87.557227 80.167533 87.643229 80.170817 z M 116.41822 80.292773 C 116.74129 80.215099 117.13361 80.307971 117.39025 80.524801 C 117.67836 80.768219 118.03842 80.839016 118.4708 80.737708 C 119.00299 80.613008 119.10373 80.658953 119.03459 80.994023 C 118.97779 81.269851 118.55024 81.492606 117.71633 81.680286 C 117.37803 81.756412 117.15662 81.816652 116.83783 81.894226 C 116.73913 81.341204 116.60037 80.805644 116.41822 80.292773 z M 120.19215 80.372872 C 120.76416 80.372872 120.85473 80.796761 120.33787 81.055001 C 120.01493 81.216331 119.79984 81.220218 119.69812 81.06637 C 119.49355 80.75736 119.76734 80.372872 120.19215 80.372872 z M 89.85188 81.125281 C 90.004121 81.104973 90.137651 81.18904 90.137651 81.392965 C 90.137651 81.594043 89.961373 81.758317 89.745943 81.758317 C 89.530533 81.758317 89.398064 81.635242 89.451904 81.484432 C 89.528349 81.270337 89.699639 81.145588 89.85188 81.125281 z M 131.19819 82.103516 C 131.3352 82.182516 131.44727 82.442735 131.44727 82.681775 C 131.44727 83.250673 130.99101 83.505723 130.8008 83.042993 C 130.6059 82.568845 130.88027 81.920096 131.19819 82.103516 z M 91.868811 82.220304 C 92.004861 82.220304 92.116341 82.376018 92.116341 82.566536 C 92.116341 82.757056 92.004861 82.913285 91.868811 82.913285 C 91.732761 82.913285 91.621798 82.757056 91.621798 82.566536 C 91.621798 82.376018 91.732761 82.220304 91.868811 82.220304 z M 117.83622 85.222705 C 118.6188 85.222705 118.88154 85.587941 118.54212 86.204041 C 118.4061 86.450939 118.41581 86.77601 118.56692 87.039648 C 118.9424 87.694638 118.45796 88.014426 117.89151 87.485616 C 117.72826 87.333206 117.59489 87.055459 117.59489 86.868599 C 117.59489 86.747394 117.45049 86.559481 117.33857 86.383875 C 117.30172 86.058621 117.25539 85.732676 117.21558 85.40719 C 117.36537 85.317696 117.50959 85.222705 117.83622 85.222705 z M 129.48305 86.378707 C 129.62714 86.378707 129.67618 86.482671 129.59209 86.609701 C 129.50809 86.736729 129.39008 86.840177 129.33009 86.840177 C 129.26999 86.840177 129.22105 86.736759 129.22105 86.609701 C 129.22105 86.482701 129.33897 86.378707 129.48305 86.378707 z M 93.175191 86.642773 C 93.324867 86.62075 93.490841 86.627201 93.645447 86.656726 C 93.777539 86.681952 93.79182 86.777677 93.890393 86.833459 C 93.884909 86.985547 93.874591 87.138731 93.871273 87.290279 C 93.503133 87.488432 92.915028 87.572987 92.730257 87.293896 C 92.634057 87.148538 92.666489 86.926043 92.802087 86.799353 C 92.892137 86.715296 93.025515 86.664797 93.175191 86.642773 z M 91.868811 86.839661 C 92.004861 86.839661 92.116341 86.943604 92.116341 87.070654 C 92.116341 87.197654 92.004861 87.301648 91.868811 87.301648 C 91.732771 87.301648 91.621798 87.197684 91.621798 87.070654 C 91.621798 86.943644 91.732771 86.839661 91.868811 86.839661 z M 128.41593 87.531608 C 128.66591 87.531608 128.70633 87.747247 128.5782 88.397705 C 128.31173 89.750553 127.48938 90.090425 127.48938 88.847807 C 127.48938 88.049069 127.85375 87.531608 128.41593 87.531608 z M 80.403361 87.98171 C 80.544871 87.8496 81.237477 88.336668 82.205835 89.248816 L 83.778866 90.729862 L 82.829053 91.100382 C 81.473775 91.629042 80.737708 91.773503 80.737708 91.510693 C 80.737708 91.385473 80.904666 91.153579 81.108744 90.995479 C 81.668814 90.561531 81.555519 89.729399 80.826591 88.920671 C 80.424521 88.474581 80.261851 88.11381 80.403361 87.98171 z M 90.013627 87.993595 C 90.217697 87.993595 90.384664 88.097539 90.384664 88.224589 C 90.384664 88.351609 90.217697 88.455583 90.013627 88.455583 C 89.809547 88.455583 89.64259 88.351639 89.64259 88.224589 C 89.64259 88.097569 89.809547 87.993595 90.013627 87.993595 z M 87.733146 88.542916 C 87.759126 88.518638 87.793407 88.551068 87.832882 88.643168 C 87.904282 88.809878 87.895545 89.008788 87.813245 89.085518 C 87.730945 89.162218 87.67228 89.026094 87.68302 88.782694 L 87.683537 88.782694 C 87.689487 88.64818 87.707166 88.567194 87.733146 88.542916 z M 92.923527 89.395577 C 92.993572 89.403059 93.085288 89.506657 93.247021 89.711837 C 93.441381 89.958397 93.600488 90.24423 93.600488 90.34694 C 93.600488 90.618966 92.91603 90.575376 92.727673 90.291646 C 92.639573 90.158566 92.640557 89.872733 92.730257 89.656543 C 92.804982 89.476633 92.853482 89.388094 92.923527 89.395577 z M 127.24185 89.725789 C 127.51061 89.725789 127.63425 90.036961 127.68988 90.854919 C 127.75848 91.863807 127.68102 92.066951 126.96124 92.760229 C 126.15304 93.538659 125.95384 93.642286 125.70757 93.412386 C 125.52583 93.242696 126.06455 91.831924 126.49667 91.345846 C 126.69037 91.127956 126.85383 90.674318 126.85996 90.337638 C 126.86696 89.95213 127.00815 89.725789 127.24185 89.725789 z M 79.633382 91.582007 C 79.729252 91.668173 79.726824 91.753186 79.6401 91.892065 C 79.637463 91.788346 79.635974 91.685509 79.633382 91.582007 z M 91.703446 92.948848 C 91.779728 92.946547 91.864213 92.977609 91.946326 93.054268 C 92.139974 93.235048 92.139974 93.375783 91.946326 93.556563 C 91.752676 93.737363 91.63089 93.737363 91.51121 93.556563 C 91.382545 93.362215 91.409253 93.159717 91.509143 93.04445 C 91.559088 92.986816 91.627165 92.95115 91.703446 92.948848 z M 86.452087 93.330221 C 86.669746 93.358601 86.922343 93.620243 86.922343 93.896077 C 86.922343 94.339207 86.450405 94.322503 86.265535 93.872823 L 86.265019 93.872823 C 86.184419 93.676833 86.180352 93.458351 86.25675 93.387581 C 86.310903 93.337029 86.379535 93.32076 86.452087 93.330221 z M 93.642863 93.337455 C 93.74167 93.361689 93.84468 93.456367 93.98031 93.627877 C 94.551448 94.350145 93.958418 94.793678 93.34469 94.1033 C 93.09487 93.82231 93.091649 93.688235 93.330737 93.468197 C 93.449347 93.359032 93.544056 93.313222 93.642863 93.337455 z M 123.9051 93.459412 C 124.26806 93.529241 124.52108 93.839011 124.52108 94.274866 C 124.52108 94.751474 123.78737 94.837027 123.33356 94.413359 C 122.89648 94.005349 122.97206 93.605431 123.51081 93.473881 C 123.65094 93.439671 123.78411 93.436135 123.9051 93.459412 z M 91.746338 93.997363 C 92.110008 93.997363 92.923093 95.329544 92.733875 95.615352 C 92.560285 95.877552 91.125639 96.029744 90.974809 95.801904 C 90.757619 95.473836 91.388838 93.997363 91.746338 93.997363 z M 89.229696 94.795764 C 89.305977 94.793461 89.390462 94.824522 89.472575 94.901184 C 89.666225 95.081944 89.666225 95.222192 89.472575 95.402962 C 89.278925 95.583752 89.157129 95.583752 89.037459 95.402962 C 88.908794 95.208612 88.935502 95.006631 89.035392 94.891366 C 89.085337 94.833732 89.153414 94.798067 89.229696 94.795764 z M 86.276904 95.845312 C 86.564404 95.845312 86.921826 96.303367 86.921826 96.672135 C 86.921826 96.827775 86.27723 96.782963 86.09707 96.614775 C 85.805282 96.342375 85.921526 95.845312 86.276904 95.845312 z M 89.89012 96.075789 C 90.02618 96.075789 90.137651 96.179753 90.137651 96.306783 C 90.137651 96.433793 90.02618 96.537777 89.89012 96.537777 C 89.754082 96.537777 89.64259 96.433823 89.64259 96.306783 C 89.64259 96.179783 89.754082 96.075789 89.89012 96.075789 z M 83.823307 96.709342 C 84.367497 96.667842 84.582647 96.763162 84.649097 97.075212 C 84.712497 97.37285 84.604911 97.483189 84.284261 97.449349 C 83.386233 97.354649 82.233485 97.756774 81.854435 98.296842 C 81.409917 98.930202 81.371569 98.93569 80.334631 98.5144 C 80.004384 98.380232 79.899794 98.259214 79.740869 98.135095 C 79.740249 97.894823 79.734506 97.658711 79.732601 97.419377 C 80.33092 97.115042 81.696937 96.871778 83.823307 96.709342 z M 90.932434 96.80391 C 91.0243 96.811989 91.148613 96.839854 91.312773 96.878324 C 91.686161 96.965724 92.027663 97.070575 92.071383 97.111385 C 92.115083 97.152185 92.170816 97.841673 92.195406 98.643591 C 92.230506 99.786769 92.158545 100.11756 91.863127 100.17425 C 91.603417 100.22415 91.397675 99.939362 91.200635 99.258024 C 91.043425 98.714486 90.851584 97.921254 90.774304 97.494824 C 90.706339 97.119851 90.6769 96.926876 90.746399 96.847319 C 90.781148 96.807539 90.840568 96.795832 90.932434 96.80391 z M 121.13421 98.221912 C 121.50659 98.34406 121.39648 99.42818 120.912 100.40627 C 120.51282 101.21218 120.48438 101.23738 120.23349 101.00314 C 119.70458 100.50939 120.51153 98.017622 121.13421 98.221912 z M 127.31109 98.241549 C 127.33707 98.217271 127.37135 98.249691 127.41083 98.341801 C 127.48223 98.508521 127.47349 98.707948 127.39119 98.784668 C 127.30889 98.861368 127.25074 98.724817 127.26148 98.481327 C 127.26743 98.346803 127.28511 98.265827 127.31109 98.241549 z M 123.47515 98.679248 C 123.63471 98.657291 123.77901 98.778182 123.77901 99.059587 C 123.77901 99.343235 123.61934 99.540694 123.38988 99.540694 C 123.15952 99.540694 123.033 99.383555 123.08034 99.155705 C 123.14052 98.86603 123.3156 98.701206 123.47515 98.679248 z M 93.471814 99.897262 C 93.577582 99.896072 93.685704 99.910888 93.786007 99.945321 C 94.321425 100.12916 94.12201 100.46364 93.476982 100.46364 C 93.136862 100.46364 92.858415 100.36878 92.858415 100.25228 C 92.858415 100.04941 93.154509 99.900829 93.471814 99.897262 z M 91.47452 100.70341 C 91.658916 100.70699 91.864741 100.81309 91.949426 101.01916 C 92.149296 101.50542 91.677345 101.82527 91.291585 101.46512 C 91.200885 101.38052 91.126737 101.17251 91.126737 101.00314 C 91.126737 100.79875 91.290124 100.69984 91.47452 100.70341 z M 131.6979 101.27237 C 131.94735 101.27237 132.03911 101.45792 131.98264 101.8496 C 131.8727 102.61225 131.50657 102.95523 131.31085 102.47902 C 131.07907 101.91518 131.28516 101.27237 131.6979 101.27237 z M 93.113696 101.38709 C 93.750116 101.38709 94.049478 102.06208 93.563798 102.40202 C 93.363188 102.54242 93.118068 102.81301 93.019128 103.00353 C 92.32152 104.34678 91.8262 104.84078 91.169112 104.84786 C 90.924632 104.84986 90.88787 104.65857 91.025968 104.10062 C 91.128118 103.68785 91.222211 103.09057 91.234741 102.77306 C 91.253941 102.2858 91.363162 102.20588 91.93444 102.26198 C 92.47388 102.31498 92.610885 102.23298 92.610885 101.85787 C 92.610885 101.5388 92.773008 101.38709 93.113696 101.38709 z M 124.40998 102.01186 C 124.52007 102.03257 124.64975 102.0957 124.78722 102.21185 C 125.04259 102.4276 125.19182 102.69407 125.11898 102.80406 C 124.92435 103.09807 124.62139 103.04897 124.28285 102.66815 C 124.04585 102.40156 124.03444 102.17107 124.15108 102.0656 C 124.20939 102.01287 124.29989 101.99115 124.40998 102.01186 z M 125.99644 103.28982 C 126.08359 103.28655 126.17452 103.30483 126.25689 103.35235 C 126.53353 103.51196 126.35173 103.92751 126.00523 103.92751 C 125.88524 103.92751 125.72281 103.83078 125.64453 103.71253 C 125.50732 103.50528 125.73501 103.29962 125.99644 103.28982 z M 90.873523 106.92371 C 90.938154 106.92426 90.98282 106.94216 91.006331 106.97642 C 91.100379 107.11345 90.859963 107.51178 90.239453 108.10503 C 89.287975 109.01468 88.81093 109.20195 88.52948 108.77682 C 88.3074 108.44138 88.533459 108.19183 89.766097 107.41567 C 90.304168 107.07666 90.679629 106.92203 90.873523 106.92371 z M 95.090837 107.00432 C 95.090347 107.6616 95.077096 108.32776 95.069132 108.9887 C 94.929304 109.14414 94.849084 109.11876 94.704297 109.3494 C 94.343587 109.92402 93.891879 110.39378 93.700741 110.39378 C 93.509591 110.39378 93.352958 110.53185 93.352958 110.70022 C 93.352958 111.07181 92.322683 112.01022 91.914803 112.01022 C 91.753503 112.01022 91.621798 111.9068 91.621798 111.77974 C 91.621798 111.65273 91.454831 111.54875 91.250761 111.54875 C 91.046681 111.54875 90.879724 111.43458 90.879724 111.29502 C 90.879724 110.94705 92.338677 109.70131 92.746277 109.70131 C 93.280735 109.70131 93.436138 109.2311 93.000008 108.9334 C 92.778428 108.78214 92.572285 108.34765 92.542155 107.96757 C 92.491755 107.33186 92.55657 107.2714 93.352958 107.21619 C 94.186151 107.15845 94.709916 107.0862 95.090837 107.00432 z M 89.515466 109.93799 C 89.711274 109.95276 89.931183 110.03812 90.027063 110.18294 C 90.281753 110.5677 89.790478 110.90109 89.44467 110.57826 C 89.28141 110.42584 89.148047 110.21788 89.148047 110.11628 C 89.148047 109.97869 89.31966 109.92322 89.515466 109.93799 z M 86.550789 112.70372 C 86.754869 112.70372 86.921826 112.85944 86.921826 113.04995 C 86.921826 113.24047 86.754869 113.39618 86.550789 113.39618 C 86.346731 113.39618 86.179753 113.24047 86.179753 113.04995 C 86.179753 112.85944 86.346731 112.70372 86.550789 112.70372 z M 80.796619 113.90312 C 81.094711 113.94475 81.38064 114.11859 81.43689 114.39405 C 81.54144 114.90589 80.816813 115.70508 80.247815 115.70508 C 79.8318 115.70508 79.10275 116.38678 78.793123 116.99286 C 78.823651 116.34512 78.839573 115.69696 78.872705 115.04931 C 79.065338 114.95788 79.254575 114.85935 79.404972 114.79816 C 79.692532 114.6812 79.998549 114.4146 80.084517 114.20543 C 80.188542 113.95235 80.498525 113.86151 80.796619 113.90312 z M 94.84434 118.55969 C 94.831562 119.01083 94.81727 119.4558 94.805583 119.90844 C 94.531711 120.06332 94.313725 120.05937 94.17203 119.71466 C 93.992907 119.2789 94.356106 118.69252 94.84434 118.55969 z M 92.44552 119.04338 C 92.521801 119.04108 92.606284 119.07213 92.688399 119.1488 C 92.882049 119.32957 92.882049 119.4698 92.688399 119.65058 C 92.494749 119.83138 92.372954 119.83138 92.253284 119.65058 C 92.124619 119.45623 92.15133 119.25425 92.251217 119.13898 C 92.30116 119.08135 92.369239 119.04568 92.44552 119.04338 z M 92.418648 120.60091 C 92.478002 120.60756 92.538653 120.62802 92.600033 120.66344 C 92.928771 120.85311 92.936243 121.63695 92.610885 121.82461 C 92.474835 121.90311 92.363354 122.45959 92.363354 123.06174 C 92.363354 124.17185 92.055291 124.71073 91.419743 124.71073 C 91.159313 124.71073 91.114567 124.54813 91.246627 124.07615 L 91.247144 124.07615 C 91.344942 123.72688 91.478917 122.90028 91.545317 122.23957 C 91.650534 121.19254 92.003172 120.55434 92.418648 120.60091 z M 90.16814 121.28614 C 90.286513 121.27429 90.408225 121.2965 90.514889 121.34453 C 90.728214 121.44059 90.88244 121.64024 90.833215 121.87887 C 90.723555 122.41044 89.931054 122.53839 89.733024 122.05663 C 89.647424 121.84818 89.695501 121.5672 89.840511 121.43186 C 89.934731 121.3439 90.049766 121.29799 90.16814 121.28614 z M 94.777677 121.53883 C 94.773992 121.7116 94.774861 121.88675 94.771476 122.05973 C 94.693885 121.86634 94.680449 121.70172 94.777677 121.53883 z M 79.624597 121.70885 C 79.830717 121.70885 79.995634 121.91425 79.995634 122.17084 C 79.995634 122.63089 79.732018 122.77158 79.418408 122.47883 C 79.11715 122.19758 79.247999 121.70885 79.624597 121.70885 z M 89.471541 123.15682 C 89.958181 123.30808 89.974843 124.08169 89.498413 124.40688 C 89.002275 124.74557 88.808878 124.77914 88.58064 124.56604 C 88.33472 124.33648 89.144713 123.05524 89.471541 123.15682 z M 79.830269 123.43071 C 79.90668 123.42828 79.991036 123.45947 80.073149 123.53613 C 80.266787 123.71691 80.266787 123.85766 80.073149 124.03842 C 79.879499 124.21922 79.757713 124.21922 79.638033 124.03842 C 79.509363 123.84407 79.535561 123.64209 79.635449 123.52683 C 79.685394 123.46919 79.753859 123.43314 79.830269 123.43071 z M 82.907084 123.55628 C 83.421714 123.55628 83.508472 124.046 83.073482 124.49473 C 82.576804 125.00708 81.727311 125.09309 81.727311 124.63115 C 81.727311 124.2678 82.508296 123.55628 82.907084 123.55628 z M 85.977698 124.59653 C 86.072138 124.57248 86.204268 124.58545 86.373022 124.64149 C 86.901582 124.81705 87.904526 125.91938 87.749166 126.15406 C 87.486976 126.55009 86.672816 126.28133 86.180786 125.63626 C 85.750932 125.07269 85.694378 124.66867 85.977698 124.59653 z M 89.413664 125.01511 C 89.565044 125.04066 89.729635 125.09193 89.871 125.1629 C 90.581558 125.5179 90.53109 126.41552 89.774882 126.87804 C 89.042414 127.32608 89.026863 127.32728 88.712415 126.96228 C 88.387385 126.58502 88.623399 125.16909 89.035909 125.02131 C 89.124114 124.98971 89.262284 124.98955 89.413664 125.01511 z M 92.491512 126.12202 C 92.735898 126.05944 93.099644 126.28637 93.638212 126.78916 C 94.006871 127.13333 94.344048 127.29087 94.708948 127.38137 C 94.698614 127.90612 94.702105 128.4274 94.693445 128.95182 C 94.638423 128.92275 94.583738 128.86473 94.532214 128.8402 L 93.547778 128.37149 L 92.967969 128.87947 C 92.290149 129.47392 91.450046 129.34353 91.762874 128.6924 C 91.869154 128.47119 92.002984 127.79658 92.060014 127.19327 C 92.122069 126.53669 92.247126 126.1846 92.491512 126.12202 z M 90.966024 126.62741 C 91.122954 126.67811 91.21722 127.02102 91.17583 127.38964 C 90.86458 130.1609 90.853993 130.71554 91.111751 130.71554 C 91.263251 130.71554 91.493016 130.45585 91.622314 130.13831 C 91.797424 129.70838 92.037856 129.56108 92.564376 129.56108 C 93.542814 129.56108 93.664363 129.75937 93.098193 130.43132 C 92.537305 131.09698 92.48059 131.53831 92.92146 131.80126 C 93.559928 132.1821 93.949366 133.22303 93.659916 133.7753 C 93.510146 134.06107 93.324311 134.6327 93.247021 135.0455 C 93.169723 135.45829 93.038103 136.13394 92.954533 136.5467 C 92.746753 137.57294 91.419388 138.85869 90.73348 138.69799 C 89.990032 138.52379 89.827548 138.78923 90.281828 139.43645 C 90.640446 139.94743 90.640353 140.0936 90.282345 141.1149 C 90.066795 141.73017 89.890637 142.46633 89.890637 142.75098 C 89.890637 143.0356 89.76164 143.60063 89.60435 144.00671 C 89.35555 144.64903 89.38789 144.83604 89.85188 145.44435 C 90.522668 146.32379 90.519164 146.51602 89.822424 147.03702 C 89.036606 147.62471 88.464575 149.31595 88.854525 149.89886 C 89.223743 150.4508 89.240822 152.80408 88.877262 153.01392 C 88.714834 153.10762 88.664739 153.50652 88.751689 154.0092 C 89.059087 155.78633 89.127931 157.07726 89.153731 161.52657 C 89.174931 165.1862 89.104359 166.27251 88.809049 166.83788 C 88.604841 167.22879 88.378658 167.73078 88.306238 167.95306 C 88.149998 168.4325 87.826989 168.47179 87.457711 168.05641 L 87.457194 168.05589 C 87.165914 167.72825 87.27987 167.01592 87.798258 165.92424 C 88.046978 165.40044 88.068433 164.99309 87.883525 164.3078 C 87.506895 162.91235 87.439522 161.57808 87.729012 161.24597 C 87.912532 161.03544 87.904647 160.86867 87.702657 160.68011 C 87.385727 160.38426 87.312551 159.06273 87.598271 158.79599 C 87.869359 158.54293 87.941455 156.07217 87.693355 155.54038 C 86.980217 154.01192 86.906731 153.73013 87.157471 153.49606 C 87.508399 153.16844 87.487322 150.96457 87.130082 150.63112 C 86.941322 150.45488 86.92515 150.26201 87.08254 150.06526 C 87.21385 149.90111 87.347353 148.96134 87.379163 147.97701 C 87.432963 146.31155 87.402081 146.18746 86.932161 146.18746 C 86.264063 146.18746 86.256828 145.36533 86.921826 145.03301 C 87.661814 144.6633 87.571886 143.69086 86.771448 143.40675 C 86.217918 143.21028 86.143032 143.07196 86.245382 142.4311 C 86.310982 142.02034 86.51387 141.34839 86.696 140.93765 C 86.99243 140.26906 86.979419 140.15878 86.574561 139.88242 C 86.110571 139.56569 86.109571 139.09945 86.566809 136.66194 C 86.656009 136.18559 86.627879 135.79585 86.504281 135.79585 C 86.245111 135.79585 85.685209 137.12958 85.685209 137.74715 C 85.685209 138.30515 84.381002 140.40721 83.621252 141.07356 C 82.933204 141.67697 81.901147 141.67324 81.777437 141.06736 C 81.725937 140.81484 81.890252 140.6553 82.25131 140.60589 C 82.82518 140.52739 83.656972 139.44555 83.688432 138.73727 C 83.698832 138.51327 83.835286 138.13766 83.992806 137.90218 C 84.150316 137.6667 84.210481 137.30588 84.126131 137.10068 C 83.900191 136.55101 83.253173 136.8893 83.164433 137.60349 C 83.119233 137.96756 82.91229 138.24789 82.65542 138.29337 C 82.31224 138.35417 82.222371 138.20819 82.222371 137.5885 C 82.222371 136.98286 82.394424 136.68812 82.985632 136.28005 C 83.574122 135.87388 83.715758 135.63191 83.60575 135.22275 C 83.41115 134.49893 84.459989 133.81461 85.198417 134.18354 C 85.471947 134.32019 85.79232 134.37628 85.910518 134.30808 C 86.149678 134.17012 86.449047 132.78762 86.448987 131.82038 C 86.448967 131.47525 86.555445 131.13122 86.685665 131.05608 C 87.000285 130.87457 86.990843 128.47322 86.674813 128.29088 C 86.538763 128.21238 86.427283 128.00684 86.427283 127.83406 C 86.427283 127.38321 88.84162 127.48385 89.155798 127.94775 C 89.299748 128.16029 89.38963 128.185 89.39196 128.01286 C 89.39696 127.60619 90.632064 126.51959 90.966024 126.62741 z M 78.418986 126.69666 C 78.595543 126.79275 78.7585 126.95775 78.7585 127.12816 C 78.7585 127.27924 78.57418 127.33392 78.407617 127.38706 C 78.413464 127.15696 78.412806 126.92675 78.418986 126.69666 z M 82.899333 128.4273 C 82.98709 128.42637 83.057156 128.44471 83.105522 128.47898 C 83.202253 128.54751 83.21161 128.68019 83.09777 128.85208 C 82.89238 129.16235 82.544848 129.16905 82.344328 128.86604 C 82.259728 128.73814 82.369174 128.56915 82.587724 128.49087 C 82.706126 128.44845 82.811575 128.42824 82.899333 128.4273 z M 89.21626 128.97972 C 89.16667 128.99624 89.104053 129.0375 89.02454 129.0991 C 88.82046 129.25721 88.653503 129.6273 88.653503 129.92179 C 88.653503 130.21627 88.542023 130.52131 88.405973 130.59978 C 88.269923 130.67828 88.158443 131.26874 88.158443 131.91184 C 88.158443 132.92501 88.20804 133.04306 88.52948 132.79396 C 88.74076 132.63028 88.900517 132.12662 88.900517 131.62452 C 88.900517 131.13952 89.012007 130.67829 89.148047 130.59978 C 89.284107 130.52128 89.395577 130.08705 89.395577 129.63446 C 89.395577 129.28183 89.381921 129.08619 89.328914 129.0097 C 89.302411 128.97145 89.265849 128.96321 89.21626 128.97972 z M 85.728101 129.13269 C 85.828117 129.15778 85.932834 129.25488 86.072782 129.43189 C 86.267702 129.67846 86.427283 130.06827 86.427283 130.29799 C 86.427283 130.91747 85.71755 130.80403 85.38962 130.13211 C 85.17033 129.6828 85.175094 129.48396 85.411324 129.26653 C 85.532474 129.155 85.628083 129.1076 85.728101 129.13269 z M 81.479264 131.00544 C 81.590705 131.00514 81.701979 131.06208 81.848234 131.17546 C 82.050824 131.3324 82.155338 131.55274 82.080778 131.66535 C 81.905008 131.93086 80.737708 131.93277 80.737708 131.66742 C 80.737708 131.55597 80.904666 131.33564 81.108744 131.17752 C 81.256084 131.06336 81.367823 131.00574 81.479264 131.00544 z M 83.768014 131.91133 C 84.074112 131.95193 84.324569 132.13958 84.324569 132.32836 C 84.324569 132.69525 83.672754 132.91676 83.384574 132.64772 C 82.995046 132.28408 83.226574 131.83957 83.768014 131.91133 z M 82.30402 132.99085 C 85.023984 133.10209 85.174825 133.80383 82.482821 133.82284 C 81.260923 133.83084 81.118547 133.88611 80.989889 134.39283 C 80.805579 135.1188 80.433485 135.22015 79.915535 134.68584 C 79.373707 134.12692 79.392148 133.88046 80.015788 133.35362 C 80.440276 132.99499 80.843154 132.93112 82.30402 132.99085 z M 90.122664 133.48643 C 89.978586 133.48643 89.929547 133.59039 90.013627 133.71742 C 90.097627 133.84443 90.215647 133.94841 90.275627 133.94841 C 90.335727 133.94841 90.384664 133.84446 90.384664 133.71742 C 90.384664 133.59042 90.266744 133.48643 90.122664 133.48643 z M 87.588452 133.5381 C 87.308865 133.64261 86.921826 134.04707 86.921826 134.32307 C 86.921826 134.80118 87.362239 134.70579 87.675269 134.15977 C 87.827127 133.89484 87.889531 133.62018 87.813761 133.54947 C 87.762684 133.50178 87.681648 133.50327 87.588452 133.5381 z M 91.284867 133.76134 C 91.072415 133.74424 90.879724 133.83492 90.879724 134.04712 C 90.879724 134.26133 91.091098 134.4104 91.394938 134.4104 C 91.697218 134.4104 91.867696 134.29086 91.807316 134.12153 C 91.729391 133.90305 91.497321 133.77845 91.284867 133.76134 z M 88.704663 134.17941 C 88.379273 134.17941 88.158443 134.75044 88.158443 135.59276 C 88.158443 135.96846 87.935998 136.68338 87.6639 137.18129 C 87.15159 138.11878 86.986912 139.39201 87.409652 139.1481 C 87.542062 139.0717 87.810161 138.67595 88.005481 138.26856 C 88.656319 136.911 89.123463 134.17941 88.704663 134.17941 z M 82.07561 134.40988 C 82.60438 134.40988 82.806033 134.83927 82.460083 135.22844 C 82.107173 135.62541 81.817383 135.65678 81.596053 135.32249 C 81.361293 134.96788 81.654422 134.40988 82.07561 134.40988 z M 94.637634 134.71839 C 94.63577 134.97852 94.63149 135.23918 94.629883 135.49922 C 94.474038 135.3452 94.342562 135.10075 94.342562 134.94112 C 94.342562 134.77912 94.496406 134.74696 94.637634 134.71839 z M 91.557202 135.12457 C 91.469445 135.1255 91.363996 135.14572 91.245593 135.18813 C 91.027023 135.26643 90.917507 135.43541 91.002197 135.5633 C 91.202697 135.86617 91.55023 135.85999 91.75564 135.54987 L 91.75564 135.54935 C 91.869465 135.3774 91.860124 135.24476 91.763391 135.17625 C 91.715025 135.14199 91.644959 135.12364 91.557202 135.12457 z M 79.032902 137.00559 C 79.361732 137.03703 79.294284 137.30496 78.800875 137.72183 C 78.591735 137.89851 78.416836 137.96407 78.247937 138.0138 C 78.248734 137.73835 78.243554 137.46293 78.244836 137.18749 C 78.366284 137.14533 78.414456 137.09278 78.572982 137.05623 C 78.769506 137.01092 78.923292 136.99511 79.032902 137.00559 z M 94.076428 137.2278 C 94.159268 137.22204 94.244655 137.23962 94.324475 137.28568 C 94.463975 137.36618 94.465596 137.70439 94.327576 138.15074 C 94.155326 138.71142 94.192099 138.97701 94.485189 139.27935 C 94.661391 139.46112 94.630606 139.58656 94.588542 139.69948 C 94.588462 139.73848 94.587584 139.77779 94.587508 139.81679 C 94.461368 139.91542 94.216748 139.94597 93.869722 139.84314 C 93.532574 139.74324 93.201294 139.93287 92.679614 140.52372 C 92.282293 140.97374 91.881049 141.26937 91.786646 141.1826 L 91.786646 141.18311 L 91.785612 141.18311 C 91.785708 141.1832 91.786549 141.18251 91.786646 141.1826 C 91.27249 140.70123 92.528651 138.10423 93.27596 138.10423 C 93.45445 138.10423 93.600488 137.95448 93.600488 137.77144 C 93.600488 137.47249 93.827908 137.24509 94.076428 137.2278 z M 108.66055 138.86646 C 108.99666 138.76853 109.24848 139.17183 109.03572 139.75529 C 108.81656 140.35637 108.76606 140.53539 108.7205 140.87564 C 108.7081 140.96802 108.53576 140.99975 108.38563 141.03635 C 108.40353 140.37144 108.42146 139.70656 108.43938 139.04164 C 108.51416 138.97349 108.58971 138.8871 108.66055 138.86646 z M 112.90939 139.2592 C 113.67333 139.2592 113.86428 139.64757 113.34037 140.13667 C 112.92055 140.52856 112.233 140.48068 112.05466 140.04675 C 111.83082 139.50215 112.09437 139.2592 112.90939 139.2592 z M 130.21789 139.84056 C 130.55079 140.03263 130.51836 140.72652 130.16105 141.06012 C 129.84108 141.35884 128.9126 141.43402 128.64383 141.18311 C 128.285 140.84813 128.51483 140.40822 129.22829 140.0638 C 129.64044 139.86482 130.08584 139.76435 130.21789 139.84056 z M 90.956722 142.57838 C 91.125389 142.64242 91.250761 143.01508 91.250761 143.66565 C 91.250761 144.54753 91.175484 144.69582 90.694206 144.75964 C 90.357836 144.80424 90.137854 144.71288 90.138684 144.52865 C 90.139374 144.36105 90.258214 143.82786 90.402234 143.34371 C 90.576104 142.75917 90.788055 142.51433 90.956722 142.57838 z M 92.699768 142.72307 C 93.065478 142.72307 94.342562 144.9294 94.342562 145.56114 C 94.342562 146.06513 93.959453 146.24387 93.642863 145.88774 C 93.499253 145.72623 93.266647 145.31199 93.126099 144.96686 C 92.985549 144.62177 92.707457 144.33951 92.508049 144.33951 C 92.308629 144.33951 92.082784 144.2441 92.005754 144.12764 C 91.784964 143.79413 92.314228 142.72307 92.699768 142.72307 z M 112.25568 142.76906 C 112.83057 142.82146 113.03795 142.9668 113.09749 143.35817 C 113.16819 143.82291 113.07218 143.87804 112.18488 143.87804 C 111.63923 143.87804 111.12079 143.76929 111.03302 143.63671 C 110.74524 143.20201 111.45785 142.69639 112.25568 142.76906 z M 117.91115 143.0414 C 117.93726 143.01712 117.97193 143.04955 118.0114 143.14165 C 118.0828 143.30835 118.07406 143.50777 117.99176 143.58452 C 117.90946 143.66122 117.85081 143.52467 117.86154 143.28118 C 117.86749 143.14666 117.88504 143.06568 117.91115 143.0414 z M 81.541793 143.64653 C 81.831483 143.64653 81.759195 143.98301 81.448775 144.07958 C 81.295715 144.12718 81.212237 144.04936 81.263257 143.90646 C 81.314257 143.7636 81.439753 143.64653 81.541793 143.64653 z M 86.382841 143.98966 C 86.427024 143.99522 86.46425 144.01469 86.492395 144.0465 C 86.604974 144.17375 86.576025 144.49594 86.298092 144.89193 C 85.846212 145.53573 85.437679 145.68146 85.437679 145.19889 C 85.437679 145.03663 85.617328 144.66404 85.837138 144.37103 C 86.05337 144.08284 86.250291 143.97298 86.382841 143.98966 z M 80.720654 144.88676 C 80.980206 144.93625 81.00387 145.54824 80.635388 146.07325 C 80.09516 146.84297 79.698227 146.81101 79.897965 146.01383 C 79.985465 145.66456 80.206185 145.23034 80.388375 145.04903 C 80.521472 144.91657 80.634137 144.87027 80.720654 144.88676 z M 132.95468 145.07797 C 132.97492 145.07576 132.98819 145.0946 133.00842 145.09347 C 132.98521 145.41848 132.96348 145.74329 132.94072 146.0686 C 132.82138 146.04832 132.74628 146.05868 132.60793 146.0252 C 131.94775 145.86547 132.2062 145.15946 132.95468 145.07797 z M 109.61967 145.40921 C 109.71453 145.42706 109.81534 145.48415 109.90905 145.58956 C 110.22596 145.94604 110.08225 146.41794 109.65687 146.41794 C 109.52457 146.41794 109.34956 146.25474 109.26775 146.05568 C 109.1579 145.78843 109.22448 145.56645 109.36542 145.46399 C 109.43588 145.41276 109.5248 145.39137 109.61967 145.40921 z M 112.77555 145.56786 C 113.00601 145.48981 113.36208 145.60654 113.75223 145.94871 C 114.14171 146.29029 114.50209 146.41225 114.83175 146.31458 C 115.10397 146.23388 115.39891 146.27708 115.48701 146.41018 C 115.57511 146.54323 115.44525 146.7109 115.19865 146.78277 C 114.95194 146.85457 114.55692 147.00971 114.32067 147.12745 C 113.80339 147.38526 112.96409 147.40805 112.81999 147.16828 C 112.76269 147.07308 112.64197 146.70696 112.55179 146.35489 C 112.44 145.91845 112.54508 145.64591 112.77555 145.56786 z M 117.10035 145.72496 C 117.2364 145.72496 117.34736 145.82889 117.34736 145.95595 C 117.34736 146.08294 117.2364 146.18694 117.10035 146.18694 C 116.96429 146.18694 116.85282 146.08298 116.85282 145.95595 C 116.85282 145.82892 116.96429 145.72496 117.10035 145.72496 z M 122.08971 145.72496 C 122.56926 145.72496 123.26044 146.43826 123.11755 146.78587 C 122.95406 147.18363 122.49498 147.20495 122.09694 146.83341 C 121.71634 146.47813 121.71128 145.72496 122.08971 145.72496 z M 84.8434 146.65668 C 85.031272 146.67638 85.190666 146.7852 85.190666 146.96984 C 85.190666 147.36139 84.521321 147.63841 84.317851 147.33106 C 84.237451 147.20958 84.240169 147.00588 84.324569 146.87889 C 84.438859 146.70626 84.655528 146.63698 84.8434 146.65668 z M 130.32796 147.11092 C 130.88486 147.11092 130.78685 147.82701 130.21066 147.96771 C 129.93856 148.03411 129.7156 148.23231 129.7156 148.408 C 129.7156 148.58373 129.54864 148.72736 129.34456 148.72736 C 129.14048 148.72736 128.97352 148.62341 128.97352 148.49636 C 128.97352 148.36935 129.08783 148.26589 129.22725 148.26589 C 129.36667 148.26589 129.58628 148.00565 129.7156 147.68814 C 129.84491 147.37062 130.12053 147.11092 130.32796 147.11092 z M 78.73783 147.36982 C 78.823702 147.3731 78.897751 147.39404 78.938851 147.43234 C 79.021151 147.50904 78.875093 147.5638 78.614323 147.55378 C 78.326153 147.54278 78.267648 147.48798 78.464978 147.41426 C 78.554263 147.38091 78.651958 147.36653 78.73783 147.36982 z M 116.18722 147.46542 C 116.58524 147.57589 116.91953 148.00086 116.77065 148.36304 C 116.6203 148.72878 115.84178 148.86117 115.53352 148.57336 C 115.22016 148.28083 115.37009 147.62185 115.78363 147.47369 C 115.91499 147.42662 116.05455 147.42859 116.18722 147.46542 z M 111.46296 147.59099 C 111.57526 147.58507 111.68933 147.61658 111.79163 147.67729 C 111.99621 147.79873 112.15336 148.03713 112.15336 148.32738 C 112.15336 148.6235 112.26969 148.97459 112.41226 149.10769 C 112.66322 149.34198 112.60443 149.56904 111.88051 151.15201 C 111.82051 151.2832 111.85085 151.90602 111.83658 152.34471 C 111.41605 152.38918 110.93101 152.43768 110.67025 152.46098 C 110.64328 152.46339 110.64667 152.45976 110.62219 152.46098 C 110.6438 152.13046 110.63667 152.13681 110.6625 151.74319 C 110.79954 149.65502 111.01699 147.84861 111.14515 147.72897 C 111.24016 147.64027 111.35067 147.59692 111.46296 147.59099 z M 117.98815 147.8039 C 118.03705 147.8039 118.24127 148.10013 118.44187 148.46226 C 118.7165 148.95806 118.73589 149.18598 118.52196 149.38571 C 118.13865 149.74358 117.71656 149.71975 117.36131 149.32008 C 117.13033 149.06026 117.15662 148.86204 117.48327 148.39663 C 117.71209 148.07061 117.93925 147.8039 117.98815 147.8039 z M 92.604683 148.05298 C 92.683422 148.04259 92.76805 148.08914 92.875985 148.18992 C 93.033065 148.33655 93.086767 148.5691 92.995357 148.7072 C 92.800027 149.00225 92.443704 149.03549 92.270854 148.77438 C 92.203754 148.67299 92.248156 148.43998 92.369556 148.25658 C 92.452986 148.13056 92.525946 148.06337 92.604683 148.05298 z M 94.549268 148.0814 C 94.563864 148.08398 94.570852 148.11032 94.584924 148.11499 C 94.585109 148.66663 94.585001 149.21999 94.584924 149.77122 C 94.405815 149.70191 94.203787 149.60936 94.090381 149.41155 C 93.737621 148.7962 94.016738 147.98724 94.549268 148.0814 z M 85.739469 148.10569 C 85.82996 148.11992 85.919761 148.16149 85.998368 148.23488 C 86.284288 148.5018 85.939495 149.36384 85.224255 150.17068 C 84.755577 150.69943 84.200545 150.68781 84.200545 150.14897 C 84.200545 149.91462 84.423507 149.53448 84.695605 149.30458 C 84.967705 149.07471 85.190149 148.75325 85.190149 148.5899 C 85.190149 148.37407 85.313711 148.21178 85.476436 148.14031 C 85.557799 148.10458 85.648979 148.09146 85.739469 148.10569 z M 78.521822 148.87567 C 78.553886 148.9056 78.361526 149.18534 78.334237 149.28753 C 78.3356 149.21649 78.334297 149.14513 78.335787 149.0741 A 3.8208452 3.8208452 0 0 0 78.335787 148.91597 C 78.335706 148.91201 78.335868 148.90805 78.335787 148.90409 C 78.391439 148.91565 78.478728 148.83545 78.521822 148.87567 z M 126.1277 150.3965 C 126.2028 150.38622 126.27622 150.3916 126.34474 150.41614 C 126.81682 150.58527 126.8755 151.28665 126.45068 151.68325 C 126.06705 152.04136 125.63772 152.03549 125.3107 151.66774 C 124.98848 151.30531 125.60202 150.46849 126.1277 150.3965 z M 93.841817 151.10809 C 93.920832 151.07952 94.026134 151.11014 94.152909 151.2285 C 94.24629 151.31568 94.424663 151.33779 94.584408 151.38714 C 94.584041 151.79326 94.584572 152.20236 94.583891 152.60826 C 94.425209 152.59892 94.254255 152.48263 93.979793 152.1995 C 93.605087 151.81297 93.604774 151.19379 93.841817 151.10809 z M 83.665177 151.80055 C 83.734659 151.82386 83.794438 151.90657 83.854313 152.05222 C 83.944913 152.2725 83.896496 152.56725 83.746826 152.70696 C 83.548926 152.89171 83.42989 152.8515 83.31016 152.5602 C 83.21956 152.33992 83.267977 152.04566 83.417647 151.90597 C 83.516587 151.81359 83.595696 151.77725 83.665177 151.80055 z M 92.923527 152.50284 C 93.175053 152.54586 93.352958 152.73804 93.352958 153.06146 C 93.352958 153.93626 92.426657 154.31919 91.857959 153.67951 C 91.591519 153.37978 91.623851 153.24112 92.054329 152.83925 C 92.347124 152.5659 92.672001 152.45981 92.923527 152.50284 z M 110.61702 152.54728 C 110.64305 152.55528 110.62582 152.54887 110.65629 152.55865 C 110.64207 152.55408 110.63113 152.55276 110.61702 152.54831 C 110.61705 152.54785 110.61699 152.54774 110.61702 152.54728 z M 128.69602 152.88369 C 129.23516 152.88369 130.71007 153.61341 130.57704 153.81438 C 130.41004 154.06665 128.89772 154.12165 128.64383 153.88466 C 128.4021 153.65898 128.44244 152.88369 128.69602 152.88369 z M 132.14439 153.27747 C 132.27092 153.34226 132.37057 153.66365 132.47098 154.02161 C 132.45594 154.3305 132.44826 154.64152 132.43429 154.95075 C 132.26672 155.02055 131.97788 154.92257 131.57026 154.64431 C 131.12022 154.33711 131.11938 154.3034 131.54598 153.69553 C 131.79541 153.34015 131.98554 153.19612 132.14439 153.27747 z M 127.82062 154.17767 C 127.91037 154.15103 127.98611 154.16022 128.04696 154.20454 C 128.16867 154.29318 128.23145 154.52306 128.23145 154.89132 C 128.23145 155.26336 128.03038 155.5069 127.59686 155.66078 C 127.24788 155.78463 126.88647 155.87185 126.79329 155.85457 C 126.70009 155.83717 126.36683 155.77733 126.05277 155.72124 C 125.21406 155.57164 125.45551 154.86596 126.37833 154.76988 C 126.78532 154.72748 127.29441 154.5454 127.50953 154.36525 C 127.62712 154.26677 127.73088 154.20431 127.82062 154.17767 z M 131.02818 154.99932 C 131.14053 154.9999 131.25388 155.02324 131.35012 155.06237 C 131.5426 155.14063 131.66572 155.28072 131.57181 155.42255 C 131.37846 155.7146 130.78083 155.72539 130.59203 155.44012 C 130.51373 155.3219 130.56822 155.15727 130.71295 155.07374 C 130.80448 155.02093 130.91583 154.99875 131.02818 154.99932 z M 123.91492 155.58689 C 124.02513 155.60759 124.15521 155.67073 124.29267 155.78687 C 124.54805 156.00263 124.69728 156.26907 124.62443 156.37909 C 124.4298 156.67305 124.12634 156.62399 123.78779 156.24318 C 123.5508 155.97658 123.53939 155.74609 123.65602 155.64063 C 123.71433 155.5879 123.8047 155.56618 123.91492 155.58689 z M 125.74323 155.93518 C 125.84177 155.93225 125.94464 155.96816 126.0383 156.05559 C 126.35493 156.35117 126.15839 157.04106 125.7577 157.04106 C 125.61311 157.04106 125.42817 156.87839 125.34635 156.67933 C 125.24327 156.42854 125.32261 156.18525 125.47451 156.04836 C 125.55047 155.97991 125.64469 155.93812 125.74323 155.93518 z M 93.053752 156.15998 C 93.08609 156.17763 93.100431 156.25864 93.101811 156.40544 C 93.103811 156.62771 93.022456 156.81024 92.920426 156.8111 C 92.818378 156.8111 92.469953 157.17566 92.146313 157.61932 C 91.498335 158.50757 91.190959 158.61937 90.957239 158.05082 C 90.715989 157.46388 91.50827 156.45202 92.151998 156.52533 C 92.453068 156.55953 92.789062 156.45568 92.898722 156.29434 C 92.971147 156.1878 93.021413 156.14233 93.053752 156.15998 z M 78.432939 156.30519 C 78.504339 156.47189 78.495602 156.67081 78.413302 156.74754 C 78.405724 156.7546 78.408552 156.7161 78.401416 156.71963 C 78.397386 156.5974 78.387098 156.47389 78.383329 156.3517 C 78.404121 156.361 78.406671 156.24389 78.432939 156.30519 z M 130.80649 156.80955 C 131.18845 156.80955 132.18935 157.78127 132.18935 158.1521 C 132.18935 158.20122 132.27581 158.20154 132.30562 158.2415 C 132.29231 158.67262 132.26557 159.10006 132.25498 159.53186 C 132.06076 159.50407 131.8643 159.40276 131.66742 159.17633 C 130.35822 157.67084 130.04485 156.80955 130.80649 156.80955 z M 123.50151 157.11341 C 123.86625 157.19034 124.27355 157.49347 124.27355 157.76195 C 124.27355 158.11528 123.09634 157.98033 122.94392 157.6095 C 122.86062 157.40671 122.95633 157.19739 123.16768 157.12168 C 123.26317 157.08746 123.37992 157.08776 123.50151 157.11341 z M 83.725122 157.7821 C 83.842408 157.76974 83.966283 157.78634 84.075488 157.82448 C 84.293898 157.90075 84.453689 158.06325 84.386064 158.25287 C 84.248431 158.63875 83.549194 158.74843 83.330314 158.41875 C 83.234214 158.27368 83.27183 158.04615 83.41403 157.91336 C 83.497137 157.83577 83.607836 157.79446 83.725122 157.7821 z M 122.28556 158.0193 C 122.37266 158.01603 122.46364 158.03431 122.54601 158.08182 C 122.82264 158.24145 122.64137 158.65698 122.29486 158.65698 C 122.17488 158.65698 122.01244 158.56026 121.93416 158.44201 C 121.79695 158.23475 122.02427 158.0291 122.28556 158.0193 z M 122.29486 159.34996 C 122.43091 159.34996 122.54239 159.45338 122.54239 159.58044 C 122.54239 159.70745 122.43091 159.81143 122.29486 159.81143 C 122.15881 159.81143 122.04733 159.70748 122.04733 159.58044 C 122.04733 159.45341 122.15881 159.34996 122.29486 159.34996 z M 92.740076 159.87758 C 92.999399 159.82364 93.385532 159.96725 93.778255 160.33388 L 94.407157 160.92144 L 93.429956 161.87074 C 92.892568 162.39283 92.377386 162.74936 92.284806 162.66294 C 92.028118 162.4233 92.084415 161.47395 92.364905 161.31212 C 92.501445 161.23342 92.544946 160.91634 92.462056 160.60777 C 92.347903 160.18319 92.480751 159.93152 92.740076 159.87758 z M 121.03551 162.58284 C 121.68537 162.58284 121.88247 162.93105 121.55537 163.50165 C 121.24107 164.04987 120.60869 164.11617 120.40557 163.62205 C 120.18675 163.08969 120.49383 162.58284 121.03551 162.58284 z M 132.23482 163.07997 C 132.23272 163.49007 132.23078 163.90013 132.23172 164.3109 C 132.04834 164.28103 131.846 164.23503 131.778 164.06957 C 131.62063 163.68669 131.88717 163.26116 132.23482 163.07997 z M 93.105945 163.73678 C 93.241995 163.73678 93.352958 163.84073 93.352958 163.96777 C 93.352958 164.09476 93.241995 164.19876 93.105945 164.19876 C 92.969895 164.19876 92.858415 164.09481 92.858415 163.96777 C 92.858415 163.84076 92.969895 163.73678 93.105945 163.73678 z M 92.977271 165.21265 C 93.36481 165.1275 93.967706 165.67951 93.738981 166.02501 C 93.492091 166.39795 92.865272 166.33244 92.694084 165.91597 C 92.612284 165.71691 92.672309 165.43548 92.827409 165.29069 C 92.870929 165.25006 92.921908 165.22482 92.977271 165.21265 z M 120.70633 165.59919 C 120.92016 165.64525 121.17139 165.81276 121.31973 166.07152 C 121.7056 166.7446 121.2651 167.10507 120.73062 166.55366 C 120.50255 166.3184 120.31565 166.00429 120.31565 165.85551 C 120.31565 165.6287 120.49249 165.55314 120.70633 165.59919 z M 119.32657 166.04723 C 119.60142 166.04723 119.82111 166.20101 119.82111 166.39346 C 119.82111 166.58588 119.60142 166.73969 119.32657 166.73969 C 119.05171 166.73969 118.83151 166.58588 118.83151 166.39346 C 118.83151 166.20101 119.05171 166.04723 119.32657 166.04723 z M 81.464795 166.55779 C 81.563339 166.55498 81.666208 166.59128 81.759867 166.67872 C 82.076507 166.97427 81.880471 167.66367 81.479781 167.66367 C 81.335201 167.66367 81.14974 167.50098 81.06792 167.30193 C 80.964835 167.05115 81.044172 166.80786 81.196077 166.67096 C 81.272031 166.60251 81.366251 166.5606 81.464795 166.55779 z M 128.41077 166.85131 C 128.47753 166.89525 128.54793 167.03206 128.61437 167.2792 C 128.71777 167.664 129.03457 168.01459 129.39262 168.14167 C 129.86396 168.30898 129.97876 168.4948 129.91765 168.99072 C 129.85245 169.51974 129.70537 169.63788 129.03553 169.69817 C 128.59338 169.73797 128.222 169.73797 128.21026 169.69817 C 128.19846 169.65827 128.15469 169.10642 128.11259 168.47137 C 128.04314 167.42145 128.21049 166.71952 128.41077 166.85131 z M 122.02666 167.23062 C 122.11253 167.2339 122.18659 167.25485 122.22768 167.29315 C 122.30998 167.36985 122.16392 167.42461 121.90315 167.41459 C 121.61499 167.40359 121.55648 167.34879 121.75381 167.27506 C 121.84309 167.24171 121.94079 167.22733 122.02666 167.23062 z M 85.14054 167.53964 C 85.25664 167.52539 85.383435 167.53654 85.500724 167.56755 C 85.735304 167.62957 85.932222 167.77159 85.932222 167.95151 C 85.932222 168.08271 86.127191 168.33766 86.365271 168.5184 C 86.680281 168.75752 86.713786 168.87999 86.488778 168.96746 C 86.318718 169.03356 86.179753 169.28084 86.179753 169.51678 C 86.179753 169.75272 86.068272 170.00985 85.932222 170.08833 C 85.796164 170.16683 85.684692 170.43248 85.684692 170.67899 C 85.684692 171.15455 85.083025 171.29394 84.80981 170.88208 C 84.536432 170.46915 84.563427 167.92556 84.843917 167.66367 C 84.919032 167.59354 85.024439 167.55389 85.14054 167.53964 z M 88.67159 169.08167 C 88.74304 169.0835 88.799254 169.10957 88.833854 169.15195 C 88.903054 169.23671 88.885107 169.38614 88.726367 169.53435 C 88.548707 169.7002 88.410648 169.70405 88.306238 169.54624 C 88.221075 169.417 88.271146 169.24198 88.418376 169.15712 C 88.513455 169.10225 88.600141 169.07984 88.67159 169.08167 z M 126.88269 169.58396 C 126.95389 169.56093 127.0225 169.56163 127.0987 169.58965 C 127.25111 169.64568 127.43327 169.81095 127.72347 170.11416 C 128.0936 170.50088 128.5819 170.88405 128.80868 170.96528 C 129.54456 171.22888 129.24494 171.58917 128.29346 171.58488 C 127.61052 171.58188 127.21907 171.42442 126.80931 170.98801 C 126.14665 170.28225 126.12735 170.12667 126.6517 169.72039 C 126.73771 169.65376 126.8115 169.607 126.88269 169.58396 z M 92.433118 170.29141 C 92.459098 170.26714 92.493378 170.29957 92.532853 170.39167 C 92.604253 170.55838 92.595516 170.75729 92.513216 170.83402 C 92.430916 170.91072 92.372252 170.77459 92.382992 170.53119 L 92.383508 170.53119 C 92.389458 170.39667 92.407138 170.31569 92.433118 170.29141 z M 124.04514 171.23348 C 124.44775 171.2528 125.01562 171.54779 125.01562 171.82827 C 125.01562 172.13452 123.84761 172.11029 123.64207 171.79985 C 123.55067 171.66177 123.58785 171.44441 123.72475 171.31667 C 123.79506 171.25104 123.91094 171.22704 124.04514 171.23348 z M 85.660404 171.85721 C 85.776645 171.87069 85.890568 171.91969 85.988033 172.01069 C 86.182773 172.19248 86.169597 172.36126 85.941007 172.6184 C 85.492959 173.1224 84.942619 173.06045 84.942619 172.50575 C 84.942619 172.23144 85.106808 172.0168 85.31934 171.91612 C 85.425606 171.86578 85.544164 171.84373 85.660404 171.85721 z M 119.21701 171.93111 C 119.27985 171.93866 119.33501 171.96672 119.38599 172.01431 C 119.58989 172.2047 119.58894 172.41074 119.38134 172.7972 C 119.22649 173.08555 119.06703 173.57277 119.02736 173.88034 C 118.93456 174.59993 118.53443 174.71556 118.00985 174.17438 C 117.95874 174.12166 117.98585 174.08661 117.94474 174.03796 C 117.94781 173.68678 117.95073 173.33342 117.95404 172.98272 C 118.07365 172.81884 118.111 172.68832 118.35195 172.46337 C 118.63108 172.2028 118.83882 172.04277 119.00204 171.97193 C 119.08364 171.93651 119.15417 171.92355 119.21701 171.93111 z M 129.93677 172.11094 C 129.97874 172.10829 130.02054 172.12031 130.06131 172.1466 C 130.22439 172.25177 130.3681 172.58196 130.41323 173.08659 C 130.46913 173.7117 130.27555 174.38346 129.7528 175.37793 C 129.34602 176.15173 128.95405 177.04479 128.88206 177.3623 C 128.43649 179.32764 128.00094 180.39825 127.18035 181.54292 C 126.67017 182.25463 126.25276 183.11463 126.25276 183.45392 C 126.25276 183.89733 126.08089 184.13166 125.64194 184.28746 C 125.30609 184.40668 124.88998 184.71607 124.71694 184.97476 C 124.26166 185.65532 124.01591 185.55187 124.18725 184.75203 C 124.27625 184.33645 124.23253 184.05905 124.0777 184.05905 C 123.48444 184.05905 123.03693 184.36779 123.03693 184.77684 C 123.03693 185.05833 122.86299 185.21402 122.54808 185.21402 C 122.27911 185.21402 121.87643 185.4737 121.65356 185.79124 C 121.2177 186.41228 120.68374 186.547 120.50737 186.08011 C 120.28029 185.47906 120.45424 184.4492 120.81071 184.28436 C 121.01478 184.19006 121.50037 183.97301 121.88972 183.80222 C 122.27906 183.63142 122.69362 183.2556 122.81111 182.96713 C 123.03656 182.41357 124.15085 182.21476 124.32316 182.69738 C 124.44252 183.03164 126.00523 181.66532 126.00523 181.22666 C 126.00523 181.04074 125.78278 180.62461 125.51069 180.30166 C 125.2386 179.97873 125.01562 179.61353 125.01562 179.49034 C 125.01562 179.15134 125.602 178.76707 126.26361 178.67281 C 126.71391 178.60873 126.94917 178.33358 127.25166 177.5163 C 127.46993 176.92654 127.72416 176.37364 127.81649 176.28743 C 127.90889 176.20123 127.98392 175.90111 127.98392 175.62029 C 127.98392 175.33947 128.15303 174.97884 128.35961 174.81879 C 128.74569 174.51964 129.3027 173.49861 129.59312 172.55794 C 129.68495 172.26052 129.81085 172.1189 129.93677 172.11094 z M 128.46968 172.33728 C 128.55677 172.33402 128.64776 172.35229 128.73013 172.39981 C 129.00678 172.55942 128.82547 172.97497 128.47898 172.97497 C 128.35899 172.97497 128.19655 172.87818 128.11828 172.76 C 127.98108 172.55275 128.20839 172.34709 128.46968 172.33728 z M 131.79609 173.66744 C 131.99735 173.66744 132.09762 173.76944 132.19193 173.86794 C 132.191 174.06253 132.1897 174.25619 132.18883 174.45085 C 132.17899 174.46321 132.19149 174.4737 132.18056 174.48599 C 131.82765 174.88296 131.53734 174.91433 131.31602 174.58004 C 131.08126 174.22544 131.37489 173.66744 131.79609 173.66744 z M 85.684692 174.36042 C 85.820752 174.36042 85.932222 174.46438 85.932222 174.59141 C 85.932222 174.71842 85.820752 174.8224 85.684692 174.8224 C 85.548644 174.8224 85.437679 174.71847 85.437679 174.59141 C 85.437679 174.46441 85.548644 174.36042 85.684692 174.36042 z M 124.75363 175.33297 C 124.85217 175.33003 124.95504 175.36594 125.0487 175.45337 C 125.36533 175.74895 125.16931 176.43884 124.76861 176.43884 C 124.62402 176.43884 124.43857 176.27619 124.35675 176.07711 C 124.25367 175.82633 124.333 175.58304 124.48491 175.44614 C 124.56086 175.37769 124.65508 175.33591 124.75363 175.33297 z M 121.15126 176.43884 C 121.33867 176.43884 121.63694 176.60169 121.81375 176.80058 C 122.25025 177.29157 123.39549 177.82429 124.01414 177.82429 C 124.293 177.82429 124.52108 177.96763 124.52108 178.14261 C 124.52108 178.57553 123.86304 179.0548 123.53148 178.8635 C 123.38351 178.7781 123.11187 178.82478 122.9279 178.96737 C 122.66555 179.17063 122.4801 179.05556 122.068 178.43304 C 121.779 177.9965 121.3779 177.58015 121.17658 177.50803 C 120.71465 177.34255 120.69317 176.43884 121.15126 176.43884 z M 117.91115 177.72145 C 117.99021 178.22921 118.07216 178.7388 118.26772 178.87229 C 118.49992 179.0308 118.5999 179.30061 118.50853 179.52289 C 118.35432 179.89805 118.09316 179.88503 117.88686 179.69291 C 117.89434 179.03446 117.90507 178.37829 117.91115 177.72145 z M 81.948486 180.6391 C 82.062129 180.64465 82.165367 180.68079 82.243042 180.75331 C 82.398192 180.89816 82.450197 181.12939 82.358797 181.26749 C 82.130767 181.61191 80.917468 181.59281 81.041048 181.24682 L 81.041048 181.2463 C 81.128393 181.00168 81.351065 180.80625 81.590885 180.70783 C 81.710796 180.65862 81.834844 180.63356 81.948486 180.6391 z M 120.06864 180.71042 C 120.6051 180.71042 120.53103 181.61141 119.98647 181.70932 C 119.6352 181.77252 119.55191 181.66923 119.61544 181.25044 C 119.66054 180.95337 119.86456 180.71042 120.06864 180.71042 z M 130.48816 181.74911 C 131.07568 181.74911 131.07987 182.03179 130.50004 182.52168 C 129.97302 182.96696 129.804 182.99298 129.58537 182.66275 C 129.36186 182.32516 129.93108 181.74911 130.48816 181.74911 z M 86.222644 182.93664 C 86.293766 182.95138 86.373204 182.99276 86.452604 183.06686 C 86.630264 183.2327 86.634443 183.36161 86.465523 183.45909 C 86.327033 183.53899 86.139554 183.49174 86.048494 183.35418 C 85.930971 183.17666 85.952546 183.03069 86.043327 182.96609 C 86.088717 182.93379 86.151522 182.92189 86.222644 182.93664 z M 119.26455 184.10246 C 119.78595 184.19616 119.75331 184.60624 119.21598 184.71069 C 118.99187 184.75429 118.83151 184.62655 118.83151 184.40476 C 118.83151 184.16691 118.99381 184.05377 119.26455 184.10246 z M 117.97626 184.3474 C 118.08075 184.38442 118.08604 184.48618 118.04809 184.67193 C 118.02926 184.76409 117.87652 184.78968 117.79746 184.8683 C 117.80131 184.69953 117.80265 184.53209 117.80625 184.36342 C 117.84667 184.36483 117.94965 184.33798 117.97626 184.3474 z M 123.0514 185.67601 C 123.17942 185.67601 123.28446 185.83173 123.28446 186.02224 C 123.28446 186.37935 122.99255 186.48075 122.71396 186.22067 C 122.51635 186.03618 122.73949 185.67601 123.0514 185.67601 z M 92.131844 186.5943 C 92.287507 186.60826 92.400839 186.84185 92.311161 187.09297 C 92.227361 187.32766 92.168828 187.32746 92.012988 187.09297 L 92.012988 187.09246 C 91.906428 186.93149 91.8864 186.73718 91.96803 186.66096 C 92.023377 186.60928 92.079957 186.58964 92.131844 186.5943 z M 119.05527 187.31311 C 119.19119 187.33815 119.37555 187.5237 119.56945 187.86192 C 119.83418 188.3237 119.83621 188.4981 119.58081 188.78538 C 119.2365 189.17268 118.44591 189.26058 118.23051 188.93524 C 118.15591 188.82261 118.261 188.60177 118.46357 188.44483 C 118.66614 188.28788 118.83151 187.96445 118.83151 187.72601 C 118.83151 187.4235 118.91934 187.28808 119.05527 187.31311 z M 129.07067 187.98542 C 129.80141 187.98542 130.02728 188.21158 129.68304 188.59882 C 129.35736 188.96517 129.2394 188.97191 128.65933 188.6567 C 128.10596 188.35595 128.33304 187.98542 129.07067 187.98542 z M 86.615902 188.34561 C 86.711451 188.3682 86.813386 188.44066 86.921826 188.56265 C 87.138726 188.80662 87.164746 189.00554 86.999858 189.15951 C 86.834948 189.31345 86.643666 189.26809 86.426766 189.02412 C 86.209866 188.78015 86.183845 188.5812 86.348735 188.42726 C 86.431189 188.35028 86.520353 188.32301 86.615902 188.34561 z M 94.626265 189.6923 C 94.690972 189.90945 94.772029 190.12539 94.846924 190.34187 C 94.811568 190.38451 94.814278 190.44661 94.77406 190.47778 C 94.305322 190.84094 93.178951 191.05305 93.017061 190.80851 C 92.777693 190.44698 93.431299 189.88396 94.281067 189.71969 C 94.44896 189.68723 94.517074 189.69963 94.626265 189.6923 z M 91.794397 189.84526 C 92.002308 189.87509 92.201597 190.00218 92.287907 190.21216 C 92.383507 190.44468 92.266308 190.71352 91.9856 190.90514 C 91.45008 191.27069 90.234787 191.32136 90.013627 190.98731 C 89.787517 190.64578 90.101286 190.29433 90.632194 190.29433 C 90.888224 190.29433 91.166681 190.19039 91.250761 190.06333 C 91.370216 189.88289 91.586486 189.81543 91.794397 189.84526 z M 86.71357 190.19408 C 86.81919 190.13539 86.932954 190.21054 87.130599 190.37753 C 87.367639 190.57779 87.782772 190.68425 88.061292 190.61627 C 88.75728 190.44634 89.324665 191.08745 88.900517 191.56453 C 88.731157 191.75505 88.407796 191.91128 88.181698 191.91128 C 87.955588 191.91128 87.568847 192.22962 87.322319 192.61925 C 86.909509 193.27165 86.839989 193.29941 86.445369 192.966 C 85.896681 192.50245 85.038754 192.49981 84.849084 192.96083 C 84.738346 193.23021 84.495166 193.2821 83.861548 193.17115 C 83.354128 193.08225 82.954427 193.12363 82.853857 193.27554 C 82.762259 193.41398 82.422418 193.52721 82.098348 193.52721 C 81.774278 193.52721 81.440364 193.63114 81.356274 193.7582 C 81.338778 193.78465 81.224894 193.78254 81.185225 193.80626 C 81.087713 193.3542 80.980605 192.90717 80.897904 192.44717 C 81.109187 192.38597 81.298174 192.35501 81.479781 192.29369 C 82.091999 192.08696 82.926815 191.91505 83.334965 191.9118 C 85.275821 191.8963 85.975084 191.64158 86.345634 190.81368 C 86.510509 190.44529 86.60795 190.25276 86.71357 190.19408 z M 119.45007 190.29433 C 119.98567 190.29433 120.16361 190.76625 119.76737 191.13614 C 119.45265 191.42998 119.36872 191.42856 119.09816 191.12425 C 118.7494 190.73193 118.93505 190.29433 119.45007 190.29433 z M 128.97352 190.5248 C 129.10957 190.5248 129.22105 190.62875 129.22105 190.7558 C 129.22105 190.88282 129.10957 190.98679 128.97352 190.98679 C 128.83747 190.98679 128.72599 190.88285 128.72599 190.7558 C 128.72599 190.62878 128.83747 190.5248 128.97352 190.5248 z M 131.02146 192.69108 C 131.04757 192.6668 131.08224 192.69922 131.12171 192.79133 C 131.19311 192.95803 131.18438 193.15745 131.10208 193.2342 C 131.01978 193.3109 130.96112 193.17426 130.97185 192.93086 C 130.9778 192.79634 130.99535 192.71536 131.02146 192.69108 z M 92.776249 193.56803 C 93.392409 193.67959 93.478661 194.23286 92.901823 194.37367 C 92.624793 194.44137 92.338329 194.64216 92.265169 194.82015 C 92.102089 195.21694 91.575605 195.23942 91.176347 194.86666 C 90.788607 194.50468 90.795761 193.82495 91.188749 193.69205 C 91.358819 193.63445 91.692743 193.7459 91.930823 193.93958 C 92.321581 194.25736 92.363871 194.25278 92.363871 193.89256 C 92.363871 193.64411 92.519519 193.52155 92.776249 193.56803 z M 87.119747 193.57578 C 87.206122 193.55624 87.275022 193.57816 87.331104 193.64709 C 87.443266 193.78496 87.503585 194.11094 87.548145 194.66874 C 87.636943 195.78083 87.349024 196.0396 86.814856 195.32761 C 86.324856 194.67454 86.321104 194.1277 86.804004 193.75355 C 86.929521 193.65631 87.033372 193.59532 87.119747 193.57578 z M 121.05773 194.10495 C 121.23913 194.10495 121.43409 194.23506 121.49078 194.39382 C 121.55208 194.56554 121.37656 194.68217 121.05773 194.68217 C 120.73891 194.68217 120.56389 194.56554 120.6252 194.39382 C 120.6819 194.23506 120.87633 194.10495 121.05773 194.10495 z M 115.61982 194.24706 C 115.71062 194.24973 115.80317 194.30295 115.91437 194.40674 C 116.1476 194.6245 116.12291 194.77003 115.80017 195.0713 C 115.41416 195.43168 115.37611 195.43009 115.22139 195.05373 C 115.13029 194.83213 115.1814 194.53352 115.3356 194.38969 C 115.43995 194.29226 115.52901 194.24439 115.61982 194.24706 z M 127.54467 194.51474 C 127.82335 194.60579 128.23197 194.95376 128.23197 195.17207 C 128.23197 195.52057 127.48164 195.39324 127.32763 195.01859 C 127.24703 194.82259 127.24738 194.59965 127.32918 194.52353 C 127.37322 194.48241 127.45178 194.48439 127.54467 194.51474 z M 85.078528 194.91317 C 85.642496 194.91317 85.753273 195.38323 85.299703 195.85109 C 84.787613 196.37935 84.448075 196.42717 84.448075 195.97098 C 84.448075 195.39855 84.737528 194.91317 85.078528 194.91317 z M 114.37648 195.86401 C 114.5204 195.82249 114.70728 196.0052 114.87981 196.42884 C 115.22627 197.27953 115.18359 197.45306 114.6266 197.45306 C 114.2261 197.45306 114.13153 197.29914 114.13153 196.64484 C 114.13153 196.17144 114.23256 195.90554 114.37648 195.86401 z M 132.37487 195.93274 C 132.45185 195.89926 132.45638 196.00442 132.50922 196.03145 C 132.53321 196.55378 132.56086 197.07658 132.58829 197.59931 C 132.34546 197.51817 132.06381 197.52645 131.88032 197.38433 C 131.09584 196.77712 131.01846 196.41202 131.63279 196.20973 C 131.87088 196.13133 132.2048 196.00676 132.37487 195.93274 z M 97.620398 196.11051 C 98.297676 196.17151 98.414198 196.2677 98.361438 196.72184 C 98.321238 197.06795 98.409515 197.22643 98.607935 197.16471 C 98.777843 197.11181 98.917423 196.87091 98.917993 196.62934 C 98.918385 196.42809 99.096216 196.28234 99.279211 196.19784 C 99.426041 196.2651 99.574452 196.32835 99.723112 196.39111 C 99.883851 196.81908 99.739707 197.64166 99.280245 198.10212 C 99.002835 198.38008 98.75241 198.60416 98.72369 198.60028 C 98.69499 198.59628 98.476538 198.48737 98.238448 198.35792 C 98.000358 198.22845 97.805916 197.94513 97.805916 197.72798 C 97.805916 197.51081 97.582956 197.20293 97.310856 197.0443 C 96.499208 196.57111 96.68015 196.02586 97.620398 196.11051 z M 90.384664 196.29861 C 90.520704 196.29861 90.632194 196.40257 90.632194 196.52961 C 90.632194 196.65662 90.520704 196.76008 90.384664 196.76008 C 90.248604 196.76008 90.137651 196.65665 90.137651 196.52961 C 90.137651 196.4026 90.248604 196.29861 90.384664 196.29861 z M 87.067037 196.34564 C 87.791125 196.24904 88.323153 196.87513 87.910913 197.33886 C 87.739993 197.53111 87.662017 197.96861 87.736247 198.32019 C 87.925117 199.21472 87.670481 200.22499 87.256173 200.22499 C 87.063683 200.22499 86.839729 200.06339 86.758529 199.86584 C 86.677329 199.6683 86.597322 198.81084 86.580762 197.96053 C 86.553362 196.55821 86.598697 196.40814 87.067037 196.34564 z M 118.14111 196.85982 C 118.20704 196.83838 118.28048 196.84323 118.35402 196.88566 C 118.65447 197.05903 118.65244 197.68406 118.35195 197.68406 C 118.22393 197.68406 118.05053 197.58011 117.96644 197.45306 L 117.96593 197.45306 C 117.81463 197.22455 117.94331 196.92413 118.14111 196.85982 z M 88.772359 197.09546 C 89.194125 197.11338 89.93082 197.7905 90.253923 198.51243 C 90.919191 199.99887 90.611003 200.109 89.333565 198.84161 C 88.431417 197.94654 88.190596 197.3739 88.613196 197.13009 C 88.658479 197.10396 88.712107 197.0929 88.772359 197.09546 z M 101.10339 197.0965 C 101.17967 197.09406 101.26415 197.12525 101.34627 197.20192 C 101.53992 197.38266 101.53992 197.52345 101.34627 197.70421 C 101.15263 197.88501 101.03082 197.88501 100.91115 197.70421 C 100.78249 197.50986 100.8092 197.30788 100.90909 197.19261 C 100.95903 197.13498 101.02711 197.09893 101.10339 197.0965 z M 95.788985 197.45358 C 96.180765 197.45358 96.629696 198.12651 96.480416 198.48969 C 96.298376 198.93255 95.972649 198.93487 95.582279 198.49589 C 95.263811 198.13768 95.399467 197.45358 95.788985 197.45358 z M 108.50242 197.54712 C 108.56557 197.53778 108.63487 197.55082 108.69931 197.58122 C 108.82819 197.64203 108.93702 197.77177 108.93702 197.92849 C 108.93702 198.17676 108.60169 198.21784 108.36651 197.99825 C 108.27951 197.91695 108.26894 197.75927 108.34274 197.64788 C 108.38227 197.58818 108.43927 197.55646 108.50242 197.54712 z M 112.10892 197.98481 C 112.20532 197.97117 112.29223 197.99451 112.36833 198.05406 C 112.52056 198.17317 112.63028 198.43669 112.68821 198.83851 C 112.75121 199.27552 112.64861 199.43234 112.26653 199.48343 C 111.98883 199.52053 111.68239 199.47761 111.58595 199.38731 C 111.28483 199.10619 111.3937 198.44648 111.79214 198.13778 C 111.90661 198.04909 112.01252 197.99846 112.10892 197.98481 z M 103.80245 198.00859 C 103.8656 197.99925 103.93489 198.01229 103.99934 198.04269 C 104.12822 198.1035 104.23705 198.23325 104.23705 198.38996 C 104.23705 198.63825 103.90174 198.67932 103.66654 198.45972 C 103.57944 198.37852 103.56907 198.22073 103.64277 198.10935 C 103.68229 198.04965 103.7393 198.01792 103.80245 198.00859 z M 102.10746 198.2618 C 102.8568 198.2618 103.1849 198.95852 102.68055 199.47878 C 102.44817 199.71849 102.25836 200.08818 102.25836 200.30044 C 102.25836 200.51271 102.08559 200.68646 101.8744 200.68646 C 101.56662 200.68646 101.50492 200.44595 101.56486 199.47413 C 101.62716 198.4636 101.71757 198.2618 102.10746 198.2618 z M 108.12932 198.8628 C 108.67937 198.89122 108.43656 199.92148 107.55468 200.89988 C 107.00009 201.51519 106.21626 201.85884 106.21626 201.48693 C 106.21626 201.10464 107.5315 199.02716 107.84458 198.91499 C 107.95597 198.87509 108.05074 198.85874 108.12932 198.8628 z M 92.409347 199.57438 C 93.134615 199.63938 93.238296 199.73451 93.306966 200.39965 C 93.394866 201.25056 92.853621 201.62406 92.231063 201.14173 C 91.673093 200.70942 91.474756 201.07633 91.983016 201.60061 C 92.420756 202.05217 92.35978 202.7654 91.88328 202.7654 C 91.746462 202.7654 91.464532 202.4585 91.256962 202.08379 C 90.781914 201.22617 90.771026 200.13478 91.234224 199.77592 C 91.429404 199.6247 91.958297 199.53394 92.409347 199.57438 z M 99.998547 199.5997 C 100.25144 199.69238 100.51288 199.96875 100.65691 200.38312 C 100.79645 200.78467 101.12232 201.33181 101.38089 201.59855 C 102.00508 202.24245 101.58773 202.67096 100.8233 202.17112 C 100.5213 201.97363 100.06862 201.87287 99.817163 201.94736 C 99.143345 202.14701 98.650419 201.50057 98.982589 200.85234 C 99.126799 200.5709 99.310366 200.15069 99.390316 199.91906 C 99.501101 199.59806 99.745657 199.50703 99.998547 199.5997 z M 95.537321 199.99399 C 96.111019 199.99399 95.810985 200.68204 95.084635 201.03269 C 94.477847 201.32561 94.342562 201.33337 94.342562 201.07455 C 94.342562 200.70015 95.123591 199.99399 95.537321 199.99399 z M 118.68578 200.22447 C 119.04615 200.22447 119.16988 200.43938 119.15655 200.68956 A 3.8208452 3.8208452 0 0 0 118.20415 200.98411 C 118.11361 200.64082 118.31941 200.22447 118.68578 200.22447 z M 104.5838 200.68646 C 104.98721 200.68646 105.34399 201.47658 105.10418 201.83884 C 104.88751 202.16612 104.59564 202.12871 104.23963 201.72826 C 103.87218 201.31493 104.07989 200.68646 104.5838 200.68646 z M 87.478898 200.95931 C 88.058538 200.85667 88.297308 201.51349 87.919698 202.17216 C 87.48953 202.92252 87.682851 203.51931 88.470569 203.87179 C 89.032417 204.12316 89.148047 204.32431 89.148047 205.05053 C 89.148047 205.63257 88.982473 206.06555 88.653503 206.34348 C 88.425664 206.53597 88.295867 206.76804 88.239058 206.94241 C 87.70247 206.55021 87.200129 206.12006 86.743026 205.63448 C 86.80758 205.49549 86.921826 205.33925 86.921826 205.21848 C 86.921826 204.51875 86.731451 204.45042 86.304293 204.99576 C 86.285619 205.0196 86.247332 205.00339 86.225745 205.02366 C 86.028697 204.77989 85.841712 204.52217 85.661955 204.25523 C 85.810124 204.08518 85.832163 203.98574 86.040226 203.80255 C 86.713626 203.20966 86.906338 202.84425 86.967818 202.04503 C 87.025018 201.30248 87.159718 201.01585 87.478898 200.95931 z M 93.6625 201.89827 C 93.83251 201.95117 93.971525 202.23705 93.971525 202.53337 C 93.971525 203.16631 93.420705 203.42863 93.203097 202.89924 C 92.998357 202.40115 93.28326 201.78025 93.6625 201.89827 z M 84.527657 202.53441 C 84.601842 202.56014 84.700558 202.60436 84.7571 202.62122 C 85.01893 202.69942 85.190149 202.98132 85.190149 203.33488 C 85.190149 203.41158 85.15738 203.42853 85.149841 203.48732 C 84.932029 203.17511 84.727596 202.85606 84.527657 202.53441 z M 99.651282 202.55249 C 99.877607 202.55815 100.19535 202.70482 100.5613 202.99174 L 101.14525 203.4496 L 100.58869 203.59584 C 100.26403 203.68134 100.03214 203.92351 100.03214 204.1772 C 100.03214 204.41641 99.86518 204.61232 99.6611 204.61232 C 99.45704 204.61232 99.290063 204.71627 99.290063 204.84331 C 99.290063 204.97033 99.443201 205.0743 99.630611 205.0743 C 100.1357 205.0743 100.65534 205.73912 100.36338 206.01171 C 100.2068 206.15786 99.80602 206.0117 99.2203 205.59779 C 98.194312 204.87097 98.083845 204.40491 98.795003 203.8041 C 99.067113 203.5742 99.290063 203.19405 99.290063 202.9597 C 99.290063 202.68196 99.424957 202.54684 99.651282 202.55249 z M 96.059253 202.58195 C 96.157797 202.57914 96.260666 202.61544 96.354325 202.70287 C 96.670955 202.99846 96.474929 203.68834 96.074239 203.68834 C 95.929639 203.68834 95.744198 203.52514 95.662378 203.32609 C 95.559293 203.07531 95.63863 202.83202 95.790535 202.69512 C 95.866489 202.62667 95.960709 202.58476 96.059253 202.58195 z M 106.62398 202.90286 C 106.68453 202.89053 106.73498 202.89373 106.77229 202.91526 C 107.14522 203.13042 106.94466 204.08939 106.43691 204.51775 C 106.15011 204.75972 105.65128 205.44431 105.32845 206.03859 C 104.58799 207.40177 104.31231 207.55808 103.95179 206.81942 C 103.72274 206.35013 103.73577 206.14714 104.01536 205.82465 C 104.20851 205.60187 104.57637 205.0558 104.83339 204.61128 C 105.27714 203.84377 106.20014 202.98916 106.62398 202.90286 z M 124.61307 204.8924 C 125.31967 204.94396 125.63419 205.06689 125.63419 205.30478 C 125.63419 205.51343 125.304 205.64241 124.93656 205.6939 C 124.82881 205.4267 124.72082 205.15961 124.61307 204.8924 z M 90.138167 205.15802 C 90.191786 205.1554 90.253528 205.16635 90.323169 205.19368 C 90.561259 205.28718 91.033024 205.41944 91.371684 205.4872 C 92.196112 205.65224 93.352958 206.76283 93.352958 207.38941 C 93.352958 207.74052 93.464678 207.85413 93.720378 207.76251 C 93.937786 207.68461 94.196351 207.82052 94.353931 208.09531 C 94.530599 208.4035 94.77271 208.51438 95.0743 208.425 C 95.656051 208.25264 97.595436 209.47945 97.729435 210.06573 C 95.943478 209.8743 94.211366 209.56048 92.640857 209.07044 C 91.200331 208.62096 89.922891 208.04827 88.79458 207.31913 C 88.890498 207.26114 88.983738 207.27617 89.072083 207.15841 C 89.350941 206.78677 89.607274 206.68974 90.041532 206.79151 C 90.707372 206.9475 90.819277 206.66067 90.261157 206.22824 C 89.784292 205.85877 89.76284 205.17638 90.138167 205.15802 z M 102.24906 205.81844 C 102.46827 205.76931 102.70273 205.85156 102.94514 206.07786 C 103.31515 206.42326 103.28488 206.55936 102.55498 207.82866 C 102.11969 208.58562 101.76116 209.44428 101.75813 209.73707 C 101.75714 209.88169 101.59728 210.08675 101.50698 210.28536 C 101.28318 210.28083 101.06186 210.28511 100.83777 210.2776 L 100.90185 209.46112 C 101.07269 207.29503 101.59143 205.96585 102.24906 205.81844 z M 91.206836 207.19872 C 91.155773 207.1927 91.126737 207.22563 91.126737 207.29794 C 91.126737 207.60619 91.419501 207.87944 91.584591 207.72531 C 91.654891 207.65971 91.581653 207.48286 91.419743 207.33256 C 91.330988 207.24971 91.257899 207.20474 91.206836 207.19872 z M 103.29705 208.39348 C 103.42502 208.31968 104.17745 208.58188 104.9693 208.97587 C 105.76113 209.36985 106.57561 209.69211 106.77901 209.69211 C 107.08122 209.69211 107.39702 210.07429 107.63012 210.51325 C 106.73316 210.47412 105.89901 210.48917 104.98377 210.48069 C 104.95786 210.43899 104.84804 210.35995 104.83701 210.32773 C 104.64574 209.76881 104.04735 209.83792 103.78333 210.42437 A 3.8208452 3.8208452 0 0 0 103.38284 210.30654 C 103.02473 210.3113 102.65954 210.29611 102.29815 210.29414 C 102.57013 209.92636 102.85871 209.48833 102.92188 209.19343 C 103.00028 208.82749 103.16909 208.46731 103.29705 208.39348 z M 98.904557 209.23064 C 99.164647 209.23064 99.31801 209.74432 99.336056 210.18614 C 99.106702 210.17092 98.8776 210.15755 98.649276 210.13859 C 98.337473 209.60742 98.39585 209.23064 98.904557 209.23064 z M 103.72649 210.4471 C 103.72555 210.44702 103.75847 210.44817 103.75852 210.44814 C 103.75807 210.44921 103.75588 210.45119 103.75542 210.45227 C 103.75416 210.45232 103.72724 210.44717 103.72649 210.4471 z " /></g></svg>
