<?xml version="1.0" encoding="UTF-8" standalone="no"?>
<!-- Created with Inkscape (http://www.inkscape.org/) -->

<svg
   width="1920"
   height="1080"
   viewBox="0 0 1920.0001 1080"
   version="1.1"
   id="SVGRoot"
   inkscape:version="1.2.2 (b0a8486541, 2022-12-01)"
   sodipodi:docname="GRCircleBird.svg"
   xmlns:inkscape="http://www.inkscape.org/namespaces/inkscape"
   xmlns:sodipodi="http://sodipodi.sourceforge.net/DTD/sodipodi-0.dtd"
   xmlns:xlink="http://www.w3.org/1999/xlink"
   xmlns="http://www.w3.org/2000/svg"
   xmlns:svg="http://www.w3.org/2000/svg">
  <sodipodi:namedview
     id="namedview8246"
     pagecolor="#ffffff"
     bordercolor="#111111"
     borderopacity="1"
     inkscape:showpageshadow="0"
     inkscape:pageopacity="0"
     inkscape:pagecheckerboard="false"
     inkscape:deskcolor="#d1d1d1"
     inkscape:document-units="px"
     showgrid="true"
     inkscape:zoom="0.25"
     inkscape:cx="1492"
     inkscape:cy="508"
     inkscape:window-width="1415"
     inkscape:window-height="1009"
     inkscape:window-x="0"
     inkscape:window-y="0"
     inkscape:window-maximized="0"
     inkscape:current-layer="layer1"
     showborder="false"
     borderlayer="false" />
  <defs
     id="defs8241">
    <linearGradient
       inkscape:collect="always"
       id="linearGradient11361">
      <stop
         style="stop-color:#006cff;stop-opacity:1;"
         offset="0"
         id="stop11357" />
      <stop
         style="stop-color:#3a8e00;stop-opacity:1;"
         offset="1"
         id="stop11359" />
    </linearGradient>
    <linearGradient
       inkscape:collect="always"
       id="linearGradient11221">
      <stop
         style="stop-color:#ff0066;stop-opacity:1;"
         offset="0"
         id="stop11217" />
      <stop
         style="stop-color:#ffd42a;stop-opacity:1"
         offset="1"
         id="stop11219" />
    </linearGradient>
    <inkscape:path-effect
       effect="powerstroke"
       id="path-effect9232"
       is_visible="true"
       lpeversion="1"
       offset_points="0.48821271,10.040175 | 1.5,12.003228 | 2.6536997,12.744434"
       not_jump="false"
       sort_points="true"
       interpolator_type="CentripetalCatmullRom"
       interpolator_beta="0.2"
       start_linecap_type="zerowidth"
       linejoin_type="miter"
       miter_limit="4"
       scale_width="1"
       end_linecap_type="zerowidth" />
    <inkscape:path-effect
       effect="powerstroke"
       id="path-effect9174"
       is_visible="true"
       lpeversion="1"
       offset_points="0.28107299,-6.2749295 | 0.48628856,-12.047198 | 0.78541466,-5.7465555"
       not_jump="false"
       sort_points="true"
       interpolator_type="CentripetalCatmullRom"
       interpolator_beta="0.2"
       start_linecap_type="zerowidth"
       linejoin_type="round"
       miter_limit="4"
       scale_width="1"
       end_linecap_type="zerowidth" />
    <linearGradient
       inkscape:collect="always"
       xlink:href="#linearGradient11221"
       id="linearGradient11223"
       x1="1873.5574"
       y1="547.14789"
       x2="1858.9928"
       y2="502.24661"
       gradientUnits="userSpaceOnUse" />
    <linearGradient
       inkscape:collect="always"
       xlink:href="#linearGradient11221"
       id="linearGradient11355"
       x1="1871.4819"
       y1="532.763"
       x2="1835.955"
       y2="500.23605"
       gradientUnits="userSpaceOnUse" />
    <linearGradient
       inkscape:collect="always"
       xlink:href="#linearGradient11361"
       id="linearGradient11363"
       x1="1873.08"
       y1="549.03479"
       x2="1794.828"
       y2="548.28479"
       gradientUnits="userSpaceOnUse" />
    <linearGradient
       inkscape:collect="always"
       xlink:href="#linearGradient11361"
       id="linearGradient11371"
       x1="1854.4784"
       y1="593.14697"
       x2="1775.2426"
       y2="545.39697"
       gradientUnits="userSpaceOnUse" />
    <linearGradient
       inkscape:collect="always"
       xlink:href="#linearGradient11361"
       id="linearGradient11379"
       x1="1867.9198"
       y1="579.7887"
       x2="1745.8687"
       y2="574.7887"
       gradientUnits="userSpaceOnUse" />
    <linearGradient
       inkscape:collect="always"
       xlink:href="#linearGradient11361"
       id="linearGradient11381"
       x1="1840.3202"
       y1="609.35657"
       x2="1756.3202"
       y2="611.10657"
       gradientUnits="userSpaceOnUse" />
    <linearGradient
       inkscape:collect="always"
       xlink:href="#linearGradient11361"
       id="linearGradient11517"
       gradientUnits="userSpaceOnUse"
       x1="1867.9198"
       y1="579.7887"
       x2="1745.8687"
       y2="574.7887" />
    <linearGradient
       inkscape:collect="always"
       xlink:href="#linearGradient11361"
       id="linearGradient11519"
       gradientUnits="userSpaceOnUse"
       x1="1854.4784"
       y1="593.14697"
       x2="1775.2426"
       y2="545.39697" />
    <linearGradient
       inkscape:collect="always"
       xlink:href="#linearGradient11361"
       id="linearGradient11521"
       gradientUnits="userSpaceOnUse"
       x1="1840.3202"
       y1="609.35657"
       x2="1756.3202"
       y2="611.10657" />
    <linearGradient
       inkscape:collect="always"
       xlink:href="#linearGradient11361"
       id="linearGradient11523"
       gradientUnits="userSpaceOnUse"
       x1="1873.08"
       y1="549.03479"
       x2="1794.828"
       y2="548.28479" />
    <linearGradient
       inkscape:collect="always"
       xlink:href="#linearGradient11221"
       id="linearGradient11525"
       gradientUnits="userSpaceOnUse"
       x1="1871.4819"
       y1="532.763"
       x2="1835.955"
       y2="500.23605" />
    <linearGradient
       inkscape:collect="always"
       xlink:href="#linearGradient11221"
       id="linearGradient11527"
       gradientUnits="userSpaceOnUse"
       x1="1873.5574"
       y1="547.14789"
       x2="1858.9928"
       y2="502.24661" />
  </defs>
  <g
     inkscape:label="Layer 1"
     inkscape:groupmode="layer"
     id="layer1"
     transform="translate(-402.07023,-172.35659)">
    <g
       id="g11427"
       transform="matrix(2.2825372,0,0,2.2831499,-1427.7773,-441.46503)"
       style="stroke-width:0.438051">
      <path
         id="rect10819"
         style="opacity:1;fill:none;stroke:#000000;stroke-width:0.219025;stroke-dasharray:none"
         d="m 1179.703,403.23354 a 9.8514361,9.5484239 0 0 0 -4.9257,1.2793 9.8514361,9.5484239 0 0 0 -3.6055,3.49609 9.8514361,9.5484239 0 0 0 -1.3203,4.77344 9.8514361,9.5484239 0 0 0 1.3203,4.77344 9.8514361,9.5484239 0 0 0 3.6055,3.49609 9.8514361,9.5484239 0 0 0 4.9257,1.2793 9.8514361,9.5484239 0 0 0 1.711,-0.14453 9.8514361,9.5484239 0 0 0 1.6582,-0.43164 9.8514361,9.5484239 0 0 0 1.5566,-0.70313 9.8514361,9.5484239 0 0 0 1.4082,-0.95508 9.8514361,9.5484239 0 0 0 1.2129,-1.17578 9.8514361,9.5484239 0 0 0 0.9844,-1.36523 9.8514361,9.5484239 0 0 0 0.7266,-1.50781 9.8514361,9.5484239 0 0 0 0.4453,-1.60743 9.8514361,9.5484239 0 0 0 0.1484,-1.6582 9.8514361,9.5484239 0 0 0 -1.3203,-4.77344 9.8514361,9.5484239 0 0 0 -3.6055,-3.49609 9.8514361,9.5484239 0 0 0 -4.9258,-1.2793 z" />
      <path
         id="path11060"
         style="opacity:1;fill:none;stroke:#000000;stroke-width:0.219025;stroke-dasharray:none"
         d="m 1248.3905,411.8019 a 29.033978,28.593984 0 0 0 -8.9733,1.40039 29.033978,28.593984 0 0 0 -0.7413,0.3711 77.183154,76.013501 0 0 1 0.1766,0.64843 77.183154,76.013501 0 0 1 1.1721,13.19922 77.183154,76.013501 0 0 1 -1.1721,13.20117 77.183154,76.013501 0 0 1 -0.7976,2.93555 48.610437,47.419515 0 0 1 -0.023,0.5586 48.610437,47.419515 0 0 1 -0.4483,3.69726 48.610437,47.419515 0 0 1 -0.7452,3.65234 48.610437,47.419515 0 0 1 -1.0363,3.58399 48.610437,47.419515 0 0 1 -1.3196,3.49414 48.610437,47.419515 0 0 1 -1.5991,3.38086 48.610437,47.419515 0 0 1 -1.0634,1.85351 29.033978,28.593984 0 0 0 7.5974,3.8125 29.033978,28.593984 0 0 0 8.9733,1.4004 29.033978,28.593984 0 0 0 3.0351,-0.15821 29.033978,28.593984 0 0 0 3.0002,-0.46679 29.033978,28.593984 0 0 0 2.9361,-0.7754 29.033978,28.593984 0 0 0 2.8371,-1.07226 29.033978,28.593984 0 0 0 2.7072,-1.35938 29.033978,28.593984 0 0 0 2.5499,-1.6289 29.033978,28.593984 0 0 0 2.3617,-1.88477 29.033978,28.593984 0 0 0 2.1483,-2.11523 29.033978,28.593984 0 0 0 1.9134,-2.32617 29.033978,28.593984 0 0 0 1.6553,-2.50977 29.033978,28.593984 0 0 0 1.3798,-2.66797 29.033978,28.593984 0 0 0 1.0887,-2.79492 29.033978,28.593984 0 0 0 0.7859,-2.89063 29.033978,28.593984 0 0 0 0.4754,-2.95507 29.033978,28.593984 0 0 0 0.1591,-2.99024 29.033978,28.593984 0 0 0 -1.4204,-8.83594 29.033978,28.593984 0 0 0 -4.1238,-7.9707 29.033978,28.593984 0 0 0 -6.4234,-6.32617 29.033978,28.593984 0 0 0 -8.0942,-4.06055 29.033978,28.593984 0 0 0 -8.9714,-1.40039 z m -10.3356,31.75586 a 48.610437,47.419515 0 0 0 0.1262,-3.16211 48.610437,47.419515 0 0 0 -1.2187,-10.55078 48.610437,47.419515 0 0 0 -3.594,-10.02344 48.610437,47.419515 0 0 0 -1.7446,-2.70898 29.033978,28.593984 0 0 0 -0.2988,0.15039 29.033978,28.593984 0 0 0 -6.4234,6.32617 29.033978,28.593984 0 0 0 -4.1238,7.9707 29.033978,28.593984 0 0 0 -1.4224,8.83594 29.033978,28.593984 0 0 0 1.4224,8.83594 29.033978,28.593984 0 0 0 4.1238,7.97266 29.033978,28.593984 0 0 0 5.9188,5.82812 77.183154,76.013501 0 0 0 4.5507,-9.61328 77.183154,76.013501 0 0 0 2.6838,-9.86133 z" />
      <path
         id="path11058"
         style="opacity:1;fill:none;stroke:#000000;stroke-width:0.219025;stroke-dasharray:none"
         d="m 1238.3007,443.68276 a 77.681592,76.013501 0 0 0 0.8027,-2.93555 77.681592,76.013501 0 0 0 1.1797,-13.20117 77.681592,76.013501 0 0 0 -1.1797,-13.19922 77.681592,76.013501 0 0 0 -0.1777,-0.64843 29.221476,28.593984 0 0 0 -7.0977,3.53906 48.924357,47.419515 0 0 1 1.7559,2.70898 48.924357,47.419515 0 0 1 3.6172,10.02344 48.924357,47.419515 0 0 1 1.2266,10.55078 48.924357,47.419515 0 0 1 -0.127,3.16211 z" />
      <path
         id="path11056"
         style="opacity:1;fill:none;stroke:#000000;stroke-width:0.219025;stroke-dasharray:none"
         d="m 1231.0194,463.15737 a 29.221476,28.593984 0 0 0 0.5079,0.49805 29.221476,28.593984 0 0 0 0.498,0.24804 48.924357,47.419515 0 0 0 1.0703,-1.85351 48.924357,47.419515 0 0 0 1.6094,-3.38086 48.924357,47.419515 0 0 0 1.3281,-3.49414 48.924357,47.419515 0 0 0 1.043,-3.58399 48.924357,47.419515 0 0 0 0.75,-3.65234 48.924357,47.419515 0 0 0 0.4512,-3.69726 48.924357,47.419515 0 0 0 0.023,-0.5586 77.681592,76.013501 0 0 1 -2.7012,9.86133 77.681592,76.013501 0 0 1 -4.5801,9.61328 z" />
      <path
         id="path11052"
         style="opacity:1;fill:none;stroke:#000000;stroke-width:0.219025;stroke-dasharray:none"
         d="m 1223.2519,474.81167 a 48.924357,47.419515 0 0 0 0.8476,-0.75977 48.924357,47.419515 0 0 0 2.6074,-2.73437 48.924357,47.419515 0 0 0 2.377,-2.92383 48.924357,47.419515 0 0 0 2.1348,-3.0957 48.924357,47.419515 0 0 0 0.8066,-1.39454 29.221476,28.593984 0 0 1 -0.498,-0.24804 29.221476,28.593984 0 0 1 -0.5079,-0.49805 77.681592,76.013501 0 0 1 -1.1425,2.39649 77.681592,76.013501 0 0 1 -6.625,9.25781 z" />
      <path
         id="path11050"
         style="opacity:1;fill:none;stroke:#000000;stroke-width:0.219025;stroke-dasharray:none"
         d="m 1203.0351,486.05386 a 77.681592,76.013501 0 0 1 -2.3809,3.32812 77.681592,76.013501 0 0 1 -8.3398,8.1582 77.681592,76.013501 0 0 0 9.1289,-4.16406 77.681592,76.013501 0 0 0 11.0918,-7.59961 77.681592,76.013501 0 0 0 9.5742,-9.36914 77.681592,76.013501 0 0 0 1.1426,-1.5957 48.924357,47.419515 0 0 1 -1.9746,1.76758 48.924357,47.419515 0 0 1 -3.0157,2.30468 48.924357,47.419515 0 0 1 -3.1953,2.07032 48.924357,47.419515 0 0 1 -3.3515,1.81836 48.924357,47.419515 0 0 1 -3.4883,1.55859 48.924357,47.419515 0 0 1 -3.6035,1.28906 48.924357,47.419515 0 0 1 -1.5879,0.4336 z" />
      <path
         id="path11048"
         style="opacity:1;fill:none;stroke:#000000;stroke-width:0.219025;stroke-dasharray:none"
         d="m 1218.1191,448.45229 a 48.924357,47.419515 0 0 0 0.1054,-0.51367 48.924357,47.419515 0 0 0 0.4532,-3.69726 48.924357,47.419515 0 0 0 0.1503,-3.72071 77.681592,76.013501 0 0 1 -0.7089,7.93164 z" />
      <path
         id="path11046"
         style="opacity:1;fill:none;stroke:#000000;stroke-width:0.219025;stroke-dasharray:none"
         d="m 1179.9394,486.89761 a 48.924357,47.419515 0 0 0 9.5644,1.04296 48.924357,47.419515 0 0 0 3.8379,-0.14648 48.924357,47.419515 0 0 0 3.8164,-0.4375 48.924357,47.419515 0 0 0 3.7676,-0.72656 48.924357,47.419515 0 0 0 2.1094,-0.57617 77.681592,76.013501 0 0 0 5.3847,-7.5254 77.681592,76.013501 0 0 0 5.7227,-12.00976 77.681592,76.013501 0 0 0 3.5059,-12.79688 77.681592,76.013501 0 0 0 0.4707,-5.26953 48.924357,47.419515 0 0 1 -0.6426,3.13867 48.924357,47.419515 0 0 1 -1.043,3.58399 48.924357,47.419515 0 0 1 -1.3301,3.49414 48.924357,47.419515 0 0 1 -1.6074,3.38086 48.924357,47.419515 0 0 1 -1.8769,3.24805 48.924357,47.419515 0 0 1 -2.1348,3.0957 48.924357,47.419515 0 0 1 -2.3789,2.92383 48.924357,47.419515 0 0 1 -2.6074,2.73437 48.924357,47.419515 0 0 1 -2.8203,2.52735 48.924357,47.419515 0 0 1 -3.0176,2.30468 48.924357,47.419515 0 0 1 -3.1934,2.07032 48.924357,47.419515 0 0 1 -3.3515,1.81836 48.924357,47.419515 0 0 1 -3.4903,1.55859 48.924357,47.419515 0 0 1 -3.6035,1.28906 48.924357,47.419515 0 0 1 -3.6973,1.00977 48.924357,47.419515 0 0 1 -1.3847,0.26758 z" />
      <path
         id="path11044"
         style="opacity:1;fill:none;stroke:#000000;stroke-width:0.219025;stroke-dasharray:none"
         d="m 1133.3925,471.77261 a 48.924357,47.419515 0 0 0 6.0078,5.82226 48.924357,47.419515 0 0 0 9.2754,5.65039 48.924357,47.419515 0 0 0 10.3418,3.50781 48.924357,47.419515 0 0 0 10.8867,1.1875 48.924357,47.419515 0 0 0 3.8379,-0.14648 48.924357,47.419515 0 0 0 3.8145,-0.4375 48.924357,47.419515 0 0 0 2.3828,-0.45898 48.924357,47.419515 0 0 1 -1.3223,-0.14454 48.924357,47.419515 0 0 1 -10.3398,-3.50781 48.924357,47.419515 0 0 1 -9.2774,-5.65039 48.924357,47.419515 0 0 1 -7.7461,-7.50781 48.924357,47.419515 0 0 1 -5.8281,-8.99024 48.924357,47.419515 0 0 1 -3.6191,-10.02343 48.924357,47.419515 0 0 1 -1.2266,-10.55274 77.681592,76.013501 0 0 1 -1.1797,13.20117 77.681592,76.013501 0 0 1 -3.5059,12.79883 77.681592,76.013501 0 0 1 -2.5019,5.25196 z" />
      <path
         id="path11042"
         style="opacity:1;fill:none;stroke:#000000;stroke-width:0.219025;stroke-dasharray:none"
         d="m 1120.5644,491.18471 a 77.681592,76.013501 0 0 0 3.1972,2.19141 77.681592,76.013501 0 0 0 12.2715,5.59961 77.681592,76.013501 0 0 0 13.0801,3.42969 77.681592,76.013501 0 0 0 13.4883,1.15429 77.681592,76.013501 0 0 0 13.4902,-1.15429 77.681592,76.013501 0 0 0 13.0781,-3.42969 77.681592,76.013501 0 0 0 3.1446,-1.43555 77.681592,76.013501 0 0 0 8.3398,-8.1582 77.681592,76.013501 0 0 0 2.3809,-3.32812 48.924357,47.419515 0 0 1 -2.1094,0.57617 48.924357,47.419515 0 0 1 -3.7676,0.72656 48.924357,47.419515 0 0 1 -3.8164,0.4375 48.924357,47.419515 0 0 1 -3.8379,0.14648 48.924357,47.419515 0 0 1 -9.5644,-1.04296 48.924357,47.419515 0 0 1 -2.3828,0.45898 48.924357,47.419515 0 0 1 -3.8145,0.4375 48.924357,47.419515 0 0 1 -3.8379,0.14648 48.924357,47.419515 0 0 1 -10.8867,-1.1875 48.924357,47.419515 0 0 1 -10.3418,-3.50781 48.924357,47.419515 0 0 1 -9.2754,-5.65039 48.924357,47.419515 0 0 1 -6.0078,-5.82226 77.681592,76.013501 0 0 1 -3.2207,6.75585 77.681592,76.013501 0 0 1 -7.7656,10.85352 77.681592,76.013501 0 0 1 -1.8418,1.80273 z" />
      <path
         id="path11040"
         style="opacity:1;fill:none;stroke:#000000;stroke-width:0.219025;stroke-dasharray:none"
         d="m 1102.0214,506.15737 a 77.681592,76.013501 0 0 0 0.2832,0.19336 77.681592,76.013501 0 0 0 12.2734,5.59961 77.681592,76.013501 0 0 0 13.0782,3.42969 77.681592,76.013501 0 0 0 13.4902,1.15429 77.681592,76.013501 0 0 0 13.4883,-1.15429 77.681592,76.013501 0 0 0 13.0801,-3.42969 77.681592,76.013501 0 0 0 12.2714,-5.59961 77.681592,76.013501 0 0 0 11.0918,-7.59961 77.681592,76.013501 0 0 0 1.2364,-1.21094 77.681592,76.013501 0 0 1 -3.1446,1.43555 77.681592,76.013501 0 0 1 -13.0781,3.42969 77.681592,76.013501 0 0 1 -13.4902,1.15429 77.681592,76.013501 0 0 1 -13.4883,-1.15429 77.681592,76.013501 0 0 1 -13.0801,-3.42969 77.681592,76.013501 0 0 1 -12.2715,-5.59961 77.681592,76.013501 0 0 1 -3.1972,-2.19141 77.681592,76.013501 0 0 1 -7.7344,7.56641 77.681592,76.013501 0 0 1 -10.8086,7.40625 z" />
      <path
         id="path11038"
         style="opacity:1;fill:none;stroke:#000000;stroke-width:0.219025;stroke-dasharray:none"
         d="m 1111.4335,370.52846 a 77.681592,76.013501 0 0 0 -6.498,6.35547 77.681592,76.013501 0 0 1 7.8945,5.40821 77.681592,76.013501 0 0 1 9.5762,9.36914 77.681592,76.013501 0 0 1 7.7656,10.85351 77.681592,76.013501 0 0 1 3.2207,6.75586 48.924357,47.419515 0 0 1 6.0078,-5.82226 48.924357,47.419515 0 0 1 9.2754,-5.65039 48.924357,47.419515 0 0 1 10.3418,-3.50782 48.924357,47.419515 0 0 1 10.8867,-1.1875 48.924357,47.419515 0 0 1 9.7988,1.06836 48.924357,47.419515 0 0 1 9.8008,-1.06836 48.924357,47.419515 0 0 1 10.8867,1.1875 48.924357,47.419515 0 0 1 3.2442,1.09961 77.681592,76.013501 0 0 0 -2.6348,-3.32031 77.681592,76.013501 0 0 0 -3.2265,-3.58203 77.681592,76.013501 0 0 0 -3.4512,-3.37695 77.681592,76.013501 0 0 0 -3.6602,-3.15821 77.681592,76.013501 0 0 0 -3.8554,-2.92773 77.681592,76.013501 0 0 0 -4.0372,-2.6836 77.681592,76.013501 0 0 0 -4.1992,-2.42968 77.681592,76.013501 0 0 0 -4.3496,-2.16797 77.681592,76.013501 0 0 0 -4.4785,-1.89649 77.681592,76.013501 0 0 0 -4.5918,-1.61914 77.681592,76.013501 0 0 0 -4.6855,-1.33203 77.681592,76.013501 0 0 0 -4.7618,-1.04101 77.681592,76.013501 0 0 0 -4.8203,-0.74805 77.681592,76.013501 0 0 0 -4.8593,-0.44922 77.681592,76.013501 0 0 0 -4.877,-0.14844 77.681592,76.013501 0 0 0 -13.4902,1.1543 77.681592,76.013501 0 0 0 -13.0782,3.42969 77.681592,76.013501 0 0 0 -3.1445,1.43554 z" />
      <path
         id="path11036"
         style="opacity:1;fill:none;stroke:#000000;stroke-width:0.219025;stroke-dasharray:none"
         d="m 1102.0214,374.88589 a 77.681592,76.013501 0 0 1 2.9141,1.99804 77.681592,76.013501 0 0 1 6.498,-6.35547 77.681592,76.013501 0 0 0 -9.1289,4.16407 77.681592,76.013501 0 0 0 -0.2832,0.19336 z" />
      <path
         id="path11034"
         style="opacity:1;fill:none;stroke:#000000;stroke-width:0.219025;stroke-dasharray:none"
         d="m 1072.3476,405.71206 a 77.681592,76.013501 0 0 1 1.5234,-3.19727 77.681592,76.013501 0 0 1 7.7676,-10.85351 77.681592,76.013501 0 0 1 9.5742,-9.36914 77.681592,76.013501 0 0 1 10.8086,-7.40625 77.681592,76.013501 0 0 0 -0.2832,-0.19336 77.681592,76.013501 0 0 0 -12.2715,-5.59961 77.681592,76.013501 0 0 0 -13.0801,-3.42969 77.681592,76.013501 0 0 0 -13.4882,-1.1543 77.681592,76.013501 0 0 0 -3.418,0.29297 77.681592,76.013501 0 0 0 1.125,12.58985 77.681592,76.013501 0 0 0 3.5058,12.79882 77.681592,76.013501 0 0 0 5.7227,12.00782 77.681592,76.013501 0 0 0 2.5137,3.51367 z" />
      <path
         id="path11032"
         style="opacity:1;fill:none;stroke:#000000;stroke-width:0.219025;stroke-dasharray:none"
         d="m 1072.3476,405.71206 a 77.681592,76.013501 0 0 1 -2.5137,-3.51367 77.681592,76.013501 0 0 1 -5.7227,-12.00782 77.681592,76.013501 0 0 1 -3.5058,-12.79882 77.681592,76.013501 0 0 1 -1.125,-12.58985 77.681592,76.013501 0 0 0 -10.0723,0.86133 77.681592,76.013501 0 0 0 -13.0781,3.42969 77.681592,76.013501 0 0 0 -12.2734,5.59961 77.681592,76.013501 0 0 0 -11.0918,7.59961 77.681592,76.013501 0 0 0 -9.5743,9.36914 77.681592,76.013501 0 0 0 -7.7675,10.85351 77.681592,76.013501 0 0 0 -5.7227,12.00782 77.681592,76.013501 0 0 0 -3.5039,12.79882 77.681592,76.013501 0 0 0 -1.1797,13.19922 77.681592,76.013501 0 0 0 1.1797,13.20117 77.681592,76.013501 0 0 0 3.5039,12.79688 77.681592,76.013501 0 0 0 5.7227,12.00976 77.681592,76.013501 0 0 0 7.7675,10.85352 77.681592,76.013501 0 0 0 9.5743,9.36914 77.681592,76.013501 0 0 0 11.0918,7.59961 77.681592,76.013501 0 0 0 12.2734,5.59961 77.681592,76.013501 0 0 0 13.0781,3.42969 77.681592,76.013501 0 0 0 13.4903,1.15429 77.681592,76.013501 0 0 0 13.4882,-1.15429 77.681592,76.013501 0 0 0 13.0801,-3.42969 77.681592,76.013501 0 0 0 12.2715,-5.59961 77.681592,76.013501 0 0 0 0.2832,-0.19336 77.681592,76.013501 0 0 1 -10.8086,-7.40625 77.681592,76.013501 0 0 1 -9.5742,-9.36914 77.681592,76.013501 0 0 1 -7.7676,-10.85352 77.681592,76.013501 0 0 1 -5.7226,-12.00976 77.681592,76.013501 0 0 1 -3.504,-12.79688 77.681592,76.013501 0 0 1 -1.1796,-13.20117 77.681592,76.013501 0 0 1 1.1796,-13.19922 77.681592,76.013501 0 0 1 3.504,-12.79882 77.681592,76.013501 0 0 1 4.1992,-8.81055 z" />
      <path
         id="path11030"
         style="opacity:1;fill:none;stroke:#000000;stroke-width:0.219025;stroke-dasharray:none"
         d="m 1085.5234,420.80386 a 77.681592,76.013501 0 0 1 0.5781,-6.45704 77.681592,76.013501 0 0 1 3.5039,-12.79882 77.681592,76.013501 0 0 1 5.7226,-12.00782 77.681592,76.013501 0 0 1 7.7657,-10.85351 77.681592,76.013501 0 0 1 1.8418,-1.80274 77.681592,76.013501 0 0 0 -2.9141,-1.99804 77.681592,76.013501 0 0 0 -10.8086,7.40625 77.681592,76.013501 0 0 0 -9.5742,9.36914 77.681592,76.013501 0 0 0 -7.7676,10.85351 77.681592,76.013501 0 0 0 -1.5234,3.19727 77.681592,76.013501 0 0 0 5.2519,7.33984 77.681592,76.013501 0 0 0 7.9239,7.75196 z" />
      <path
         id="path11028"
         style="opacity:1;fill:none;stroke:#000000;stroke-width:0.219025;stroke-dasharray:none"
         d="m 1085.5234,420.80386 a 77.681592,76.013501 0 0 1 -7.9239,-7.75196 77.681592,76.013501 0 0 1 -5.2519,-7.33984 77.681592,76.013501 0 0 0 -4.1992,8.81055 77.681592,76.013501 0 0 0 -3.504,12.79882 77.681592,76.013501 0 0 0 -1.1796,13.19922 77.681592,76.013501 0 0 0 1.1796,13.20117 77.681592,76.013501 0 0 0 3.504,12.79688 77.681592,76.013501 0 0 0 5.7226,12.00976 77.681592,76.013501 0 0 0 7.7676,10.85352 77.681592,76.013501 0 0 0 9.5742,9.36914 77.681592,76.013501 0 0 0 10.8086,7.40625 77.681592,76.013501 0 0 0 10.8086,-7.40625 77.681592,76.013501 0 0 0 7.7344,-7.56641 77.681592,76.013501 0 0 1 -7.8946,-5.4082 77.681592,76.013501 0 0 1 -9.5761,-9.36914 77.681592,76.013501 0 0 1 -7.7657,-10.85351 77.681592,76.013501 0 0 1 -5.7226,-12.00977 77.681592,76.013501 0 0 1 -3.5039,-12.79688 77.681592,76.013501 0 0 1 -1.1817,-13.20117 77.681592,76.013501 0 0 1 0.6036,-6.74218 z" />
      <path
         id="path11026"
         style="opacity:1;fill:none;stroke:#000000;stroke-width:0.219025;stroke-dasharray:none"
         d="m 1121.2226,438.42104 a 48.924357,47.419515 0 0 1 0.9824,-8.45117 48.924357,47.419515 0 0 1 3.6191,-10.02344 48.924357,47.419515 0 0 1 5.8282,-8.99023 48.924357,47.419515 0 0 1 1.7402,-1.68555 77.681592,76.013501 0 0 0 -3.2207,-6.75586 77.681592,76.013501 0 0 0 -7.7656,-10.85351 77.681592,76.013501 0 0 0 -9.5762,-9.36914 77.681592,76.013501 0 0 0 -7.8945,-5.40821 77.681592,76.013501 0 0 0 -1.8418,1.80274 77.681592,76.013501 0 0 0 -7.7657,10.85351 77.681592,76.013501 0 0 0 -5.7226,12.00782 77.681592,76.013501 0 0 0 -3.5039,12.79882 77.681592,76.013501 0 0 0 -0.5781,6.45704 77.681592,76.013501 0 0 0 1.6523,1.61718 77.681592,76.013501 0 0 0 11.0918,7.59961 77.681592,76.013501 0 0 0 12.2715,5.59961 77.681592,76.013501 0 0 0 10.6836,2.80078 z" />
      <path
         id="path11024"
         style="opacity:1;fill:none;stroke:#000000;stroke-width:0.219025;stroke-dasharray:none"
         d="m 1121.2226,438.42104 a 77.681592,76.013501 0 0 1 -10.6836,-2.80078 77.681592,76.013501 0 0 1 -12.2715,-5.59961 77.681592,76.013501 0 0 1 -11.0918,-7.59961 77.681592,76.013501 0 0 1 -1.6523,-1.61718 77.681592,76.013501 0 0 0 -0.6036,6.74218 77.681592,76.013501 0 0 0 1.1817,13.20117 77.681592,76.013501 0 0 0 3.5039,12.79688 77.681592,76.013501 0 0 0 5.7226,12.00977 77.681592,76.013501 0 0 0 7.7657,10.85351 77.681592,76.013501 0 0 0 9.5761,9.36914 77.681592,76.013501 0 0 0 7.8946,5.4082 77.681592,76.013501 0 0 0 1.8418,-1.80273 77.681592,76.013501 0 0 0 7.7656,-10.85352 77.681592,76.013501 0 0 0 3.2207,-6.75585 48.924357,47.419515 0 0 1 -1.7402,-1.68555 48.924357,47.419515 0 0 1 -5.8282,-8.99024 48.924357,47.419515 0 0 1 -3.6191,-10.02343 48.924357,47.419515 0 0 1 -1.2266,-10.55274 48.924357,47.419515 0 0 1 0.2442,-2.09961 z" />
      <path
         id="path11022"
         style="opacity:1;fill:none;stroke:#000000;stroke-width:0.219025;stroke-dasharray:none"
         d="m 1140.5253,439.91128 a 77.681592,76.013501 0 0 0 -1.125,-12.58985 77.681592,76.013501 0 0 0 -3.5059,-12.79882 77.681592,76.013501 0 0 0 -2.5019,-5.25196 48.924357,47.419515 0 0 0 -1.7402,1.68555 48.924357,47.419515 0 0 0 -5.8282,8.99023 48.924357,47.419515 0 0 0 -3.6191,10.02344 48.924357,47.419515 0 0 0 -0.9824,8.45117 77.681592,76.013501 0 0 0 2.3965,0.62891 77.681592,76.013501 0 0 0 13.4882,1.1543 77.681592,76.013501 0 0 0 3.418,-0.29297 z" />
      <path
         id="path11020"
         style="opacity:1;fill:none;stroke:#000000;stroke-width:0.219025;stroke-dasharray:none"
         d="m 1140.5253,439.91128 a 77.681592,76.013501 0 0 1 -3.418,0.29297 77.681592,76.013501 0 0 1 -13.4882,-1.1543 77.681592,76.013501 0 0 1 -2.3965,-0.62891 48.924357,47.419515 0 0 0 -0.2442,2.09961 48.924357,47.419515 0 0 0 1.2266,10.55274 48.924357,47.419515 0 0 0 3.6191,10.02343 48.924357,47.419515 0 0 0 5.8282,8.99024 48.924357,47.419515 0 0 0 1.7402,1.68555 77.681592,76.013501 0 0 0 2.5019,-5.25196 77.681592,76.013501 0 0 0 3.5059,-12.79883 77.681592,76.013501 0 0 0 1.1797,-13.20117 77.681592,76.013501 0 0 0 -0.055,-0.60937 z" />
      <path
         id="path11018"
         style="opacity:1;fill:none;stroke:#000000;stroke-width:0.219025;stroke-dasharray:none"
         d="m 1140.6523,439.90151 a 48.924357,47.419515 0 0 1 1.1543,-9.93164 48.924357,47.419515 0 0 1 3.6191,-10.02344 48.924357,47.419515 0 0 1 5.8281,-8.99023 48.924357,47.419515 0 0 1 7.7461,-7.50781 48.924357,47.419515 0 0 1 9.2774,-5.65039 48.924357,47.419515 0 0 1 10.3398,-3.50782 48.924357,47.419515 0 0 1 1.0859,-0.11914 48.924357,47.419515 0 0 0 -9.7988,-1.06836 48.924357,47.419515 0 0 0 -10.8867,1.1875 48.924357,47.419515 0 0 0 -10.3418,3.50782 48.924357,47.419515 0 0 0 -9.2754,5.65039 48.924357,47.419515 0 0 0 -6.0078,5.82226 77.681592,76.013501 0 0 1 2.5019,5.25196 77.681592,76.013501 0 0 1 3.5059,12.79882 77.681592,76.013501 0 0 1 1.125,12.58985 77.681592,76.013501 0 0 0 0.127,-0.01 z" />
      <path
         id="path11016"
         style="opacity:1;fill:none;stroke:#000000;stroke-width:0.219025;stroke-dasharray:none"
         d="m 1140.6523,439.90151 a 77.681592,76.013501 0 0 1 -0.127,0.01 77.681592,76.013501 0 0 1 0.055,0.60937 48.924357,47.419515 0 0 1 0.072,-0.61914 z" />
      <path
         id="path11014"
         style="opacity:1;fill:none;stroke:#000000;stroke-width:0.219025;stroke-dasharray:none"
         d="m 1202.2265,405.21011 a 48.924357,47.419515 0 0 0 -1.8184,-1.76172 48.924357,47.419515 0 0 0 -9.2773,-5.65039 48.924357,47.419515 0 0 0 -10.3399,-3.50782 48.924357,47.419515 0 0 0 -1.0879,-0.11914 48.924357,47.419515 0 0 0 -1.0859,0.11914 48.924357,47.419515 0 0 0 -10.3398,3.50782 48.924357,47.419515 0 0 0 -9.2774,5.65039 48.924357,47.419515 0 0 0 -7.7461,7.50781 48.924357,47.419515 0 0 0 -5.8281,8.99023 48.924357,47.419515 0 0 0 -3.6191,10.02344 48.924357,47.419515 0 0 0 -1.1543,9.93164 77.681592,76.013501 0 0 0 9.9453,-0.85156 77.681592,76.013501 0 0 0 13.0781,-3.42969 77.681592,76.013501 0 0 0 12.2734,-5.59961 77.681592,76.013501 0 0 0 11.0918,-7.59961 77.681592,76.013501 0 0 0 9.5743,-9.36914 77.681592,76.013501 0 0 0 5.6113,-7.84179 z m -22.5235,-1.97657 a 9.8514361,9.5484239 0 0 1 4.9258,1.2793 9.8514361,9.5484239 0 0 1 3.6055,3.49609 9.8514361,9.5484239 0 0 1 1.3203,4.77344 9.8514361,9.5484239 0 0 1 -0.1484,1.6582 9.8514361,9.5484239 0 0 1 -0.4453,1.60743 9.8514361,9.5484239 0 0 1 -0.7266,1.50781 9.8514361,9.5484239 0 0 1 -0.9844,1.36523 9.8514361,9.5484239 0 0 1 -1.2129,1.17578 9.8514361,9.5484239 0 0 1 -1.4082,0.95508 9.8514361,9.5484239 0 0 1 -1.5566,0.70313 9.8514361,9.5484239 0 0 1 -1.6582,0.43164 9.8514361,9.5484239 0 0 1 -1.711,0.14453 9.8514361,9.5484239 0 0 1 -4.9257,-1.2793 9.8514361,9.5484239 0 0 1 -3.6055,-3.49609 9.8514361,9.5484239 0 0 1 -1.3203,-4.77344 9.8514361,9.5484239 0 0 1 1.3203,-4.77344 9.8514361,9.5484239 0 0 1 3.6055,-3.49609 9.8514361,9.5484239 0 0 1 4.9257,-1.2793 z" />
      <path
         id="path11012"
         style="opacity:1;fill:none;stroke:#000000;stroke-width:0.219025;stroke-dasharray:none"
         d="m 1202.2265,405.21011 a 77.681592,76.013501 0 0 1 -5.6113,7.84179 77.681592,76.013501 0 0 1 -9.5743,9.36914 77.681592,76.013501 0 0 1 -11.0918,7.59961 77.681592,76.013501 0 0 1 -12.2734,5.59961 77.681592,76.013501 0 0 1 -13.0781,3.42969 77.681592,76.013501 0 0 1 -9.9453,0.85156 48.924357,47.419515 0 0 0 -0.072,0.61914 48.924357,47.419515 0 0 0 1.2266,10.55274 48.924357,47.419515 0 0 0 3.6191,10.02343 48.924357,47.419515 0 0 0 5.8281,8.99024 48.924357,47.419515 0 0 0 7.7461,7.50781 48.924357,47.419515 0 0 0 9.2774,5.65039 48.924357,47.419515 0 0 0 10.3398,3.50781 48.924357,47.419515 0 0 0 1.3223,0.14454 48.924357,47.419515 0 0 0 1.3847,-0.26758 48.924357,47.419515 0 0 0 3.6973,-1.00977 48.924357,47.419515 0 0 0 3.6035,-1.28906 48.924357,47.419515 0 0 0 3.4903,-1.55859 48.924357,47.419515 0 0 0 3.3515,-1.81836 48.924357,47.419515 0 0 0 3.1934,-2.07032 48.924357,47.419515 0 0 0 3.0176,-2.30468 48.924357,47.419515 0 0 0 2.8203,-2.52735 48.924357,47.419515 0 0 0 2.6074,-2.73437 48.924357,47.419515 0 0 0 2.3789,-2.92383 48.924357,47.419515 0 0 0 2.1348,-3.0957 48.924357,47.419515 0 0 0 1.8769,-3.24805 48.924357,47.419515 0 0 0 1.6074,-3.38086 48.924357,47.419515 0 0 0 1.3301,-3.49414 48.924357,47.419515 0 0 0 1.043,-3.58399 48.924357,47.419515 0 0 0 0.6426,-3.13867 77.681592,76.013501 0 0 0 0.7089,-7.93164 48.924357,47.419515 0 0 0 -1.2265,-10.55078 48.924357,47.419515 0 0 0 -3.6192,-10.02344 48.924357,47.419515 0 0 0 -5.8281,-8.99023 48.924357,47.419515 0 0 0 -5.9277,-5.74609 z" />
      <path
         id="path11010"
         style="opacity:1;fill:none;stroke:#000000;stroke-width:0.219025;stroke-dasharray:none"
         d="m 1206.0194,398.76089 a 77.681592,76.013501 0 0 0 -2.0273,-2.91993 77.681592,76.013501 0 0 0 -0.3574,-0.45117 48.924357,47.419515 0 0 0 -3.2442,-1.09961 48.924357,47.419515 0 0 0 -10.8867,-1.1875 48.924357,47.419515 0 0 0 -9.8008,1.06836 48.924357,47.419515 0 0 1 1.0879,0.11914 48.924357,47.419515 0 0 1 10.3399,3.50782 48.924357,47.419515 0 0 1 9.2773,5.65039 48.924357,47.419515 0 0 1 1.8184,1.76172 77.681592,76.013501 0 0 0 2.1543,-3.01172 77.681592,76.013501 0 0 0 1.6386,-3.4375 z" />
      <path
         id="path11008"
         style="opacity:1;fill:none;stroke:#000000;stroke-width:0.219025;stroke-dasharray:none"
         d="m 1206.0194,398.76089 a 77.681592,76.013501 0 0 1 -1.6386,3.4375 77.681592,76.013501 0 0 1 -2.1543,3.01172 48.924357,47.419515 0 0 1 5.9277,5.74609 48.924357,47.419515 0 0 1 5.8281,8.99023 48.924357,47.419515 0 0 1 3.6192,10.02344 48.924357,47.419515 0 0 1 1.2265,10.55078 77.681592,76.013501 0 0 0 -0.1543,-4.77148 77.681592,76.013501 0 0 0 -0.4589,-4.75391 77.681592,76.013501 0 0 0 -0.7637,-4.7168 77.681592,76.013501 0 0 0 -1.0645,-4.66015 77.681592,76.013501 0 0 0 -1.3613,-4.58594 77.681592,76.013501 0 0 0 -1.6523,-4.49414 77.681592,76.013501 0 0 0 -1.9375,-4.38086 77.681592,76.013501 0 0 0 -2.2168,-4.25586 77.681592,76.013501 0 0 0 -2.4844,-4.10937 77.681592,76.013501 0 0 0 -0.7149,-1.03125 z" />
      <path
         id="path11006"
         style="opacity:1;fill:none;stroke:#000000;stroke-width:0.219025;stroke-dasharray:none"
         d="m 1207.0702,396.55581 a 48.924357,47.419515 0 0 0 -3.4355,-1.16602 77.681592,76.013501 0 0 1 0.3574,0.45117 77.681592,76.013501 0 0 1 2.0273,2.91993 77.681592,76.013501 0 0 0 1.0508,-2.20508 z" />
      <path
         id="path11004"
         style="opacity:1;fill:none;stroke:#000000;stroke-width:0.219025;stroke-dasharray:none"
         d="m 1219.5502,441.51632 a 29.221476,28.593984 0 0 1 -0.024,-1.14516 29.221476,28.593984 0 0 1 1.4316,-8.83594 29.221476,28.593984 0 0 1 4.1504,-7.9707 29.221476,28.593984 0 0 1 6.4649,-6.32617 29.221476,28.593984 0 0 1 0.3007,-0.15039 48.924357,47.419515 0 0 0 -4.0742,-6.28125 48.924357,47.419515 0 0 0 -7.7461,-7.50781 48.924357,47.419515 0 0 0 -9.2754,-5.65039 48.924357,47.419515 0 0 0 -3.6621,-1.24219 v 0 a 77.681592,76.013501 0 0 1 -1.0508,2.20508 77.681592,76.013501 0 0 1 0.7149,1.03125 77.681592,76.013501 0 0 1 2.4844,4.10937 77.681592,76.013501 0 0 1 2.2168,4.25586 77.681592,76.013501 0 0 1 1.9375,4.38086 77.681592,76.013501 0 0 1 1.6523,4.49414 77.681592,76.013501 0 0 1 1.3613,4.58594 77.681592,76.013501 0 0 1 1.0645,4.66015 77.681592,76.013501 0 0 1 0.7637,4.7168 77.681592,76.013501 0 0 1 0.4589,4.75391 77.681592,76.013501 0 0 1 0.1543,4.77148 48.924357,47.419515 0 0 1 -0.014,1.1447" />
      <path
         id="path11120"
         style="opacity:1;fill:none;stroke:#000000;stroke-width:0.219025;stroke-dasharray:none"
         d="m 1218.4604,441.48857 a 48.924357,47.419515 0 0 1 -0.1362,2.57601 48.924357,47.419515 0 0 1 -0.4532,3.69726 48.924357,47.419515 0 0 1 -0.1054,0.51367 77.681592,76.013501 0 0 1 -0.4707,5.26953 77.681592,76.013501 0 0 1 -3.5059,12.79688 77.681592,76.013501 0 0 1 -5.7227,12.00976 77.681592,76.013501 0 0 1 -5.3847,7.5254 48.924357,47.419515 0 0 0 1.5879,-0.4336 48.924357,47.419515 0 0 0 3.6035,-1.28906 48.924357,47.419515 0 0 0 3.4883,-1.55859 48.924357,47.419515 0 0 0 3.3515,-1.81836 48.924357,47.419515 0 0 0 3.1953,-2.07032 48.924357,47.419515 0 0 0 3.0157,-2.30468 48.924357,47.419515 0 0 0 1.9746,-1.76758 77.681592,76.013501 0 0 0 6.625,-9.25781 77.681592,76.013501 0 0 0 1.1425,-2.39649 29.221476,28.593984 0 0 1 -5.957,-5.82812 29.221476,28.593984 0 0 1 -4.1504,-7.97266 29.221476,28.593984 0 0 1 -1.408,-7.69078" />
      <path
         id="path11002"
         style="opacity:1;fill:none;stroke:#000000;stroke-width:0.219025;stroke-dasharray:none"
         d="m 1214.1874,370.93276 a 77.681592,76.013501 0 0 0 -1.6523,-1.61523 77.681592,76.013501 0 0 0 -11.0918,-7.59961 77.681592,76.013501 0 0 0 -12.2735,-5.59961 77.681592,76.013501 0 0 0 -13.0781,-3.42969 77.681592,76.013501 0 0 0 -13.4902,-1.15625 77.681592,76.013501 0 0 0 -13.4883,1.15625 77.681592,76.013501 0 0 0 -13.0801,3.42969 77.681592,76.013501 0 0 0 -12.2715,5.59961 77.681592,76.013501 0 0 0 -11.0918,7.59961 77.681592,76.013501 0 0 0 -1.2363,1.21093 77.681592,76.013501 0 0 1 3.1445,-1.43554 77.681592,76.013501 0 0 1 13.0782,-3.42969 77.681592,76.013501 0 0 1 13.4902,-1.1543 77.681592,76.013501 0 0 1 4.877,0.14844 77.681592,76.013501 0 0 1 4.8593,0.44922 77.681592,76.013501 0 0 1 4.8203,0.74805 77.681592,76.013501 0 0 1 4.7618,1.04101 77.681592,76.013501 0 0 1 4.6855,1.33203 77.681592,76.013501 0 0 1 4.5918,1.61914 77.681592,76.013501 0 0 1 4.4785,1.89649 77.681592,76.013501 0 0 1 4.3496,2.16797 77.681592,76.013501 0 0 1 4.1992,2.42968 77.681592,76.013501 0 0 1 4.0372,2.6836 77.681592,76.013501 0 0 1 3.8554,2.92773 77.681592,76.013501 0 0 1 3.6602,3.15821 77.681592,76.013501 0 0 1 3.4512,3.37695 77.681592,76.013501 0 0 1 3.2265,3.58203 77.681592,76.013501 0 0 1 2.6348,3.32031 48.924357,47.419515 0 0 1 3.4355,1.16602 77.681592,76.013501 0 0 0 3.0332,-6.36524 77.681592,76.013501 0 0 0 3.5059,-12.79882 77.681592,76.013501 0 0 0 0.5781,-6.45899 z" />
      <path
         id="path11000"
         style="opacity:1;fill:none;stroke:#000000;stroke-width:0.219025;stroke-dasharray:none"
         d="m 1214.1874,370.93276 a 77.681592,76.013501 0 0 1 -0.5781,6.45899 77.681592,76.013501 0 0 1 -3.5059,12.79882 77.681592,76.013501 0 0 1 -3.0332,6.36524 48.924357,47.419515 0 0 1 3.6621,1.24219 48.924357,47.419515 0 0 1 9.2754,5.65039 48.924357,47.419515 0 0 1 7.7461,7.50781 48.924357,47.419515 0 0 1 4.0742,6.28125 29.221476,28.593984 0 0 1 7.0977,-3.53906 77.681592,76.013501 0 0 0 -3.3262,-12.15039 77.681592,76.013501 0 0 0 -5.7226,-12.00782 77.681592,76.013501 0 0 0 -7.7676,-10.85351 77.681592,76.013501 0 0 0 -7.9219,-7.75391 z" />
      <path
         id="path10998"
         style="opacity:1;fill:none;stroke:#000000;stroke-width:0.219025;stroke-dasharray:none"
         d="m 1137.1073,288.17886 a 77.681592,76.013501 0 0 0 -13.4882,1.15429 77.681592,76.013501 0 0 0 -13.0801,3.42969 77.681592,76.013501 0 0 0 -12.2715,5.59961 77.681592,76.013501 0 0 0 -11.0918,7.59961 77.681592,76.013501 0 0 0 -9.5762,9.36914 77.681592,76.013501 0 0 0 -7.7656,10.85351 77.681592,76.013501 0 0 0 -5.7227,12.00782 77.681592,76.013501 0 0 0 -3.5058,12.79883 77.681592,76.013501 0 0 0 -1.1797,13.20117 77.681592,76.013501 0 0 0 0.055,0.60937 77.681592,76.013501 0 0 1 3.418,-0.29297 77.681592,76.013501 0 0 1 13.4882,1.1543 77.681592,76.013501 0 0 1 13.0801,3.42969 77.681592,76.013501 0 0 1 12.2715,5.59961 77.681592,76.013501 0 0 1 0.2832,0.19336 77.681592,76.013501 0 0 1 0.2832,-0.19336 77.681592,76.013501 0 0 1 9.1289,-4.16407 77.681592,76.013501 0 0 1 1.2363,-1.21093 77.681592,76.013501 0 0 1 11.0918,-7.59961 77.681592,76.013501 0 0 1 12.2715,-5.59961 77.681592,76.013501 0 0 1 13.0801,-3.42969 77.681592,76.013501 0 0 1 13.4883,-1.15625 77.681592,76.013501 0 0 1 13.4902,1.15625 77.681592,76.013501 0 0 1 13.0781,3.42969 77.681592,76.013501 0 0 1 12.2735,5.59961 77.681592,76.013501 0 0 1 11.0918,7.59961 77.681592,76.013501 0 0 1 1.6523,1.61523 77.681592,76.013501 0 0 0 0.6016,-6.74023 77.681592,76.013501 0 0 0 -0.1524,-4.77344 77.681592,76.013501 0 0 0 -0.4609,-4.75391 77.681592,76.013501 0 0 0 -0.7617,-4.71679 77.681592,76.013501 0 0 0 -1.0645,-4.66016 77.681592,76.013501 0 0 0 -1.3633,-4.58594 77.681592,76.013501 0 0 0 -1.6523,-4.49218 77.681592,76.013501 0 0 0 -1.9375,-4.38282 77.681592,76.013501 0 0 0 -2.2168,-4.25586 77.681592,76.013501 0 0 0 -2.4824,-4.10937 77.681592,76.013501 0 0 0 -2.7442,-3.94922 77.681592,76.013501 0 0 0 -2.9902,-3.77344 77.681592,76.013501 0 0 0 -3.2285,-3.58203 77.681592,76.013501 0 0 0 -3.4492,-3.37695 77.681592,76.013501 0 0 0 -3.6621,-3.15821 77.681592,76.013501 0 0 0 -3.8555,-2.92773 77.681592,76.013501 0 0 0 -4.0352,-2.68359 77.681592,76.013501 0 0 0 -4.2011,-2.42969 77.681592,76.013501 0 0 0 -4.3477,-2.16797 77.681592,76.013501 0 0 0 -4.4805,-1.89648 77.681592,76.013501 0 0 0 -4.5898,-1.61914 77.681592,76.013501 0 0 0 -4.6875,-1.33204 77.681592,76.013501 0 0 0 -4.7617,-1.04101 77.681592,76.013501 0 0 0 -4.8203,-0.7461 77.681592,76.013501 0 0 0 -4.8594,-0.45117 77.681592,76.013501 0 0 0 -4.877,-0.14843 z" />
    </g>
    <g
       id="g11534"
       transform="matrix(0.7056949,0,0,0.70570762,246.62562,683.74395)"
       style="stroke-width:1.41703">
      <path
         id="path10600"
         style="fill:none;stroke:#1a1a1a;stroke-width:2.83406"
         d="M 878.6554,413.63017 A 237.79257,240.27356 0 0 1 640.86281,653.90372 237.79257,240.27356 0 0 1 403.07023,413.63017 237.79257,240.27356 0 0 1 640.86281,173.35659 237.79257,240.27356 0 0 1 878.6554,413.63017 Z" />
      <path
         id="path10602"
         style="fill:none;stroke:#1a1a1a;stroke-width:2.83406"
         d="M 790.62607,413.63017 A 149.76326,149.88989 0 0 1 640.86281,563.52005 149.76326,149.88989 0 0 1 491.09954,413.63017 149.76326,149.88989 0 0 1 640.86281,263.74027 149.76326,149.88989 0 0 1 790.62607,413.63017 Z" />
      <path
         id="path10604"
         style="fill:none;stroke:#1a1a1a;stroke-width:2.83406"
         d="m 730.31322,413.63015 a 89.450403,90.383656 0 0 1 -89.45042,90.38366 89.450403,90.383656 0 0 1 -89.45041,-90.38366 89.450403,90.383656 0 0 1 89.45041,-90.38365 89.450403,90.383656 0 0 1 89.45042,90.38365 z" />
      <path
         id="path10606"
         style="fill:none;stroke:#1a1a1a;stroke-width:2.83406"
         d="m 671.01922,413.63017 a 30.156415,30.181925 0 0 1 -30.15641,30.18192 30.156415,30.181925 0 0 1 -30.15642,-30.18192 30.156415,30.181925 0 0 1 30.15642,-30.18193 30.156415,30.181925 0 0 1 30.15641,30.18193 z" />
      <path
         id="path10610"
         style="fill:none;stroke:#1a1a1a;stroke-width:2.83406"
         d="m 701.17567,413.63016 a 60.312864,60.201698 0 0 1 -60.31287,60.2017 60.312864,60.201698 0 0 1 -60.31286,-60.2017 60.312864,60.201698 0 0 1 60.31286,-60.2017 60.312864,60.201698 0 0 1 60.31287,60.2017 z" />
    </g>
    <g
       id="g11392"
       transform="matrix(3.1911798,0,0,3.1911798,-4317.904,-773.25197)"
       style="stroke-width:0.313364">
      <path
         id="path11123"
         style="opacity:1;fill:#ffffff;stroke:#000000;stroke-width:0;stroke-dasharray:none"
         d="m 1833.703,509.23354 a 9.8514361,9.5484239 0 0 0 -4.9257,1.2793 9.8514361,9.5484239 0 0 0 -3.6055,3.49609 9.8514361,9.5484239 0 0 0 -1.3203,4.77344 9.8514361,9.5484239 0 0 0 1.3203,4.77344 9.8514361,9.5484239 0 0 0 3.6055,3.49609 9.8514361,9.5484239 0 0 0 4.9257,1.2793 9.8514361,9.5484239 0 0 0 1.711,-0.14453 9.8514361,9.5484239 0 0 0 1.6582,-0.43164 9.8514361,9.5484239 0 0 0 1.5566,-0.70313 9.8514361,9.5484239 0 0 0 1.4082,-0.95508 9.8514361,9.5484239 0 0 0 1.2129,-1.17578 9.8514361,9.5484239 0 0 0 0.9844,-1.36523 9.8514361,9.5484239 0 0 0 0.7266,-1.50781 9.8514361,9.5484239 0 0 0 0.4453,-1.60743 9.8514361,9.5484239 0 0 0 0.1484,-1.6582 9.8514361,9.5484239 0 0 0 -1.3203,-4.77344 9.8514361,9.5484239 0 0 0 -3.6055,-3.49609 9.8514361,9.5484239 0 0 0 -4.9258,-1.2793 z" />
      <path
         id="path11135"
         style="opacity:1;fill:#ff0000;stroke:#000000;stroke-width:0;stroke-dasharray:none"
         d="m 1872.1191,554.45229 a 48.924357,47.419515 0 0 0 0.1054,-0.51367 48.924357,47.419515 0 0 0 0.4532,-3.69726 48.924357,47.419515 0 0 0 0.1503,-3.72071 77.681592,76.013501 0 0 1 -0.7089,7.93164 z" />
      <path
         id="path11137"
         style="opacity:1;fill:url(#linearGradient11379);fill-opacity:1;stroke:#000000;stroke-width:0;stroke-dasharray:none"
         d="m 1739.5234,526.80386 a 77.681592,76.013501 0 0 0 -0.6036,6.74218 77.681592,76.013501 0 0 0 1.1817,13.20117 77.681592,76.013501 0 0 0 3.5039,12.79688 77.681592,76.013501 0 0 0 5.7226,12.00977 77.681592,76.013501 0 0 0 7.7657,10.85351 77.681592,76.013501 0 0 0 9.5761,9.36914 77.681592,76.013501 0 0 0 7.8946,5.4082 77.681592,76.013501 0 0 0 3.1972,2.19141 77.681592,76.013501 0 0 0 12.2715,5.59961 77.681592,76.013501 0 0 0 13.0801,3.42969 77.681592,76.013501 0 0 0 13.4883,1.15429 77.681592,76.013501 0 0 0 13.4902,-1.15429 77.681592,76.013501 0 0 0 13.0781,-3.42969 77.681592,76.013501 0 0 0 3.1446,-1.43555 77.681592,76.013501 0 0 0 8.3398,-8.1582 77.681592,76.013501 0 0 0 2.3809,-3.32812 77.681592,76.013501 0 0 0 5.3847,-7.5254 77.681592,76.013501 0 0 0 5.7227,-12.00976 77.681592,76.013501 0 0 0 3.5059,-12.79688 77.681592,76.013501 0 0 0 0.4707,-5.26953 48.924357,47.419515 0 0 1 -0.6426,3.13867 48.924357,47.419515 0 0 1 -1.043,3.58399 48.924357,47.419515 0 0 1 -1.3301,3.49414 48.924357,47.419515 0 0 1 -1.6074,3.38086 48.924357,47.419515 0 0 1 -1.8769,3.24805 48.924357,47.419515 0 0 1 -2.1348,3.0957 48.924357,47.419515 0 0 1 -2.3789,2.92383 48.924357,47.419515 0 0 1 -2.6074,2.73437 48.924357,47.419515 0 0 1 -2.8203,2.52735 48.924357,47.419515 0 0 1 -3.0176,2.30468 48.924357,47.419515 0 0 1 -3.1934,2.07032 48.924357,47.419515 0 0 1 -3.3515,1.81836 48.924357,47.419515 0 0 1 -3.4903,1.55859 48.924357,47.419515 0 0 1 -3.6035,1.28906 48.924357,47.419515 0 0 1 -3.6973,1.00977 48.924357,47.419515 0 0 1 -1.3847,0.26758 48.924357,47.419515 0 0 1 -2.3828,0.45898 48.924357,47.419515 0 0 1 -3.8145,0.4375 48.924357,47.419515 0 0 1 -3.8379,0.14648 48.924357,47.419515 0 0 1 -10.8867,-1.1875 48.924357,47.419515 0 0 1 -10.3418,-3.50781 48.924357,47.419515 0 0 1 -9.2754,-5.65039 48.924357,47.419515 0 0 1 -6.0078,-5.82226 48.924357,47.419515 0 0 1 -1.7402,-1.68555 48.924357,47.419515 0 0 1 -5.8282,-8.99024 48.924357,47.419515 0 0 1 -3.6191,-10.02343 48.924357,47.419515 0 0 1 -1.2266,-10.55274 48.924357,47.419515 0 0 1 0.2442,-2.09961 77.681592,76.013501 0 0 1 -10.6836,-2.80078 77.681592,76.013501 0 0 1 -12.2715,-5.59961 77.681592,76.013501 0 0 1 -11.0918,-7.59961 77.681592,76.013501 0 0 1 -1.6523,-1.61718 z m 98.6445,66.75976 a 48.924357,47.419515 0 0 0 1.0644,0.11719 48.924357,47.419515 0 0 1 -1.0644,-0.11719 z" />
      <path
         id="path11139"
         style="opacity:1;fill:url(#linearGradient11371);fill-opacity:1;stroke:#000000;stroke-width:0;stroke-dasharray:none"
         d="m 1775.2226,544.42104 a 48.924357,47.419515 0 0 0 -0.2442,2.09961 48.924357,47.419515 0 0 0 1.2266,10.55274 48.924357,47.419515 0 0 0 3.6191,10.02343 48.924357,47.419515 0 0 0 5.8282,8.99024 48.924357,47.419515 0 0 0 1.7402,1.68555 48.924357,47.419515 0 0 0 6.0078,5.82226 48.924357,47.419515 0 0 0 9.2754,5.65039 48.924357,47.419515 0 0 0 10.3418,3.50781 48.924357,47.419515 0 0 0 10.8867,1.1875 48.924357,47.419515 0 0 0 3.8379,-0.14648 48.924357,47.419515 0 0 0 3.8145,-0.4375 48.924357,47.419515 0 0 0 2.3828,-0.45898 48.924357,47.419515 0 0 1 -1.3223,-0.14454 48.924357,47.419515 0 0 1 -10.3398,-3.50781 48.924357,47.419515 0 0 1 -9.2774,-5.65039 48.924357,47.419515 0 0 1 -7.7461,-7.50781 48.924357,47.419515 0 0 1 -5.8281,-8.99024 48.924357,47.419515 0 0 1 -3.6191,-10.02343 48.924357,47.419515 0 0 1 -1.2266,-10.55274 77.681592,76.013501 0 0 0 -0.055,-0.60937 77.681592,76.013501 0 0 1 -3.418,0.29297 77.681592,76.013501 0 0 1 -13.4882,-1.1543 77.681592,76.013501 0 0 1 -2.3965,-0.62891 z m 19.3574,2.37305 a 77.681592,76.013501 0 0 1 0,0.26367 77.681592,76.013501 0 0 0 0,-0.26367 z m -0.021,1.51953 a 77.681592,76.013501 0 0 1 0,0.17969 77.681592,76.013501 0 0 0 0,-0.17969 z m -0.084,2.17188 a 77.681592,76.013501 0 0 1 -0.016,0.27343 77.681592,76.013501 0 0 0 0.016,-0.27343 z m -0.049,0.82031 a 77.681592,76.013501 0 0 1 -0.01,0.10937 77.681592,76.013501 0 0 0 0.01,-0.10937 z m -0.037,0.54492 a 77.681592,76.013501 0 0 1 -0.01,0.13672 77.681592,76.013501 0 0 0 0.01,-0.13672 z m -0.1094,1.36914 a 77.681592,76.013501 0 0 1 -0.023,0.23633 77.681592,76.013501 0 0 0 0.023,-0.23633 z m -0.094,0.94727 a 77.681592,76.013501 0 0 1 -0.014,0.13672 77.681592,76.013501 0 0 0 0.014,-0.13672 z" />
      <path
         id="path11143"
         style="opacity:1;fill:url(#linearGradient11381);fill-opacity:1;stroke:#000000;stroke-width:0;stroke-dasharray:none"
         d="m 1756.0214,612.15737 a 77.681592,76.013501 0 0 0 0.2832,0.19336 77.681592,76.013501 0 0 0 12.2734,5.59961 77.681592,76.013501 0 0 0 13.0782,3.42969 77.681592,76.013501 0 0 0 13.4902,1.15429 77.681592,76.013501 0 0 0 13.4883,-1.15429 77.681592,76.013501 0 0 0 13.0801,-3.42969 77.681592,76.013501 0 0 0 12.2714,-5.59961 77.681592,76.013501 0 0 0 11.0918,-7.59961 77.681592,76.013501 0 0 0 1.2364,-1.21094 77.681592,76.013501 0 0 1 -3.1446,1.43555 77.681592,76.013501 0 0 1 -13.0781,3.42969 77.681592,76.013501 0 0 1 -13.4902,1.15429 77.681592,76.013501 0 0 1 -13.4883,-1.15429 77.681592,76.013501 0 0 1 -13.0801,-3.42969 77.681592,76.013501 0 0 1 -12.2715,-5.59961 77.681592,76.013501 0 0 1 -3.1972,-2.19141 77.681592,76.013501 0 0 1 -7.7344,7.56641 77.681592,76.013501 0 0 1 -10.8086,7.40625 z" />
      <path
         id="path11167"
         style="opacity:1;fill:#ff0000;stroke:#000000;stroke-width:0;stroke-dasharray:none"
         d="m 1794.6523,545.90151 a 77.681592,76.013501 0 0 1 -0.127,0.01 77.681592,76.013501 0 0 1 0.055,0.60937 48.924357,47.419515 0 0 1 0.072,-0.61914 z" />
      <path
         id="path11169"
         style="opacity:1;fill:url(#linearGradient11363);fill-opacity:1;stroke:#000000;stroke-width:0;stroke-dasharray:none"
         d="m 1833.703,500.17104 a 48.924357,47.419515 0 0 0 -1.0859,0.11914 48.924357,47.419515 0 0 0 -10.3398,3.50782 48.924357,47.419515 0 0 0 -9.2774,5.65039 48.924357,47.419515 0 0 0 -7.7461,7.50781 48.924357,47.419515 0 0 0 -5.8281,8.99023 48.924357,47.419515 0 0 0 -3.6191,10.02344 48.924357,47.419515 0 0 0 -1.1543,9.93164 48.924357,47.419515 0 0 0 -0.072,0.61914 48.924357,47.419515 0 0 0 1.2266,10.55274 48.924357,47.419515 0 0 0 3.6191,10.02343 48.924357,47.419515 0 0 0 5.8281,8.99024 48.924357,47.419515 0 0 0 7.7461,7.50781 48.924357,47.419515 0 0 0 9.2774,5.65039 48.924357,47.419515 0 0 0 10.3398,3.50781 48.924357,47.419515 0 0 0 1.3223,0.14454 48.924357,47.419515 0 0 0 1.3847,-0.26758 48.924357,47.419515 0 0 0 3.6973,-1.00977 48.924357,47.419515 0 0 0 3.6035,-1.28906 48.924357,47.419515 0 0 0 3.4903,-1.55859 48.924357,47.419515 0 0 0 3.3515,-1.81836 48.924357,47.419515 0 0 0 3.1934,-2.07032 48.924357,47.419515 0 0 0 3.0176,-2.30468 48.924357,47.419515 0 0 0 2.8203,-2.52735 48.924357,47.419515 0 0 0 2.6074,-2.73437 48.924357,47.419515 0 0 0 2.3789,-2.92383 48.924357,47.419515 0 0 0 2.1348,-3.0957 48.924357,47.419515 0 0 0 1.8769,-3.24805 48.924357,47.419515 0 0 0 1.6074,-3.38086 48.924357,47.419515 0 0 0 1.3301,-3.49414 48.924357,47.419515 0 0 0 1.043,-3.58399 48.924357,47.419515 0 0 0 0.6426,-3.13867 77.681592,76.013501 0 0 0 0.7089,-7.93164 48.924357,47.419515 0 0 0 -1.2265,-10.55078 48.924357,47.419515 0 0 0 -3.6192,-10.02344 48.924357,47.419515 0 0 0 -5.8281,-8.99023 48.924357,47.419515 0 0 0 -5.9277,-5.74609 48.924357,47.419515 0 0 0 -1.8184,-1.76172 48.924357,47.419515 0 0 0 -9.2773,-5.65039 48.924357,47.419515 0 0 0 -10.3399,-3.50782 48.924357,47.419515 0 0 0 -1.0879,-0.11914 z m 0,9.0625 a 9.8514361,9.5484239 0 0 1 4.9258,1.2793 9.8514361,9.5484239 0 0 1 3.6055,3.49609 9.8514361,9.5484239 0 0 1 1.3203,4.77344 9.8514361,9.5484239 0 0 1 -0.1484,1.6582 9.8514361,9.5484239 0 0 1 -0.4453,1.60743 9.8514361,9.5484239 0 0 1 -0.7266,1.50781 9.8514361,9.5484239 0 0 1 -0.9844,1.36523 9.8514361,9.5484239 0 0 1 -1.2129,1.17578 9.8514361,9.5484239 0 0 1 -1.4082,0.95508 9.8514361,9.5484239 0 0 1 -1.5566,0.70313 9.8514361,9.5484239 0 0 1 -1.6582,0.43164 9.8514361,9.5484239 0 0 1 -1.711,0.14453 9.8514361,9.5484239 0 0 1 -4.9257,-1.2793 9.8514361,9.5484239 0 0 1 -3.6055,-3.49609 9.8514361,9.5484239 0 0 1 -1.3203,-4.77344 9.8514361,9.5484239 0 0 1 1.3203,-4.77344 9.8514361,9.5484239 0 0 1 3.6055,-3.49609 9.8514361,9.5484239 0 0 1 4.9257,-1.2793 z" />
      <path
         id="path11173"
         style="opacity:1;fill:url(#linearGradient11355);fill-opacity:1;stroke:#000000;stroke-width:0;stroke-dasharray:none"
         d="m 1843.5038,499.10268 a 48.924357,47.419515 0 0 0 -9.8008,1.06836 48.924357,47.419515 0 0 1 1.0879,0.11914 48.924357,47.419515 0 0 1 10.3399,3.50782 48.924357,47.419515 0 0 1 9.2773,5.65039 48.924357,47.419515 0 0 1 1.8184,1.76172 48.924357,47.419515 0 0 1 5.9277,5.74609 48.924357,47.419515 0 0 1 5.8281,8.99023 48.924357,47.419515 0 0 1 3.6192,10.02344 48.924357,47.419515 0 0 1 1.2265,10.55078 77.681592,76.013501 0 0 0 -0.1543,-4.77148 77.681592,76.013501 0 0 0 -0.4589,-4.75391 77.681592,76.013501 0 0 0 -0.7637,-4.7168 77.681592,76.013501 0 0 0 -1.0645,-4.66015 77.681592,76.013501 0 0 0 -1.3613,-4.58594 77.681592,76.013501 0 0 0 -1.6523,-4.49414 77.681592,76.013501 0 0 0 -1.9375,-4.38086 77.681592,76.013501 0 0 0 -2.2168,-4.25586 77.681592,76.013501 0 0 0 -2.4844,-4.10937 77.681592,76.013501 0 0 0 -0.7149,-1.03125 77.681592,76.013501 0 0 0 -2.0273,-2.91993 77.681592,76.013501 0 0 0 -0.3574,-0.45117 48.924357,47.419515 0 0 0 -3.2442,-1.09961 48.924357,47.419515 0 0 0 -10.8867,-1.1875 z" />
      <path
         id="path11177"
         style="opacity:1;fill:url(#linearGradient11223);fill-opacity:1;stroke:#000000;stroke-width:0;stroke-dasharray:none"
         d="m 1857.6347,501.38979 a 77.681592,76.013501 0 0 1 0.3574,0.45117 77.681592,76.013501 0 0 1 2.0273,2.91993 77.681592,76.013501 0 0 0 0.062,-0.12696 77.681592,76.013501 0 0 1 0.6973,1.00782 77.681592,76.013501 0 0 1 2.4844,4.10937 77.681592,76.013501 0 0 1 2.2168,4.25586 77.681592,76.013501 0 0 1 1.9375,4.38086 77.681592,76.013501 0 0 1 1.6523,4.49414 77.681592,76.013501 0 0 1 1.3614,4.58594 77.681592,76.013501 0 0 1 1.0644,4.66015 77.681592,76.013501 0 0 1 0.7637,4.7168 77.681592,76.013501 0 0 1 0.459,4.75391 77.681592,76.013501 0 0 1 0.1543,4.77148 48.924357,47.419515 0 0 1 -0.014,1.14649 h 0.6914 a 29.221476,28.593984 0 0 1 -0.025,-1.14649 29.221476,28.593984 0 0 1 1.4316,-8.83594 29.221476,28.593984 0 0 1 4.1504,-7.9707 29.221476,28.593984 0 0 1 6.4649,-6.32617 29.221476,28.593984 0 0 1 0.3008,-0.15039 48.924357,47.419515 0 0 0 -4.0743,-6.28125 48.924357,47.419515 0 0 0 -7.746,-7.50781 48.924357,47.419515 0 0 0 -9.2754,-5.65039 48.924357,47.419515 0 0 0 -3.6621,-1.24219 77.681592,76.013501 0 0 1 -0.068,0.14258 48.924357,47.419515 0 0 0 -3.4121,-1.15821 z" />
    </g>
    <g
       id="g11604"
       transform="matrix(2.2825455,0,0,2.2831604,-1432.6446,-733.89403)"
       style="stroke-width:0.438047">
      <g
         id="g11495"
         transform="translate(328,132)"
         style="stroke-width:0.438047">
        <path
           id="path11429"
           style="opacity:1;fill:none;stroke:#000000;stroke-width:0.219024;stroke-dasharray:none"
           d="m 1179.703,403.23354 a 9.8514361,9.5484239 0 0 0 -4.9257,1.2793 9.8514361,9.5484239 0 0 0 -3.6055,3.49609 9.8514361,9.5484239 0 0 0 -1.3203,4.77344 9.8514361,9.5484239 0 0 0 1.3203,4.77344 9.8514361,9.5484239 0 0 0 3.6055,3.49609 9.8514361,9.5484239 0 0 0 4.9257,1.2793 9.8514361,9.5484239 0 0 0 1.711,-0.14453 9.8514361,9.5484239 0 0 0 1.6582,-0.43164 9.8514361,9.5484239 0 0 0 1.5566,-0.70313 9.8514361,9.5484239 0 0 0 1.4082,-0.95508 9.8514361,9.5484239 0 0 0 1.2129,-1.17578 9.8514361,9.5484239 0 0 0 0.9844,-1.36523 9.8514361,9.5484239 0 0 0 0.7266,-1.50781 9.8514361,9.5484239 0 0 0 0.4453,-1.60743 9.8514361,9.5484239 0 0 0 0.1484,-1.6582 9.8514361,9.5484239 0 0 0 -1.3203,-4.77344 9.8514361,9.5484239 0 0 0 -3.6055,-3.49609 9.8514361,9.5484239 0 0 0 -4.9258,-1.2793 z" />
        <path
           id="path11431"
           style="opacity:1;fill:none;stroke:#000000;stroke-width:0.219024;stroke-dasharray:none"
           d="m 1248.3905,411.8019 a 29.033978,28.593984 0 0 0 -8.9733,1.40039 29.033978,28.593984 0 0 0 -0.7413,0.3711 77.183154,76.013501 0 0 1 0.1766,0.64843 77.183154,76.013501 0 0 1 1.1721,13.19922 77.183154,76.013501 0 0 1 -1.1721,13.20117 77.183154,76.013501 0 0 1 -0.7976,2.93555 48.610437,47.419515 0 0 1 -0.023,0.5586 48.610437,47.419515 0 0 1 -0.4483,3.69726 48.610437,47.419515 0 0 1 -0.7452,3.65234 48.610437,47.419515 0 0 1 -1.0363,3.58399 48.610437,47.419515 0 0 1 -1.3196,3.49414 48.610437,47.419515 0 0 1 -1.5991,3.38086 48.610437,47.419515 0 0 1 -1.0634,1.85351 29.033978,28.593984 0 0 0 7.5974,3.8125 29.033978,28.593984 0 0 0 8.9733,1.4004 29.033978,28.593984 0 0 0 3.0351,-0.15821 29.033978,28.593984 0 0 0 3.0002,-0.46679 29.033978,28.593984 0 0 0 2.9361,-0.7754 29.033978,28.593984 0 0 0 2.8371,-1.07226 29.033978,28.593984 0 0 0 2.7072,-1.35938 29.033978,28.593984 0 0 0 2.5499,-1.6289 29.033978,28.593984 0 0 0 2.3617,-1.88477 29.033978,28.593984 0 0 0 2.1483,-2.11523 29.033978,28.593984 0 0 0 1.9134,-2.32617 29.033978,28.593984 0 0 0 1.6553,-2.50977 29.033978,28.593984 0 0 0 1.3798,-2.66797 29.033978,28.593984 0 0 0 1.0887,-2.79492 29.033978,28.593984 0 0 0 0.7859,-2.89063 29.033978,28.593984 0 0 0 0.4754,-2.95507 29.033978,28.593984 0 0 0 0.1591,-2.99024 29.033978,28.593984 0 0 0 -1.4204,-8.83594 29.033978,28.593984 0 0 0 -4.1238,-7.9707 29.033978,28.593984 0 0 0 -6.4234,-6.32617 29.033978,28.593984 0 0 0 -8.0942,-4.06055 29.033978,28.593984 0 0 0 -8.9714,-1.40039 z m -10.3356,31.75586 a 48.610437,47.419515 0 0 0 0.1262,-3.16211 48.610437,47.419515 0 0 0 -1.2187,-10.55078 48.610437,47.419515 0 0 0 -3.594,-10.02344 48.610437,47.419515 0 0 0 -1.7446,-2.70898 29.033978,28.593984 0 0 0 -0.2988,0.15039 29.033978,28.593984 0 0 0 -6.4234,6.32617 29.033978,28.593984 0 0 0 -4.1238,7.9707 29.033978,28.593984 0 0 0 -1.4224,8.83594 29.033978,28.593984 0 0 0 1.4224,8.83594 29.033978,28.593984 0 0 0 4.1238,7.97266 29.033978,28.593984 0 0 0 5.9188,5.82812 77.183154,76.013501 0 0 0 4.5507,-9.61328 77.183154,76.013501 0 0 0 2.6838,-9.86133 z" />
        <path
           id="path11433"
           style="opacity:1;fill:none;stroke:#000000;stroke-width:0.219024;stroke-dasharray:none"
           d="m 1238.3007,443.68276 a 77.681592,76.013501 0 0 0 0.8027,-2.93555 77.681592,76.013501 0 0 0 1.1797,-13.20117 77.681592,76.013501 0 0 0 -1.1797,-13.19922 77.681592,76.013501 0 0 0 -0.1777,-0.64843 29.221476,28.593984 0 0 0 -7.0977,3.53906 48.924357,47.419515 0 0 1 1.7559,2.70898 48.924357,47.419515 0 0 1 3.6172,10.02344 48.924357,47.419515 0 0 1 1.2266,10.55078 48.924357,47.419515 0 0 1 -0.127,3.16211 z" />
        <path
           id="path11435"
           style="opacity:1;fill:none;stroke:#000000;stroke-width:0.219024;stroke-dasharray:none"
           d="m 1231.0194,463.15737 a 29.221476,28.593984 0 0 0 0.5079,0.49805 29.221476,28.593984 0 0 0 0.498,0.24804 48.924357,47.419515 0 0 0 1.0703,-1.85351 48.924357,47.419515 0 0 0 1.6094,-3.38086 48.924357,47.419515 0 0 0 1.3281,-3.49414 48.924357,47.419515 0 0 0 1.043,-3.58399 48.924357,47.419515 0 0 0 0.75,-3.65234 48.924357,47.419515 0 0 0 0.4512,-3.69726 48.924357,47.419515 0 0 0 0.023,-0.5586 77.681592,76.013501 0 0 1 -2.7012,9.86133 77.681592,76.013501 0 0 1 -4.5801,9.61328 z" />
        <path
           id="path11437"
           style="opacity:1;fill:none;stroke:#000000;stroke-width:0.219024;stroke-dasharray:none"
           d="m 1223.2519,474.81167 a 48.924357,47.419515 0 0 0 0.8476,-0.75977 48.924357,47.419515 0 0 0 2.6074,-2.73437 48.924357,47.419515 0 0 0 2.377,-2.92383 48.924357,47.419515 0 0 0 2.1348,-3.0957 48.924357,47.419515 0 0 0 0.8066,-1.39454 29.221476,28.593984 0 0 1 -0.498,-0.24804 29.221476,28.593984 0 0 1 -0.5079,-0.49805 77.681592,76.013501 0 0 1 -1.1425,2.39649 77.681592,76.013501 0 0 1 -6.625,9.25781 z" />
        <path
           id="path11439"
           style="opacity:1;fill:none;stroke:#000000;stroke-width:0.219024;stroke-dasharray:none"
           d="m 1203.0351,486.05386 a 77.681592,76.013501 0 0 1 -2.3809,3.32812 77.681592,76.013501 0 0 1 -8.3398,8.1582 77.681592,76.013501 0 0 0 9.1289,-4.16406 77.681592,76.013501 0 0 0 11.0918,-7.59961 77.681592,76.013501 0 0 0 9.5742,-9.36914 77.681592,76.013501 0 0 0 1.1426,-1.5957 48.924357,47.419515 0 0 1 -1.9746,1.76758 48.924357,47.419515 0 0 1 -3.0157,2.30468 48.924357,47.419515 0 0 1 -3.1953,2.07032 48.924357,47.419515 0 0 1 -3.3515,1.81836 48.924357,47.419515 0 0 1 -3.4883,1.55859 48.924357,47.419515 0 0 1 -3.6035,1.28906 48.924357,47.419515 0 0 1 -1.5879,0.4336 z" />
        <path
           id="path11441"
           style="opacity:1;fill:none;stroke:#000000;stroke-width:0.219024;stroke-dasharray:none"
           d="m 1218.1191,448.45229 a 48.924357,47.419515 0 0 0 0.1054,-0.51367 48.924357,47.419515 0 0 0 0.4532,-3.69726 48.924357,47.419515 0 0 0 0.1503,-3.72071 77.681592,76.013501 0 0 1 -0.7089,7.93164 z" />
        <path
           id="path11443"
           style="opacity:1;fill:none;stroke:#000000;stroke-width:0.219024;stroke-dasharray:none"
           d="m 1179.9394,486.89761 a 48.924357,47.419515 0 0 0 9.5644,1.04296 48.924357,47.419515 0 0 0 3.8379,-0.14648 48.924357,47.419515 0 0 0 3.8164,-0.4375 48.924357,47.419515 0 0 0 3.7676,-0.72656 48.924357,47.419515 0 0 0 2.1094,-0.57617 77.681592,76.013501 0 0 0 5.3847,-7.5254 77.681592,76.013501 0 0 0 5.7227,-12.00976 77.681592,76.013501 0 0 0 3.5059,-12.79688 77.681592,76.013501 0 0 0 0.4707,-5.26953 48.924357,47.419515 0 0 1 -0.6426,3.13867 48.924357,47.419515 0 0 1 -1.043,3.58399 48.924357,47.419515 0 0 1 -1.3301,3.49414 48.924357,47.419515 0 0 1 -1.6074,3.38086 48.924357,47.419515 0 0 1 -1.8769,3.24805 48.924357,47.419515 0 0 1 -2.1348,3.0957 48.924357,47.419515 0 0 1 -2.3789,2.92383 48.924357,47.419515 0 0 1 -2.6074,2.73437 48.924357,47.419515 0 0 1 -2.8203,2.52735 48.924357,47.419515 0 0 1 -3.0176,2.30468 48.924357,47.419515 0 0 1 -3.1934,2.07032 48.924357,47.419515 0 0 1 -3.3515,1.81836 48.924357,47.419515 0 0 1 -3.4903,1.55859 48.924357,47.419515 0 0 1 -3.6035,1.28906 48.924357,47.419515 0 0 1 -3.6973,1.00977 48.924357,47.419515 0 0 1 -1.3847,0.26758 z" />
        <path
           id="path11445"
           style="opacity:1;fill:none;stroke:#000000;stroke-width:0.219024;stroke-dasharray:none"
           d="m 1133.3925,471.77261 a 48.924357,47.419515 0 0 0 6.0078,5.82226 48.924357,47.419515 0 0 0 9.2754,5.65039 48.924357,47.419515 0 0 0 10.3418,3.50781 48.924357,47.419515 0 0 0 10.8867,1.1875 48.924357,47.419515 0 0 0 3.8379,-0.14648 48.924357,47.419515 0 0 0 3.8145,-0.4375 48.924357,47.419515 0 0 0 2.3828,-0.45898 48.924357,47.419515 0 0 1 -1.3223,-0.14454 48.924357,47.419515 0 0 1 -10.3398,-3.50781 48.924357,47.419515 0 0 1 -9.2774,-5.65039 48.924357,47.419515 0 0 1 -7.7461,-7.50781 48.924357,47.419515 0 0 1 -5.8281,-8.99024 48.924357,47.419515 0 0 1 -3.6191,-10.02343 48.924357,47.419515 0 0 1 -1.2266,-10.55274 77.681592,76.013501 0 0 1 -1.1797,13.20117 77.681592,76.013501 0 0 1 -3.5059,12.79883 77.681592,76.013501 0 0 1 -2.5019,5.25196 z" />
        <path
           id="path11447"
           style="opacity:1;fill:none;stroke:#000000;stroke-width:0.219024;stroke-dasharray:none"
           d="m 1120.5644,491.18471 a 77.681592,76.013501 0 0 0 3.1972,2.19141 77.681592,76.013501 0 0 0 12.2715,5.59961 77.681592,76.013501 0 0 0 13.0801,3.42969 77.681592,76.013501 0 0 0 13.4883,1.15429 77.681592,76.013501 0 0 0 13.4902,-1.15429 77.681592,76.013501 0 0 0 13.0781,-3.42969 77.681592,76.013501 0 0 0 3.1446,-1.43555 77.681592,76.013501 0 0 0 8.3398,-8.1582 77.681592,76.013501 0 0 0 2.3809,-3.32812 48.924357,47.419515 0 0 1 -2.1094,0.57617 48.924357,47.419515 0 0 1 -3.7676,0.72656 48.924357,47.419515 0 0 1 -3.8164,0.4375 48.924357,47.419515 0 0 1 -3.8379,0.14648 48.924357,47.419515 0 0 1 -9.5644,-1.04296 48.924357,47.419515 0 0 1 -2.3828,0.45898 48.924357,47.419515 0 0 1 -3.8145,0.4375 48.924357,47.419515 0 0 1 -3.8379,0.14648 48.924357,47.419515 0 0 1 -10.8867,-1.1875 48.924357,47.419515 0 0 1 -10.3418,-3.50781 48.924357,47.419515 0 0 1 -9.2754,-5.65039 48.924357,47.419515 0 0 1 -6.0078,-5.82226 77.681592,76.013501 0 0 1 -3.2207,6.75585 77.681592,76.013501 0 0 1 -7.7656,10.85352 77.681592,76.013501 0 0 1 -1.8418,1.80273 z" />
        <path
           id="path11449"
           style="opacity:1;fill:none;stroke:#000000;stroke-width:0.219024;stroke-dasharray:none"
           d="m 1102.0214,506.15737 a 77.681592,76.013501 0 0 0 0.2832,0.19336 77.681592,76.013501 0 0 0 12.2734,5.59961 77.681592,76.013501 0 0 0 13.0782,3.42969 77.681592,76.013501 0 0 0 13.4902,1.15429 77.681592,76.013501 0 0 0 13.4883,-1.15429 77.681592,76.013501 0 0 0 13.0801,-3.42969 77.681592,76.013501 0 0 0 12.2714,-5.59961 77.681592,76.013501 0 0 0 11.0918,-7.59961 77.681592,76.013501 0 0 0 1.2364,-1.21094 77.681592,76.013501 0 0 1 -3.1446,1.43555 77.681592,76.013501 0 0 1 -13.0781,3.42969 77.681592,76.013501 0 0 1 -13.4902,1.15429 77.681592,76.013501 0 0 1 -13.4883,-1.15429 77.681592,76.013501 0 0 1 -13.0801,-3.42969 77.681592,76.013501 0 0 1 -12.2715,-5.59961 77.681592,76.013501 0 0 1 -3.1972,-2.19141 77.681592,76.013501 0 0 1 -7.7344,7.56641 77.681592,76.013501 0 0 1 -10.8086,7.40625 z" />
        <path
           id="path11451"
           style="opacity:1;fill:none;stroke:#000000;stroke-width:0.219024;stroke-dasharray:none"
           d="m 1111.4335,370.52846 a 77.681592,76.013501 0 0 0 -6.498,6.35547 77.681592,76.013501 0 0 1 7.8945,5.40821 77.681592,76.013501 0 0 1 9.5762,9.36914 77.681592,76.013501 0 0 1 7.7656,10.85351 77.681592,76.013501 0 0 1 3.2207,6.75586 48.924357,47.419515 0 0 1 6.0078,-5.82226 48.924357,47.419515 0 0 1 9.2754,-5.65039 48.924357,47.419515 0 0 1 10.3418,-3.50782 48.924357,47.419515 0 0 1 10.8867,-1.1875 48.924357,47.419515 0 0 1 9.7988,1.06836 48.924357,47.419515 0 0 1 9.8008,-1.06836 48.924357,47.419515 0 0 1 10.8867,1.1875 48.924357,47.419515 0 0 1 3.2442,1.09961 77.681592,76.013501 0 0 0 -2.6348,-3.32031 77.681592,76.013501 0 0 0 -3.2265,-3.58203 77.681592,76.013501 0 0 0 -3.4512,-3.37695 77.681592,76.013501 0 0 0 -3.6602,-3.15821 77.681592,76.013501 0 0 0 -3.8554,-2.92773 77.681592,76.013501 0 0 0 -4.0372,-2.6836 77.681592,76.013501 0 0 0 -4.1992,-2.42968 77.681592,76.013501 0 0 0 -4.3496,-2.16797 77.681592,76.013501 0 0 0 -4.4785,-1.89649 77.681592,76.013501 0 0 0 -4.5918,-1.61914 77.681592,76.013501 0 0 0 -4.6855,-1.33203 77.681592,76.013501 0 0 0 -4.7618,-1.04101 77.681592,76.013501 0 0 0 -4.8203,-0.74805 77.681592,76.013501 0 0 0 -4.8593,-0.44922 77.681592,76.013501 0 0 0 -4.877,-0.14844 77.681592,76.013501 0 0 0 -13.4902,1.1543 77.681592,76.013501 0 0 0 -13.0782,3.42969 77.681592,76.013501 0 0 0 -3.1445,1.43554 z" />
        <path
           id="path11453"
           style="opacity:1;fill:none;stroke:#000000;stroke-width:0.219024;stroke-dasharray:none"
           d="m 1102.0214,374.88589 a 77.681592,76.013501 0 0 1 2.9141,1.99804 77.681592,76.013501 0 0 1 6.498,-6.35547 77.681592,76.013501 0 0 0 -9.1289,4.16407 77.681592,76.013501 0 0 0 -0.2832,0.19336 z" />
        <path
           id="path11455"
           style="opacity:1;fill:none;stroke:#000000;stroke-width:0.219024;stroke-dasharray:none"
           d="m 1072.3476,405.71206 a 77.681592,76.013501 0 0 1 1.5234,-3.19727 77.681592,76.013501 0 0 1 7.7676,-10.85351 77.681592,76.013501 0 0 1 9.5742,-9.36914 77.681592,76.013501 0 0 1 10.8086,-7.40625 77.681592,76.013501 0 0 0 -0.2832,-0.19336 77.681592,76.013501 0 0 0 -12.2715,-5.59961 77.681592,76.013501 0 0 0 -13.0801,-3.42969 77.681592,76.013501 0 0 0 -13.4882,-1.1543 77.681592,76.013501 0 0 0 -3.418,0.29297 77.681592,76.013501 0 0 0 1.125,12.58985 77.681592,76.013501 0 0 0 3.5058,12.79882 77.681592,76.013501 0 0 0 5.7227,12.00782 77.681592,76.013501 0 0 0 2.5137,3.51367 z" />
        <path
           id="path11457"
           style="opacity:1;fill:none;stroke:#000000;stroke-width:0.219024;stroke-dasharray:none"
           d="m 1072.3476,405.71206 a 77.681592,76.013501 0 0 1 -2.5137,-3.51367 77.681592,76.013501 0 0 1 -5.7227,-12.00782 77.681592,76.013501 0 0 1 -3.5058,-12.79882 77.681592,76.013501 0 0 1 -1.125,-12.58985 77.681592,76.013501 0 0 0 -10.0723,0.86133 77.681592,76.013501 0 0 0 -13.0781,3.42969 77.681592,76.013501 0 0 0 -12.2734,5.59961 77.681592,76.013501 0 0 0 -11.0918,7.59961 77.681592,76.013501 0 0 0 -9.5743,9.36914 77.681592,76.013501 0 0 0 -7.7675,10.85351 77.681592,76.013501 0 0 0 -5.7227,12.00782 77.681592,76.013501 0 0 0 -3.5039,12.79882 77.681592,76.013501 0 0 0 -1.1797,13.19922 77.681592,76.013501 0 0 0 1.1797,13.20117 77.681592,76.013501 0 0 0 3.5039,12.79688 77.681592,76.013501 0 0 0 5.7227,12.00976 77.681592,76.013501 0 0 0 7.7675,10.85352 77.681592,76.013501 0 0 0 9.5743,9.36914 77.681592,76.013501 0 0 0 11.0918,7.59961 77.681592,76.013501 0 0 0 12.2734,5.59961 77.681592,76.013501 0 0 0 13.0781,3.42969 77.681592,76.013501 0 0 0 13.4903,1.15429 77.681592,76.013501 0 0 0 13.4882,-1.15429 77.681592,76.013501 0 0 0 13.0801,-3.42969 77.681592,76.013501 0 0 0 12.2715,-5.59961 77.681592,76.013501 0 0 0 0.2832,-0.19336 77.681592,76.013501 0 0 1 -10.8086,-7.40625 77.681592,76.013501 0 0 1 -9.5742,-9.36914 77.681592,76.013501 0 0 1 -7.7676,-10.85352 77.681592,76.013501 0 0 1 -5.7226,-12.00976 77.681592,76.013501 0 0 1 -3.504,-12.79688 77.681592,76.013501 0 0 1 -1.1796,-13.20117 77.681592,76.013501 0 0 1 1.1796,-13.19922 77.681592,76.013501 0 0 1 3.504,-12.79882 77.681592,76.013501 0 0 1 4.1992,-8.81055 z" />
        <path
           id="path11459"
           style="opacity:1;fill:none;stroke:#000000;stroke-width:0.219024;stroke-dasharray:none"
           d="m 1085.5234,420.80386 a 77.681592,76.013501 0 0 1 0.5781,-6.45704 77.681592,76.013501 0 0 1 3.5039,-12.79882 77.681592,76.013501 0 0 1 5.7226,-12.00782 77.681592,76.013501 0 0 1 7.7657,-10.85351 77.681592,76.013501 0 0 1 1.8418,-1.80274 77.681592,76.013501 0 0 0 -2.9141,-1.99804 77.681592,76.013501 0 0 0 -10.8086,7.40625 77.681592,76.013501 0 0 0 -9.5742,9.36914 77.681592,76.013501 0 0 0 -7.7676,10.85351 77.681592,76.013501 0 0 0 -1.5234,3.19727 77.681592,76.013501 0 0 0 5.2519,7.33984 77.681592,76.013501 0 0 0 7.9239,7.75196 z" />
        <path
           id="path11461"
           style="opacity:1;fill:none;stroke:#000000;stroke-width:0.219024;stroke-dasharray:none"
           d="m 1085.5234,420.80386 a 77.681592,76.013501 0 0 1 -7.9239,-7.75196 77.681592,76.013501 0 0 1 -5.2519,-7.33984 77.681592,76.013501 0 0 0 -4.1992,8.81055 77.681592,76.013501 0 0 0 -3.504,12.79882 77.681592,76.013501 0 0 0 -1.1796,13.19922 77.681592,76.013501 0 0 0 1.1796,13.20117 77.681592,76.013501 0 0 0 3.504,12.79688 77.681592,76.013501 0 0 0 5.7226,12.00976 77.681592,76.013501 0 0 0 7.7676,10.85352 77.681592,76.013501 0 0 0 9.5742,9.36914 77.681592,76.013501 0 0 0 10.8086,7.40625 77.681592,76.013501 0 0 0 10.8086,-7.40625 77.681592,76.013501 0 0 0 7.7344,-7.56641 77.681592,76.013501 0 0 1 -7.8946,-5.4082 77.681592,76.013501 0 0 1 -9.5761,-9.36914 77.681592,76.013501 0 0 1 -7.7657,-10.85351 77.681592,76.013501 0 0 1 -5.7226,-12.00977 77.681592,76.013501 0 0 1 -3.5039,-12.79688 77.681592,76.013501 0 0 1 -1.1817,-13.20117 77.681592,76.013501 0 0 1 0.6036,-6.74218 z" />
        <path
           id="path11463"
           style="opacity:1;fill:none;stroke:#000000;stroke-width:0.219024;stroke-dasharray:none"
           d="m 1121.2226,438.42104 a 48.924357,47.419515 0 0 1 0.9824,-8.45117 48.924357,47.419515 0 0 1 3.6191,-10.02344 48.924357,47.419515 0 0 1 5.8282,-8.99023 48.924357,47.419515 0 0 1 1.7402,-1.68555 77.681592,76.013501 0 0 0 -3.2207,-6.75586 77.681592,76.013501 0 0 0 -7.7656,-10.85351 77.681592,76.013501 0 0 0 -9.5762,-9.36914 77.681592,76.013501 0 0 0 -7.8945,-5.40821 77.681592,76.013501 0 0 0 -1.8418,1.80274 77.681592,76.013501 0 0 0 -7.7657,10.85351 77.681592,76.013501 0 0 0 -5.7226,12.00782 77.681592,76.013501 0 0 0 -3.5039,12.79882 77.681592,76.013501 0 0 0 -0.5781,6.45704 77.681592,76.013501 0 0 0 1.6523,1.61718 77.681592,76.013501 0 0 0 11.0918,7.59961 77.681592,76.013501 0 0 0 12.2715,5.59961 77.681592,76.013501 0 0 0 10.6836,2.80078 z" />
        <path
           id="path11465"
           style="opacity:1;fill:none;stroke:#000000;stroke-width:0.219024;stroke-dasharray:none"
           d="m 1121.2226,438.42104 a 77.681592,76.013501 0 0 1 -10.6836,-2.80078 77.681592,76.013501 0 0 1 -12.2715,-5.59961 77.681592,76.013501 0 0 1 -11.0918,-7.59961 77.681592,76.013501 0 0 1 -1.6523,-1.61718 77.681592,76.013501 0 0 0 -0.6036,6.74218 77.681592,76.013501 0 0 0 1.1817,13.20117 77.681592,76.013501 0 0 0 3.5039,12.79688 77.681592,76.013501 0 0 0 5.7226,12.00977 77.681592,76.013501 0 0 0 7.7657,10.85351 77.681592,76.013501 0 0 0 9.5761,9.36914 77.681592,76.013501 0 0 0 7.8946,5.4082 77.681592,76.013501 0 0 0 1.8418,-1.80273 77.681592,76.013501 0 0 0 7.7656,-10.85352 77.681592,76.013501 0 0 0 3.2207,-6.75585 48.924357,47.419515 0 0 1 -1.7402,-1.68555 48.924357,47.419515 0 0 1 -5.8282,-8.99024 48.924357,47.419515 0 0 1 -3.6191,-10.02343 48.924357,47.419515 0 0 1 -1.2266,-10.55274 48.924357,47.419515 0 0 1 0.2442,-2.09961 z" />
        <path
           id="path11467"
           style="opacity:1;fill:none;stroke:#000000;stroke-width:0.219024;stroke-dasharray:none"
           d="m 1140.5253,439.91128 a 77.681592,76.013501 0 0 0 -1.125,-12.58985 77.681592,76.013501 0 0 0 -3.5059,-12.79882 77.681592,76.013501 0 0 0 -2.5019,-5.25196 48.924357,47.419515 0 0 0 -1.7402,1.68555 48.924357,47.419515 0 0 0 -5.8282,8.99023 48.924357,47.419515 0 0 0 -3.6191,10.02344 48.924357,47.419515 0 0 0 -0.9824,8.45117 77.681592,76.013501 0 0 0 2.3965,0.62891 77.681592,76.013501 0 0 0 13.4882,1.1543 77.681592,76.013501 0 0 0 3.418,-0.29297 z" />
        <path
           id="path11469"
           style="opacity:1;fill:none;stroke:#000000;stroke-width:0.219024;stroke-dasharray:none"
           d="m 1140.5253,439.91128 a 77.681592,76.013501 0 0 1 -3.418,0.29297 77.681592,76.013501 0 0 1 -13.4882,-1.1543 77.681592,76.013501 0 0 1 -2.3965,-0.62891 48.924357,47.419515 0 0 0 -0.2442,2.09961 48.924357,47.419515 0 0 0 1.2266,10.55274 48.924357,47.419515 0 0 0 3.6191,10.02343 48.924357,47.419515 0 0 0 5.8282,8.99024 48.924357,47.419515 0 0 0 1.7402,1.68555 77.681592,76.013501 0 0 0 2.5019,-5.25196 77.681592,76.013501 0 0 0 3.5059,-12.79883 77.681592,76.013501 0 0 0 1.1797,-13.20117 77.681592,76.013501 0 0 0 -0.055,-0.60937 z" />
        <path
           id="path11471"
           style="opacity:1;fill:none;stroke:#000000;stroke-width:0.219024;stroke-dasharray:none"
           d="m 1140.6523,439.90151 a 48.924357,47.419515 0 0 1 1.1543,-9.93164 48.924357,47.419515 0 0 1 3.6191,-10.02344 48.924357,47.419515 0 0 1 5.8281,-8.99023 48.924357,47.419515 0 0 1 7.7461,-7.50781 48.924357,47.419515 0 0 1 9.2774,-5.65039 48.924357,47.419515 0 0 1 10.3398,-3.50782 48.924357,47.419515 0 0 1 1.0859,-0.11914 48.924357,47.419515 0 0 0 -9.7988,-1.06836 48.924357,47.419515 0 0 0 -10.8867,1.1875 48.924357,47.419515 0 0 0 -10.3418,3.50782 48.924357,47.419515 0 0 0 -9.2754,5.65039 48.924357,47.419515 0 0 0 -6.0078,5.82226 77.681592,76.013501 0 0 1 2.5019,5.25196 77.681592,76.013501 0 0 1 3.5059,12.79882 77.681592,76.013501 0 0 1 1.125,12.58985 77.681592,76.013501 0 0 0 0.127,-0.01 z" />
        <path
           id="path11473"
           style="opacity:1;fill:none;stroke:#000000;stroke-width:0.219024;stroke-dasharray:none"
           d="m 1140.6523,439.90151 a 77.681592,76.013501 0 0 1 -0.127,0.01 77.681592,76.013501 0 0 1 0.055,0.60937 48.924357,47.419515 0 0 1 0.072,-0.61914 z" />
        <path
           id="path11475"
           style="opacity:1;fill:none;stroke:#000000;stroke-width:0.219024;stroke-dasharray:none"
           d="m 1202.2265,405.21011 a 48.924357,47.419515 0 0 0 -1.8184,-1.76172 48.924357,47.419515 0 0 0 -9.2773,-5.65039 48.924357,47.419515 0 0 0 -10.3399,-3.50782 48.924357,47.419515 0 0 0 -1.0879,-0.11914 48.924357,47.419515 0 0 0 -1.0859,0.11914 48.924357,47.419515 0 0 0 -10.3398,3.50782 48.924357,47.419515 0 0 0 -9.2774,5.65039 48.924357,47.419515 0 0 0 -7.7461,7.50781 48.924357,47.419515 0 0 0 -5.8281,8.99023 48.924357,47.419515 0 0 0 -3.6191,10.02344 48.924357,47.419515 0 0 0 -1.1543,9.93164 77.681592,76.013501 0 0 0 9.9453,-0.85156 77.681592,76.013501 0 0 0 13.0781,-3.42969 77.681592,76.013501 0 0 0 12.2734,-5.59961 77.681592,76.013501 0 0 0 11.0918,-7.59961 77.681592,76.013501 0 0 0 9.5743,-9.36914 77.681592,76.013501 0 0 0 5.6113,-7.84179 z m -22.5235,-1.97657 a 9.8514361,9.5484239 0 0 1 4.9258,1.2793 9.8514361,9.5484239 0 0 1 3.6055,3.49609 9.8514361,9.5484239 0 0 1 1.3203,4.77344 9.8514361,9.5484239 0 0 1 -0.1484,1.6582 9.8514361,9.5484239 0 0 1 -0.4453,1.60743 9.8514361,9.5484239 0 0 1 -0.7266,1.50781 9.8514361,9.5484239 0 0 1 -0.9844,1.36523 9.8514361,9.5484239 0 0 1 -1.2129,1.17578 9.8514361,9.5484239 0 0 1 -1.4082,0.95508 9.8514361,9.5484239 0 0 1 -1.5566,0.70313 9.8514361,9.5484239 0 0 1 -1.6582,0.43164 9.8514361,9.5484239 0 0 1 -1.711,0.14453 9.8514361,9.5484239 0 0 1 -4.9257,-1.2793 9.8514361,9.5484239 0 0 1 -3.6055,-3.49609 9.8514361,9.5484239 0 0 1 -1.3203,-4.77344 9.8514361,9.5484239 0 0 1 1.3203,-4.77344 9.8514361,9.5484239 0 0 1 3.6055,-3.49609 9.8514361,9.5484239 0 0 1 4.9257,-1.2793 z" />
        <path
           id="path11477"
           style="opacity:1;fill:none;stroke:#000000;stroke-width:0.219024;stroke-dasharray:none"
           d="m 1202.2265,405.21011 a 77.681592,76.013501 0 0 1 -5.6113,7.84179 77.681592,76.013501 0 0 1 -9.5743,9.36914 77.681592,76.013501 0 0 1 -11.0918,7.59961 77.681592,76.013501 0 0 1 -12.2734,5.59961 77.681592,76.013501 0 0 1 -13.0781,3.42969 77.681592,76.013501 0 0 1 -9.9453,0.85156 48.924357,47.419515 0 0 0 -0.072,0.61914 48.924357,47.419515 0 0 0 1.2266,10.55274 48.924357,47.419515 0 0 0 3.6191,10.02343 48.924357,47.419515 0 0 0 5.8281,8.99024 48.924357,47.419515 0 0 0 7.7461,7.50781 48.924357,47.419515 0 0 0 9.2774,5.65039 48.924357,47.419515 0 0 0 10.3398,3.50781 48.924357,47.419515 0 0 0 1.3223,0.14454 48.924357,47.419515 0 0 0 1.3847,-0.26758 48.924357,47.419515 0 0 0 3.6973,-1.00977 48.924357,47.419515 0 0 0 3.6035,-1.28906 48.924357,47.419515 0 0 0 3.4903,-1.55859 48.924357,47.419515 0 0 0 3.3515,-1.81836 48.924357,47.419515 0 0 0 3.1934,-2.07032 48.924357,47.419515 0 0 0 3.0176,-2.30468 48.924357,47.419515 0 0 0 2.8203,-2.52735 48.924357,47.419515 0 0 0 2.6074,-2.73437 48.924357,47.419515 0 0 0 2.3789,-2.92383 48.924357,47.419515 0 0 0 2.1348,-3.0957 48.924357,47.419515 0 0 0 1.8769,-3.24805 48.924357,47.419515 0 0 0 1.6074,-3.38086 48.924357,47.419515 0 0 0 1.3301,-3.49414 48.924357,47.419515 0 0 0 1.043,-3.58399 48.924357,47.419515 0 0 0 0.6426,-3.13867 77.681592,76.013501 0 0 0 0.7089,-7.93164 48.924357,47.419515 0 0 0 -1.2265,-10.55078 48.924357,47.419515 0 0 0 -3.6192,-10.02344 48.924357,47.419515 0 0 0 -5.8281,-8.99023 48.924357,47.419515 0 0 0 -5.9277,-5.74609 z" />
        <path
           id="path11479"
           style="opacity:1;fill:none;stroke:#000000;stroke-width:0.219024;stroke-dasharray:none"
           d="m 1206.0194,398.76089 a 77.681592,76.013501 0 0 0 -2.0273,-2.91993 77.681592,76.013501 0 0 0 -0.3574,-0.45117 48.924357,47.419515 0 0 0 -3.2442,-1.09961 48.924357,47.419515 0 0 0 -10.8867,-1.1875 48.924357,47.419515 0 0 0 -9.8008,1.06836 48.924357,47.419515 0 0 1 1.0879,0.11914 48.924357,47.419515 0 0 1 10.3399,3.50782 48.924357,47.419515 0 0 1 9.2773,5.65039 48.924357,47.419515 0 0 1 1.8184,1.76172 77.681592,76.013501 0 0 0 2.1543,-3.01172 77.681592,76.013501 0 0 0 1.6386,-3.4375 z" />
        <path
           id="path11481"
           style="opacity:1;fill:none;stroke:#000000;stroke-width:0.219024;stroke-dasharray:none"
           d="m 1206.0194,398.76089 a 77.681592,76.013501 0 0 1 -1.6386,3.4375 77.681592,76.013501 0 0 1 -2.1543,3.01172 48.924357,47.419515 0 0 1 5.9277,5.74609 48.924357,47.419515 0 0 1 5.8281,8.99023 48.924357,47.419515 0 0 1 3.6192,10.02344 48.924357,47.419515 0 0 1 1.2265,10.55078 77.681592,76.013501 0 0 0 -0.1543,-4.77148 77.681592,76.013501 0 0 0 -0.4589,-4.75391 77.681592,76.013501 0 0 0 -0.7637,-4.7168 77.681592,76.013501 0 0 0 -1.0645,-4.66015 77.681592,76.013501 0 0 0 -1.3613,-4.58594 77.681592,76.013501 0 0 0 -1.6523,-4.49414 77.681592,76.013501 0 0 0 -1.9375,-4.38086 77.681592,76.013501 0 0 0 -2.2168,-4.25586 77.681592,76.013501 0 0 0 -2.4844,-4.10937 77.681592,76.013501 0 0 0 -0.7149,-1.03125 z" />
        <path
           id="path11483"
           style="opacity:1;fill:none;stroke:#000000;stroke-width:0.219024;stroke-dasharray:none"
           d="m 1207.0702,396.55581 a 48.924357,47.419515 0 0 0 -3.4355,-1.16602 77.681592,76.013501 0 0 1 0.3574,0.45117 77.681592,76.013501 0 0 1 2.0273,2.91993 77.681592,76.013501 0 0 0 1.0508,-2.20508 z" />
        <path
           id="path11485"
           style="opacity:1;fill:none;stroke:#000000;stroke-width:0.219024;stroke-dasharray:none"
           d="m 1219.5502,441.51632 a 29.221476,28.593984 0 0 1 -0.024,-1.14516 29.221476,28.593984 0 0 1 1.4316,-8.83594 29.221476,28.593984 0 0 1 4.1504,-7.9707 29.221476,28.593984 0 0 1 6.4649,-6.32617 29.221476,28.593984 0 0 1 0.3007,-0.15039 48.924357,47.419515 0 0 0 -4.0742,-6.28125 48.924357,47.419515 0 0 0 -7.7461,-7.50781 48.924357,47.419515 0 0 0 -9.2754,-5.65039 48.924357,47.419515 0 0 0 -3.6621,-1.24219 v 0 a 77.681592,76.013501 0 0 1 -1.0508,2.20508 77.681592,76.013501 0 0 1 0.7149,1.03125 77.681592,76.013501 0 0 1 2.4844,4.10937 77.681592,76.013501 0 0 1 2.2168,4.25586 77.681592,76.013501 0 0 1 1.9375,4.38086 77.681592,76.013501 0 0 1 1.6523,4.49414 77.681592,76.013501 0 0 1 1.3613,4.58594 77.681592,76.013501 0 0 1 1.0645,4.66015 77.681592,76.013501 0 0 1 0.7637,4.7168 77.681592,76.013501 0 0 1 0.4589,4.75391 77.681592,76.013501 0 0 1 0.1543,4.77148 48.924357,47.419515 0 0 1 -0.014,1.1447" />
        <path
           id="path11487"
           style="opacity:1;fill:none;stroke:#000000;stroke-width:0.219024;stroke-dasharray:none"
           d="m 1218.4604,441.48857 a 48.924357,47.419515 0 0 1 -0.1362,2.57601 48.924357,47.419515 0 0 1 -0.4532,3.69726 48.924357,47.419515 0 0 1 -0.1054,0.51367 77.681592,76.013501 0 0 1 -0.4707,5.26953 77.681592,76.013501 0 0 1 -3.5059,12.79688 77.681592,76.013501 0 0 1 -5.7227,12.00976 77.681592,76.013501 0 0 1 -5.3847,7.5254 48.924357,47.419515 0 0 0 1.5879,-0.4336 48.924357,47.419515 0 0 0 3.6035,-1.28906 48.924357,47.419515 0 0 0 3.4883,-1.55859 48.924357,47.419515 0 0 0 3.3515,-1.81836 48.924357,47.419515 0 0 0 3.1953,-2.07032 48.924357,47.419515 0 0 0 3.0157,-2.30468 48.924357,47.419515 0 0 0 1.9746,-1.76758 77.681592,76.013501 0 0 0 6.625,-9.25781 77.681592,76.013501 0 0 0 1.1425,-2.39649 29.221476,28.593984 0 0 1 -5.957,-5.82812 29.221476,28.593984 0 0 1 -4.1504,-7.97266 29.221476,28.593984 0 0 1 -1.408,-7.69078" />
        <path
           id="path11489"
           style="opacity:1;fill:none;stroke:#000000;stroke-width:0.219024;stroke-dasharray:none"
           d="m 1214.1874,370.93276 a 77.681592,76.013501 0 0 0 -1.6523,-1.61523 77.681592,76.013501 0 0 0 -11.0918,-7.59961 77.681592,76.013501 0 0 0 -12.2735,-5.59961 77.681592,76.013501 0 0 0 -13.0781,-3.42969 77.681592,76.013501 0 0 0 -13.4902,-1.15625 77.681592,76.013501 0 0 0 -13.4883,1.15625 77.681592,76.013501 0 0 0 -13.0801,3.42969 77.681592,76.013501 0 0 0 -12.2715,5.59961 77.681592,76.013501 0 0 0 -11.0918,7.59961 77.681592,76.013501 0 0 0 -1.2363,1.21093 77.681592,76.013501 0 0 1 3.1445,-1.43554 77.681592,76.013501 0 0 1 13.0782,-3.42969 77.681592,76.013501 0 0 1 13.4902,-1.1543 77.681592,76.013501 0 0 1 4.877,0.14844 77.681592,76.013501 0 0 1 4.8593,0.44922 77.681592,76.013501 0 0 1 4.8203,0.74805 77.681592,76.013501 0 0 1 4.7618,1.04101 77.681592,76.013501 0 0 1 4.6855,1.33203 77.681592,76.013501 0 0 1 4.5918,1.61914 77.681592,76.013501 0 0 1 4.4785,1.89649 77.681592,76.013501 0 0 1 4.3496,2.16797 77.681592,76.013501 0 0 1 4.1992,2.42968 77.681592,76.013501 0 0 1 4.0372,2.6836 77.681592,76.013501 0 0 1 3.8554,2.92773 77.681592,76.013501 0 0 1 3.6602,3.15821 77.681592,76.013501 0 0 1 3.4512,3.37695 77.681592,76.013501 0 0 1 3.2265,3.58203 77.681592,76.013501 0 0 1 2.6348,3.32031 48.924357,47.419515 0 0 1 3.4355,1.16602 77.681592,76.013501 0 0 0 3.0332,-6.36524 77.681592,76.013501 0 0 0 3.5059,-12.79882 77.681592,76.013501 0 0 0 0.5781,-6.45899 z" />
        <path
           id="path11491"
           style="opacity:1;fill:none;stroke:#000000;stroke-width:0.219024;stroke-dasharray:none"
           d="m 1214.1874,370.93276 a 77.681592,76.013501 0 0 1 -0.5781,6.45899 77.681592,76.013501 0 0 1 -3.5059,12.79882 77.681592,76.013501 0 0 1 -3.0332,6.36524 48.924357,47.419515 0 0 1 3.6621,1.24219 48.924357,47.419515 0 0 1 9.2754,5.65039 48.924357,47.419515 0 0 1 7.7461,7.50781 48.924357,47.419515 0 0 1 4.0742,6.28125 29.221476,28.593984 0 0 1 7.0977,-3.53906 77.681592,76.013501 0 0 0 -3.3262,-12.15039 77.681592,76.013501 0 0 0 -5.7226,-12.00782 77.681592,76.013501 0 0 0 -7.7676,-10.85351 77.681592,76.013501 0 0 0 -7.9219,-7.75391 z" />
        <path
           id="path11493"
           style="opacity:1;fill:none;stroke:#000000;stroke-width:0.219024;stroke-dasharray:none"
           d="m 1137.1073,288.17886 a 77.681592,76.013501 0 0 0 -13.4882,1.15429 77.681592,76.013501 0 0 0 -13.0801,3.42969 77.681592,76.013501 0 0 0 -12.2715,5.59961 77.681592,76.013501 0 0 0 -11.0918,7.59961 77.681592,76.013501 0 0 0 -9.5762,9.36914 77.681592,76.013501 0 0 0 -7.7656,10.85351 77.681592,76.013501 0 0 0 -5.7227,12.00782 77.681592,76.013501 0 0 0 -3.5058,12.79883 77.681592,76.013501 0 0 0 -1.1797,13.20117 77.681592,76.013501 0 0 0 0.055,0.60937 77.681592,76.013501 0 0 1 3.418,-0.29297 77.681592,76.013501 0 0 1 13.4882,1.1543 77.681592,76.013501 0 0 1 13.0801,3.42969 77.681592,76.013501 0 0 1 12.2715,5.59961 77.681592,76.013501 0 0 1 0.2832,0.19336 77.681592,76.013501 0 0 1 0.2832,-0.19336 77.681592,76.013501 0 0 1 9.1289,-4.16407 77.681592,76.013501 0 0 1 1.2363,-1.21093 77.681592,76.013501 0 0 1 11.0918,-7.59961 77.681592,76.013501 0 0 1 12.2715,-5.59961 77.681592,76.013501 0 0 1 13.0801,-3.42969 77.681592,76.013501 0 0 1 13.4883,-1.15625 77.681592,76.013501 0 0 1 13.4902,1.15625 77.681592,76.013501 0 0 1 13.0781,3.42969 77.681592,76.013501 0 0 1 12.2735,5.59961 77.681592,76.013501 0 0 1 11.0918,7.59961 77.681592,76.013501 0 0 1 1.6523,1.61523 77.681592,76.013501 0 0 0 0.6016,-6.74023 77.681592,76.013501 0 0 0 -0.1524,-4.77344 77.681592,76.013501 0 0 0 -0.4609,-4.75391 77.681592,76.013501 0 0 0 -0.7617,-4.71679 77.681592,76.013501 0 0 0 -1.0645,-4.66016 77.681592,76.013501 0 0 0 -1.3633,-4.58594 77.681592,76.013501 0 0 0 -1.6523,-4.49218 77.681592,76.013501 0 0 0 -1.9375,-4.38282 77.681592,76.013501 0 0 0 -2.2168,-4.25586 77.681592,76.013501 0 0 0 -2.4824,-4.10937 77.681592,76.013501 0 0 0 -2.7442,-3.94922 77.681592,76.013501 0 0 0 -2.9902,-3.77344 77.681592,76.013501 0 0 0 -3.2285,-3.58203 77.681592,76.013501 0 0 0 -3.4492,-3.37695 77.681592,76.013501 0 0 0 -3.6621,-3.15821 77.681592,76.013501 0 0 0 -3.8555,-2.92773 77.681592,76.013501 0 0 0 -4.0352,-2.68359 77.681592,76.013501 0 0 0 -4.2011,-2.42969 77.681592,76.013501 0 0 0 -4.3477,-2.16797 77.681592,76.013501 0 0 0 -4.4805,-1.89648 77.681592,76.013501 0 0 0 -4.5898,-1.61914 77.681592,76.013501 0 0 0 -4.6875,-1.33204 77.681592,76.013501 0 0 0 -4.7617,-1.04101 77.681592,76.013501 0 0 0 -4.8203,-0.7461 77.681592,76.013501 0 0 0 -4.8594,-0.45117 77.681592,76.013501 0 0 0 -4.877,-0.14843 z" />
      </g>
      <g
         id="g11515"
         transform="translate(-325.4939,26)"
         style="stroke-width:0.438047">
        <path
           id="path11497"
           style="opacity:1;fill:#ffffff;stroke:#000000;stroke-width:0;stroke-dasharray:none"
           d="m 1833.703,509.23354 a 9.8514361,9.5484239 0 0 0 -4.9257,1.2793 9.8514361,9.5484239 0 0 0 -3.6055,3.49609 9.8514361,9.5484239 0 0 0 -1.3203,4.77344 9.8514361,9.5484239 0 0 0 1.3203,4.77344 9.8514361,9.5484239 0 0 0 3.6055,3.49609 9.8514361,9.5484239 0 0 0 4.9257,1.2793 9.8514361,9.5484239 0 0 0 1.711,-0.14453 9.8514361,9.5484239 0 0 0 1.6582,-0.43164 9.8514361,9.5484239 0 0 0 1.5566,-0.70313 9.8514361,9.5484239 0 0 0 1.4082,-0.95508 9.8514361,9.5484239 0 0 0 1.2129,-1.17578 9.8514361,9.5484239 0 0 0 0.9844,-1.36523 9.8514361,9.5484239 0 0 0 0.7266,-1.50781 9.8514361,9.5484239 0 0 0 0.4453,-1.60743 9.8514361,9.5484239 0 0 0 0.1484,-1.6582 9.8514361,9.5484239 0 0 0 -1.3203,-4.77344 9.8514361,9.5484239 0 0 0 -3.6055,-3.49609 9.8514361,9.5484239 0 0 0 -4.9258,-1.2793 z" />
        <path
           id="path11499"
           style="opacity:1;fill:#ff0000;stroke:#000000;stroke-width:0;stroke-dasharray:none"
           d="m 1872.1191,554.45229 a 48.924357,47.419515 0 0 0 0.1054,-0.51367 48.924357,47.419515 0 0 0 0.4532,-3.69726 48.924357,47.419515 0 0 0 0.1503,-3.72071 77.681592,76.013501 0 0 1 -0.7089,7.93164 z" />
        <path
           id="path11501"
           style="opacity:1;fill:url(#linearGradient11517);fill-opacity:1;stroke:#000000;stroke-width:0;stroke-dasharray:none"
           d="m 1739.5234,526.80386 a 77.681592,76.013501 0 0 0 -0.6036,6.74218 77.681592,76.013501 0 0 0 1.1817,13.20117 77.681592,76.013501 0 0 0 3.5039,12.79688 77.681592,76.013501 0 0 0 5.7226,12.00977 77.681592,76.013501 0 0 0 7.7657,10.85351 77.681592,76.013501 0 0 0 9.5761,9.36914 77.681592,76.013501 0 0 0 7.8946,5.4082 77.681592,76.013501 0 0 0 3.1972,2.19141 77.681592,76.013501 0 0 0 12.2715,5.59961 77.681592,76.013501 0 0 0 13.0801,3.42969 77.681592,76.013501 0 0 0 13.4883,1.15429 77.681592,76.013501 0 0 0 13.4902,-1.15429 77.681592,76.013501 0 0 0 13.0781,-3.42969 77.681592,76.013501 0 0 0 3.1446,-1.43555 77.681592,76.013501 0 0 0 8.3398,-8.1582 77.681592,76.013501 0 0 0 2.3809,-3.32812 77.681592,76.013501 0 0 0 5.3847,-7.5254 77.681592,76.013501 0 0 0 5.7227,-12.00976 77.681592,76.013501 0 0 0 3.5059,-12.79688 77.681592,76.013501 0 0 0 0.4707,-5.26953 48.924357,47.419515 0 0 1 -0.6426,3.13867 48.924357,47.419515 0 0 1 -1.043,3.58399 48.924357,47.419515 0 0 1 -1.3301,3.49414 48.924357,47.419515 0 0 1 -1.6074,3.38086 48.924357,47.419515 0 0 1 -1.8769,3.24805 48.924357,47.419515 0 0 1 -2.1348,3.0957 48.924357,47.419515 0 0 1 -2.3789,2.92383 48.924357,47.419515 0 0 1 -2.6074,2.73437 48.924357,47.419515 0 0 1 -2.8203,2.52735 48.924357,47.419515 0 0 1 -3.0176,2.30468 48.924357,47.419515 0 0 1 -3.1934,2.07032 48.924357,47.419515 0 0 1 -3.3515,1.81836 48.924357,47.419515 0 0 1 -3.4903,1.55859 48.924357,47.419515 0 0 1 -3.6035,1.28906 48.924357,47.419515 0 0 1 -3.6973,1.00977 48.924357,47.419515 0 0 1 -1.3847,0.26758 48.924357,47.419515 0 0 1 -2.3828,0.45898 48.924357,47.419515 0 0 1 -3.8145,0.4375 48.924357,47.419515 0 0 1 -3.8379,0.14648 48.924357,47.419515 0 0 1 -10.8867,-1.1875 48.924357,47.419515 0 0 1 -10.3418,-3.50781 48.924357,47.419515 0 0 1 -9.2754,-5.65039 48.924357,47.419515 0 0 1 -6.0078,-5.82226 48.924357,47.419515 0 0 1 -1.7402,-1.68555 48.924357,47.419515 0 0 1 -5.8282,-8.99024 48.924357,47.419515 0 0 1 -3.6191,-10.02343 48.924357,47.419515 0 0 1 -1.2266,-10.55274 48.924357,47.419515 0 0 1 0.2442,-2.09961 77.681592,76.013501 0 0 1 -10.6836,-2.80078 77.681592,76.013501 0 0 1 -12.2715,-5.59961 77.681592,76.013501 0 0 1 -11.0918,-7.59961 77.681592,76.013501 0 0 1 -1.6523,-1.61718 z m 98.6445,66.75976 a 48.924357,47.419515 0 0 0 1.0644,0.11719 48.924357,47.419515 0 0 1 -1.0644,-0.11719 z" />
        <path
           id="path11503"
           style="opacity:1;fill:url(#linearGradient11519);fill-opacity:1;stroke:#000000;stroke-width:0;stroke-dasharray:none"
           d="m 1775.2226,544.42104 a 48.924357,47.419515 0 0 0 -0.2442,2.09961 48.924357,47.419515 0 0 0 1.2266,10.55274 48.924357,47.419515 0 0 0 3.6191,10.02343 48.924357,47.419515 0 0 0 5.8282,8.99024 48.924357,47.419515 0 0 0 1.7402,1.68555 48.924357,47.419515 0 0 0 6.0078,5.82226 48.924357,47.419515 0 0 0 9.2754,5.65039 48.924357,47.419515 0 0 0 10.3418,3.50781 48.924357,47.419515 0 0 0 10.8867,1.1875 48.924357,47.419515 0 0 0 3.8379,-0.14648 48.924357,47.419515 0 0 0 3.8145,-0.4375 48.924357,47.419515 0 0 0 2.3828,-0.45898 48.924357,47.419515 0 0 1 -1.3223,-0.14454 48.924357,47.419515 0 0 1 -10.3398,-3.50781 48.924357,47.419515 0 0 1 -9.2774,-5.65039 48.924357,47.419515 0 0 1 -7.7461,-7.50781 48.924357,47.419515 0 0 1 -5.8281,-8.99024 48.924357,47.419515 0 0 1 -3.6191,-10.02343 48.924357,47.419515 0 0 1 -1.2266,-10.55274 77.681592,76.013501 0 0 0 -0.055,-0.60937 77.681592,76.013501 0 0 1 -3.418,0.29297 77.681592,76.013501 0 0 1 -13.4882,-1.1543 77.681592,76.013501 0 0 1 -2.3965,-0.62891 z m 19.3574,2.37305 a 77.681592,76.013501 0 0 1 0,0.26367 77.681592,76.013501 0 0 0 0,-0.26367 z m -0.021,1.51953 a 77.681592,76.013501 0 0 1 0,0.17969 77.681592,76.013501 0 0 0 0,-0.17969 z m -0.084,2.17188 a 77.681592,76.013501 0 0 1 -0.016,0.27343 77.681592,76.013501 0 0 0 0.016,-0.27343 z m -0.049,0.82031 a 77.681592,76.013501 0 0 1 -0.01,0.10937 77.681592,76.013501 0 0 0 0.01,-0.10937 z m -0.037,0.54492 a 77.681592,76.013501 0 0 1 -0.01,0.13672 77.681592,76.013501 0 0 0 0.01,-0.13672 z m -0.1094,1.36914 a 77.681592,76.013501 0 0 1 -0.023,0.23633 77.681592,76.013501 0 0 0 0.023,-0.23633 z m -0.094,0.94727 a 77.681592,76.013501 0 0 1 -0.014,0.13672 77.681592,76.013501 0 0 0 0.014,-0.13672 z" />
        <path
           id="path11505"
           style="opacity:1;fill:url(#linearGradient11521);fill-opacity:1;stroke:#000000;stroke-width:0;stroke-dasharray:none"
           d="m 1756.0214,612.15737 a 77.681592,76.013501 0 0 0 0.2832,0.19336 77.681592,76.013501 0 0 0 12.2734,5.59961 77.681592,76.013501 0 0 0 13.0782,3.42969 77.681592,76.013501 0 0 0 13.4902,1.15429 77.681592,76.013501 0 0 0 13.4883,-1.15429 77.681592,76.013501 0 0 0 13.0801,-3.42969 77.681592,76.013501 0 0 0 12.2714,-5.59961 77.681592,76.013501 0 0 0 11.0918,-7.59961 77.681592,76.013501 0 0 0 1.2364,-1.21094 77.681592,76.013501 0 0 1 -3.1446,1.43555 77.681592,76.013501 0 0 1 -13.0781,3.42969 77.681592,76.013501 0 0 1 -13.4902,1.15429 77.681592,76.013501 0 0 1 -13.4883,-1.15429 77.681592,76.013501 0 0 1 -13.0801,-3.42969 77.681592,76.013501 0 0 1 -12.2715,-5.59961 77.681592,76.013501 0 0 1 -3.1972,-2.19141 77.681592,76.013501 0 0 1 -7.7344,7.56641 77.681592,76.013501 0 0 1 -10.8086,7.40625 z" />
        <path
           id="path11507"
           style="opacity:1;fill:#ff0000;stroke:#000000;stroke-width:0;stroke-dasharray:none"
           d="m 1794.6523,545.90151 a 77.681592,76.013501 0 0 1 -0.127,0.01 77.681592,76.013501 0 0 1 0.055,0.60937 48.924357,47.419515 0 0 1 0.072,-0.61914 z" />
        <path
           id="path11509"
           style="opacity:1;fill:url(#linearGradient11523);fill-opacity:1;stroke:#000000;stroke-width:0;stroke-dasharray:none"
           d="m 1833.703,500.17104 a 48.924357,47.419515 0 0 0 -1.0859,0.11914 48.924357,47.419515 0 0 0 -10.3398,3.50782 48.924357,47.419515 0 0 0 -9.2774,5.65039 48.924357,47.419515 0 0 0 -7.7461,7.50781 48.924357,47.419515 0 0 0 -5.8281,8.99023 48.924357,47.419515 0 0 0 -3.6191,10.02344 48.924357,47.419515 0 0 0 -1.1543,9.93164 48.924357,47.419515 0 0 0 -0.072,0.61914 48.924357,47.419515 0 0 0 1.2266,10.55274 48.924357,47.419515 0 0 0 3.6191,10.02343 48.924357,47.419515 0 0 0 5.8281,8.99024 48.924357,47.419515 0 0 0 7.7461,7.50781 48.924357,47.419515 0 0 0 9.2774,5.65039 48.924357,47.419515 0 0 0 10.3398,3.50781 48.924357,47.419515 0 0 0 1.3223,0.14454 48.924357,47.419515 0 0 0 1.3847,-0.26758 48.924357,47.419515 0 0 0 3.6973,-1.00977 48.924357,47.419515 0 0 0 3.6035,-1.28906 48.924357,47.419515 0 0 0 3.4903,-1.55859 48.924357,47.419515 0 0 0 3.3515,-1.81836 48.924357,47.419515 0 0 0 3.1934,-2.07032 48.924357,47.419515 0 0 0 3.0176,-2.30468 48.924357,47.419515 0 0 0 2.8203,-2.52735 48.924357,47.419515 0 0 0 2.6074,-2.73437 48.924357,47.419515 0 0 0 2.3789,-2.92383 48.924357,47.419515 0 0 0 2.1348,-3.0957 48.924357,47.419515 0 0 0 1.8769,-3.24805 48.924357,47.419515 0 0 0 1.6074,-3.38086 48.924357,47.419515 0 0 0 1.3301,-3.49414 48.924357,47.419515 0 0 0 1.043,-3.58399 48.924357,47.419515 0 0 0 0.6426,-3.13867 77.681592,76.013501 0 0 0 0.7089,-7.93164 48.924357,47.419515 0 0 0 -1.2265,-10.55078 48.924357,47.419515 0 0 0 -3.6192,-10.02344 48.924357,47.419515 0 0 0 -5.8281,-8.99023 48.924357,47.419515 0 0 0 -5.9277,-5.74609 48.924357,47.419515 0 0 0 -1.8184,-1.76172 48.924357,47.419515 0 0 0 -9.2773,-5.65039 48.924357,47.419515 0 0 0 -10.3399,-3.50782 48.924357,47.419515 0 0 0 -1.0879,-0.11914 z m 0,9.0625 a 9.8514361,9.5484239 0 0 1 4.9258,1.2793 9.8514361,9.5484239 0 0 1 3.6055,3.49609 9.8514361,9.5484239 0 0 1 1.3203,4.77344 9.8514361,9.5484239 0 0 1 -0.1484,1.6582 9.8514361,9.5484239 0 0 1 -0.4453,1.60743 9.8514361,9.5484239 0 0 1 -0.7266,1.50781 9.8514361,9.5484239 0 0 1 -0.9844,1.36523 9.8514361,9.5484239 0 0 1 -1.2129,1.17578 9.8514361,9.5484239 0 0 1 -1.4082,0.95508 9.8514361,9.5484239 0 0 1 -1.5566,0.70313 9.8514361,9.5484239 0 0 1 -1.6582,0.43164 9.8514361,9.5484239 0 0 1 -1.711,0.14453 9.8514361,9.5484239 0 0 1 -4.9257,-1.2793 9.8514361,9.5484239 0 0 1 -3.6055,-3.49609 9.8514361,9.5484239 0 0 1 -1.3203,-4.77344 9.8514361,9.5484239 0 0 1 1.3203,-4.77344 9.8514361,9.5484239 0 0 1 3.6055,-3.49609 9.8514361,9.5484239 0 0 1 4.9257,-1.2793 z" />
        <path
           id="path11511"
           style="opacity:1;fill:url(#linearGradient11525);fill-opacity:1;stroke:#000000;stroke-width:0;stroke-dasharray:none"
           d="m 1843.5038,499.10268 a 48.924357,47.419515 0 0 0 -9.8008,1.06836 48.924357,47.419515 0 0 1 1.0879,0.11914 48.924357,47.419515 0 0 1 10.3399,3.50782 48.924357,47.419515 0 0 1 9.2773,5.65039 48.924357,47.419515 0 0 1 1.8184,1.76172 48.924357,47.419515 0 0 1 5.9277,5.74609 48.924357,47.419515 0 0 1 5.8281,8.99023 48.924357,47.419515 0 0 1 3.6192,10.02344 48.924357,47.419515 0 0 1 1.2265,10.55078 77.681592,76.013501 0 0 0 -0.1543,-4.77148 77.681592,76.013501 0 0 0 -0.4589,-4.75391 77.681592,76.013501 0 0 0 -0.7637,-4.7168 77.681592,76.013501 0 0 0 -1.0645,-4.66015 77.681592,76.013501 0 0 0 -1.3613,-4.58594 77.681592,76.013501 0 0 0 -1.6523,-4.49414 77.681592,76.013501 0 0 0 -1.9375,-4.38086 77.681592,76.013501 0 0 0 -2.2168,-4.25586 77.681592,76.013501 0 0 0 -2.4844,-4.10937 77.681592,76.013501 0 0 0 -0.7149,-1.03125 77.681592,76.013501 0 0 0 -2.0273,-2.91993 77.681592,76.013501 0 0 0 -0.3574,-0.45117 48.924357,47.419515 0 0 0 -3.2442,-1.09961 48.924357,47.419515 0 0 0 -10.8867,-1.1875 z" />
        <path
           id="path11513"
           style="opacity:1;fill:url(#linearGradient11527);fill-opacity:1;stroke:#000000;stroke-width:0;stroke-dasharray:none"
           d="m 1857.6347,501.38979 a 77.681592,76.013501 0 0 1 0.3574,0.45117 77.681592,76.013501 0 0 1 2.0273,2.91993 77.681592,76.013501 0 0 0 0.062,-0.12696 77.681592,76.013501 0 0 1 0.6973,1.00782 77.681592,76.013501 0 0 1 2.4844,4.10937 77.681592,76.013501 0 0 1 2.2168,4.25586 77.681592,76.013501 0 0 1 1.9375,4.38086 77.681592,76.013501 0 0 1 1.6523,4.49414 77.681592,76.013501 0 0 1 1.3614,4.58594 77.681592,76.013501 0 0 1 1.0644,4.66015 77.681592,76.013501 0 0 1 0.7637,4.7168 77.681592,76.013501 0 0 1 0.459,4.75391 77.681592,76.013501 0 0 1 0.1543,4.77148 48.924357,47.419515 0 0 1 -0.014,1.14649 h 0.6914 a 29.221476,28.593984 0 0 1 -0.025,-1.14649 29.221476,28.593984 0 0 1 1.4316,-8.83594 29.221476,28.593984 0 0 1 4.1504,-7.9707 29.221476,28.593984 0 0 1 6.4649,-6.32617 29.221476,28.593984 0 0 1 0.3008,-0.15039 48.924357,47.419515 0 0 0 -4.0743,-6.28125 48.924357,47.419515 0 0 0 -7.746,-7.50781 48.924357,47.419515 0 0 0 -9.2754,-5.65039 48.924357,47.419515 0 0 0 -3.6621,-1.24219 77.681592,76.013501 0 0 1 -0.068,0.14258 48.924357,47.419515 0 0 0 -3.4121,-1.15821 z" />
      </g>
    </g>
  </g>
</svg>
