<?xml version="1.0" encoding="UTF-8" standalone="no"?>
<!-- Created with Inkscape (http://www.inkscape.org/) -->

<svg
   width="1920"
   height="1080"
   viewBox="0 0 508.00102 285.75057"
   version="1.1"
   id="svg8244"
   inkscape:version="1.2.2 (b0a8486541, 2022-12-01)"
   sodipodi:docname="LineStyleLetters.svg"
   xmlns:inkscape="http://www.inkscape.org/namespaces/inkscape"
   xmlns:sodipodi="http://sodipodi.sourceforge.net/DTD/sodipodi-0.dtd"
   xmlns:xlink="http://www.w3.org/1999/xlink"
   xmlns="http://www.w3.org/2000/svg"
   xmlns:svg="http://www.w3.org/2000/svg">
  <sodipodi:namedview
     id="namedview8246"
     pagecolor="#ffffff"
     bordercolor="#111111"
     borderopacity="1"
     inkscape:showpageshadow="0"
     inkscape:pageopacity="0"
     inkscape:pagecheckerboard="false"
     inkscape:deskcolor="#ffffff"
     inkscape:document-units="px"
     showgrid="true"
     showborder="true"
     inkscape:zoom="0.36"
     inkscape:cx="1204.1667"
     inkscape:cy="780.55556"
     inkscape:window-width="1418"
     inkscape:window-height="1010"
     inkscape:window-x="0"
     inkscape:window-y="0"
     inkscape:window-maximized="0"
     inkscape:current-layer="layer1" />
  <defs
     id="defs8241">
    <linearGradient
       inkscape:collect="always"
       id="linearGradient87830">
      <stop
         style="stop-color:#7b4a00;stop-opacity:1"
         offset="0"
         id="stop87826" />
      <stop
         style="stop-color:#ffb748;stop-opacity:1"
         offset="1"
         id="stop87828" />
    </linearGradient>
    <linearGradient
       inkscape:collect="always"
       xlink:href="#linearGradient87830"
       id="linearGradient87832"
       x1="257.68997"
       y1="278.10446"
       x2="397.03006"
       y2="136.22859"
       gradientUnits="userSpaceOnUse"
       gradientTransform="translate(-73.879195,-65.070778)" />
  </defs>
  <g
     inkscape:label="Layer 1"
     inkscape:groupmode="layer"
     id="layer1">
    <rect
       style="opacity:0.10461538;fill:#cccca5;fill-opacity:1;stroke:none;stroke-width:2.64584;stroke-linecap:round;stroke-linejoin:round;stroke-dasharray:none;stroke-opacity:1;paint-order:stroke fill markers"
       id="rect92993"
       width="139.85977"
       height="141.89203"
       x="257.94983"
       y="137.00005" />
    <path
       id="path79606"
       style="color:#000000;fill:url(#linearGradient87832);fill-opacity:1;stroke-linecap:round;stroke-linejoin:round;-inkscape-stroke:none;paint-order:stroke fill markers"
       d="m 187.06198,71.929402 c -0.35107,2.9e-4 -0.68741,0.14005 -0.93534,0.38861 l -2.01384,3.88452 c -0.51676,0.51666 3.88505,-2.01331 3.88505,-2.01331 0.51677,-0.51666 0.51677,-1.35455 0,-1.87121 -0.24792,-0.24856 -0.58481,-0.38832 -0.93587,-0.38861 z m 8.27342,0 c -0.35106,2.9e-4 -0.68743,0.14005 -0.93535,0.38861 l -10.28725,12.15794 c -0.51676,0.51666 12.15846,-10.28673 12.15846,-10.28673 0.51677,-0.51666 0.51677,-1.35455 0,-1.87121 -0.24793,-0.24856 -0.58479,-0.38832 -0.93586,-0.38861 z m 8.27393,0 c -0.35107,2.9e-4 -0.68793,0.14005 -0.93586,0.38861 l -18.56067,20.43135 c -0.51676,0.51665 20.43187,-18.56014 20.43187,-18.56014 0.51677,-0.51666 0.51677,-1.35455 0,-1.87121 -0.24793,-0.24856 -0.58427,-0.38832 -0.93534,-0.38861 z m 8.27341,0 c -0.35107,2.9e-4 -0.68793,0.14005 -0.93586,0.38861 l -26.83511,28.704758 c -0.51677,0.51666 28.70632,-26.833548 28.70632,-26.833548 0.51677,-0.51666 0.51677,-1.35455 0,-1.87121 -0.24793,-0.24856 -0.58428,-0.38832 -0.93535,-0.38861 z m 8.27341,0 c -0.35107,2.9e-4 -0.68793,0.14005 -0.93586,0.38861 L 184.1128,109.29722 c -0.51546,0.51643 36.9787,-35.107998 36.9787,-35.107998 0.51677,-0.51666 0.51677,-1.35455 0,-1.87121 -0.24792,-0.24856 -0.58429,-0.38832 -0.93535,-0.38861 z m 57.88496,0 c -0.33914,0.009 -0.66262,0.14782 -0.90279,0.38861 l -0.69608,2.56625 c -0.51676,0.51666 2.56729,-0.69504 2.56729,-0.69504 0.51677,-0.51666 0.51677,-1.35455 0,-1.87121 -0.24793,-0.24856 -0.5848,-0.38832 -0.93586,-0.38861 -0.011,1e-5 -0.0216,-2.8e-4 -0.0326,0 z m 8.30649,0 c -0.35106,2.9e-4 -0.68795,0.14005 -0.93587,0.38861 l -8.96846,10.83967 c -0.51677,0.51666 10.83967,-8.96846 10.83967,-8.96846 0.51677,-0.51666 0.51677,-1.35455 0,-1.87121 -0.24793,-0.24856 -0.58428,-0.38832 -0.93534,-0.38861 z m 16.54682,0 c -0.35107,2.9e-4 -0.68793,0.14005 -0.93586,0.38861 l -25.51529,27.38753 c -0.51547,0.516428 27.3865,-25.51632 27.3865,-25.51632 0.51677,-0.51666 0.51677,-1.35455 0,-1.87121 -0.24792,-0.24856 -0.58429,-0.38832 -0.93535,-0.38861 z m 8.27497,0 c -0.35107,2.9e-4 -0.68742,0.14005 -0.93535,0.38861 l -33.79077,35.661978 c -0.51678,0.51665 35.66198,-33.790768 35.66198,-33.790768 0.51677,-0.51666 0.51677,-1.35455 0,-1.87121 -0.24792,-0.24856 -0.5848,-0.38832 -0.93586,-0.38861 z m 8.27393,0 c -0.35107,2.9e-4 -0.68794,0.14005 -0.93587,0.38861 L 276.44224,116.2534 c -0.51677,0.51666 43.93642,-42.064178 43.93642,-42.064178 0.51677,-0.51666 0.51677,-1.35455 0,-1.87121 -0.24792,-0.24856 -0.58428,-0.38832 -0.93534,-0.38861 z m -24.82231,0.001 c -0.33861,0 -0.67753,0.12919 -0.93586,0.38758 l -17.24291,19.11308 c -0.51676,0.51666 19.11411,-17.24187 19.11411,-17.24187 0.51677,-0.51666 0.51677,-1.35455 0,-1.87121 -0.25833,-0.25839 -0.59673,-0.38758 -0.93534,-0.38758 z m -69.11944,2.92851 c -0.35078,-2.3e-4 -0.6871,0.1387 -0.93534,0.38654 L 184.1128,117.57164 c -0.51676,0.51666 42.32464,-40.454978 42.32464,-40.454978 0.51676,-0.51666 0.51676,-1.35455 0,-1.87121 -0.24824,-0.24784 -0.58508,-0.38677 -0.93587,-0.38654 z m 97.10538,2.18075 c -0.3386,0 -0.67701,0.1292 -0.93534,0.38758 l -45.22834,47.099538 c -0.51677,0.51666 47.09955,-45.228338 47.09955,-45.228338 0.51675,-0.51665 0.51675,-1.35454 0,-1.8712 -0.25833,-0.25838 -0.59726,-0.38758 -0.93587,-0.38758 z m -93.33557,2.32235 c -0.33861,0 -0.67753,0.12919 -0.93586,0.38757 L 184.1128,125.84505 c -0.51676,0.51666 46.09392,-44.224258 46.09392,-44.224258 0.51677,-0.51666 0.51677,-1.35455 0,-1.87121 -0.25833,-0.25838 -0.59673,-0.38757 -0.93534,-0.38757 z m 3.76928,4.50464 c -0.35078,-2.3e-4 -0.6871,0.1387 -0.93534,0.38654 L 184.1128,134.11846 c -0.51676,0.51666 49.86373,-47.994058 49.86373,-47.994058 0.51676,-0.51666 0.51676,-1.35455 0,-1.87121 -0.24824,-0.24784 -0.58508,-0.38677 -0.93587,-0.38654 z m 89.56629,1.44643 c -0.3386,0 -0.67701,0.12919 -0.93534,0.38757 L 276.44224,132.8002 c -0.51676,0.51666 47.10058,-45.228338 47.10058,-45.228338 0.51676,-0.51666 0.51676,-1.35455 0,-1.87121 -0.25833,-0.25838 -0.59726,-0.38757 -0.93587,-0.38757 z m -85.79648,3.0577 c -0.35106,2.9e-4 -0.68794,0.14004 -0.93586,0.3886 l -51.76284,53.632498 c -0.51677,0.51666 53.63404,-51.761288 53.63404,-51.761288 0.51676,-0.51666 0.51676,-1.35455 0,-1.87121 -0.24793,-0.24856 -0.58427,-0.38831 -0.93534,-0.3886 z m 3.76928,4.50464 c -0.3386,0 -0.67701,0.1292 -0.93534,0.38757 L 184.1128,150.66632 c -0.51546,0.51643 57.4023,-55.532118 57.4023,-55.532118 0.51677,-0.51666 0.51677,-1.35455 0,-1.87121 -0.25833,-0.25837 -0.59674,-0.38757 -0.93535,-0.38757 z m 82.0272,0.7121 c -0.35079,-2.3e-4 -0.6871,0.1387 -0.93534,0.38654 l -74.37907,76.250278 c -0.51678,0.51666 76.25028,-74.379068 76.25028,-74.379068 0.51676,-0.51666 0.51676,-1.35455 0,-1.87121 -0.24824,-0.24784 -0.58509,-0.38677 -0.93587,-0.38654 z m -78.25739,3.79306 c -0.35079,-2.3e-4 -0.68762,0.1387 -0.93586,0.38654 l -59.3009,61.173648 c -0.51677,0.51666 61.1721,-59.302438 61.1721,-59.302438 0.51676,-0.51666 0.51676,-1.35455 0,-1.87121 -0.24824,-0.24784 -0.58456,-0.38677 -0.93534,-0.38654 z m 78.25739,4.480358 c -0.35079,-2.3e-4 -0.6871,0.1387 -0.93534,0.38654 l -70.60927,72.48254 c -0.51678,0.51666 72.48048,-70.61134 72.48048,-70.61134 0.51675,-0.51665 0.51675,-1.35454 0,-1.8712 -0.24824,-0.24784 -0.58509,-0.38677 -0.93587,-0.38654 z m -74.48811,0.0233 c -0.35107,2.9e-4 -0.68741,0.14005 -0.93534,0.38861 l -63.0707,64.94138 c -0.51676,0.51666 64.94139,-63.07224 64.94139,-63.07224 0.51547,-0.51643 0.51547,-1.35271 0,-1.86914 -0.24792,-0.24856 -0.58429,-0.38832 -0.93535,-0.38861 z m 3.76929,4.50413 c -0.35107,2.9e-4 -0.68742,0.14005 -0.93534,0.38861 l -66.83999,68.71067 c -0.51676,0.51666 68.71119,-66.83947 68.71119,-66.83947 0.51676,-0.51666 0.51676,-1.35454 0,-1.8712 -0.24792,-0.24856 -0.58479,-0.38832 -0.93586,-0.38861 z m 70.71882,3.74706 c -0.3386,0 -0.67701,0.1292 -0.93534,0.38758 l -66.83998,68.71067 c -0.51676,0.51666 68.71119,-66.83946 68.71119,-66.83946 0.51675,-0.51666 0.51675,-1.35455 0,-1.87121 -0.25833,-0.25838 -0.59726,-0.38758 -0.93587,-0.38758 z m -66.94902,0.75862 c -0.35079,-2.3e-4 -0.6871,0.1387 -0.93534,0.38654 l -70.61082,72.48047 c -0.51677,0.51666 72.48151,-70.60927 72.48151,-70.60927 0.51677,-0.51666 0.51677,-1.35454 0,-1.8712 -0.24824,-0.24784 -0.58456,-0.38677 -0.93535,-0.38654 z m 3.76929,4.50412 c -0.35079,-2.3e-4 -0.6871,0.1387 -0.93534,0.38654 l -74.37908,76.2508 c -0.51547,0.51644 76.25028,-74.37959 76.25028,-74.37959 0.51676,-0.51666 0.51676,-1.35455 0,-1.87121 -0.24824,-0.24784 -0.58507,-0.38677 -0.93586,-0.38654 z m 63.17973,3.01068 c -0.3386,0 -0.67701,0.12919 -0.93534,0.38757 l -63.07018,64.94139 c -0.51676,0.51666 64.94139,-63.07018 64.94139,-63.07018 0.51675,-0.51666 0.51675,-1.35455 0,-1.87121 -0.25833,-0.25838 -0.59726,-0.38757 -0.93587,-0.38757 z m -59.40993,1.49293 c -0.35079,-2.3e-4 -0.68761,0.13922 -0.93586,0.38706 l -30.0468,31.91749 c -0.51676,0.51665 31.91801,-30.0468 31.91801,-30.0468 0.51677,-0.51666 0.51677,-1.35403 0,-1.87069 -0.24825,-0.24784 -0.58456,-0.38729 -0.93535,-0.38706 z m 3.76929,4.50413 c -0.35106,2.9e-4 -0.68743,0.14005 -0.93534,0.38861 l -30.04681,31.91801 c -0.51676,0.51666 31.91801,-30.04681 31.91801,-30.04681 0.51677,-0.51666 0.51677,-1.35454 0,-1.8712 -0.24793,-0.24856 -0.58479,-0.38832 -0.93586,-0.38861 z m 55.64064,2.27738 c -0.35079,-2.3e-4 -0.68709,0.1387 -0.93534,0.38654 l -59.30089,61.1721 c -0.51677,0.51666 61.1721,-59.30089 61.1721,-59.30089 0.51676,-0.51666 0.51676,-1.35455 0,-1.87121 -0.24824,-0.24784 -0.58509,-0.38677 -0.93587,-0.38654 z m -51.87084,2.2283 c -0.35078,-2.3e-4 -0.68762,0.1387 -0.93586,0.38654 l -30.0468,31.91801 c -0.51677,0.51666 31.91801,-30.04681 31.91801,-30.04681 0.51676,-0.51666 0.51676,-1.35454 0,-1.8712 -0.24824,-0.24784 -0.58456,-0.38677 -0.93535,-0.38654 z m 3.76929,4.50412 c -0.35079,-2.3e-4 -0.68711,0.1387 -0.93535,0.38654 l -30.0468,31.91802 c -0.51677,0.51666 31.91801,-30.04681 31.91801,-30.04681 0.51676,-0.51666 0.51676,-1.35455 0,-1.87121 -0.24824,-0.24784 -0.58508,-0.38677 -0.93586,-0.38654 z m 48.10155,1.541 c -0.35079,-2.3e-4 -0.6871,0.1387 -0.93534,0.38654 l -55.53109,57.40333 c -0.51547,0.51643 57.4023,-55.53212 57.4023,-55.53212 0.51676,-0.51666 0.51676,-1.35455 0,-1.87121 -0.24824,-0.24784 -0.58509,-0.38677 -0.93587,-0.38654 z m 0,8.27341 c -0.35079,-2.3e-4 -0.6871,0.1387 -0.93534,0.38654 l -51.76284,53.63508 c -0.51676,0.51666 53.63405,-51.76387 53.63405,-51.76387 0.51675,-0.51666 0.51675,-1.35455 0,-1.87121 -0.24824,-0.24784 -0.58509,-0.38677 -0.93587,-0.38654 z m 0,8.27341 c -0.35107,2.9e-4 -0.68741,0.14005 -0.93534,0.38861 l -47.99407,49.86321 c -0.51677,0.51666 49.86528,-47.992 49.86528,-47.992 0.51675,-0.51666 0.51675,-1.35455 0,-1.87121 -0.24792,-0.24856 -0.58481,-0.38832 -0.93587,-0.38861 z m -92.32995,1.31724 c -0.33861,0 -0.67701,0.12919 -0.93534,0.38757 l -45.22886,47.10162 c -0.51677,0.51665 47.09955,-45.23041 47.09955,-45.23041 0.51676,-0.51666 0.51676,-1.35455 0,-1.87121 -0.25833,-0.25838 -0.59674,-0.38757 -0.93535,-0.38757 z m 92.32995,6.95618 c -0.35107,2.9e-4 -0.68741,0.14005 -0.93534,0.38861 l -44.22478,46.09391 c -0.51676,0.51666 46.09599,-44.22271 46.09599,-44.22271 0.51675,-0.51666 0.51675,-1.35455 0,-1.8712 -0.24792,-0.24856 -0.58481,-0.38832 -0.93587,-0.38861 z m -92.32995,1.31827 c -0.35107,2.9e-4 -0.68741,0.14004 -0.93534,0.3886 l -45.22886,47.09955 c -0.51676,0.51665 47.09955,-45.22834 47.09955,-45.22834 0.51676,-0.51666 0.51676,-1.35455 0,-1.87121 -0.24793,-0.24856 -0.58428,-0.38831 -0.93535,-0.3886 z m 92.32995,6.95721 c -0.35079,-2.3e-4 -0.6871,0.1387 -0.93534,0.38654 l -40.45498,42.32618 c -0.51676,0.51665 42.32619,-40.45497 42.32619,-40.45497 0.51675,-0.51666 0.51675,-1.35455 0,-1.87121 -0.24824,-0.24784 -0.58509,-0.38677 -0.93587,-0.38654 z m -92.32995,1.3162 c -0.35107,2.9e-4 -0.68741,0.14005 -0.93534,0.38861 l -42.0647,43.9359 c -0.51677,0.51666 43.93539,-42.0647 43.93539,-42.0647 0.51677,-0.51666 0.51677,-1.35454 0,-1.8712 -0.24793,-0.24856 -0.58428,-0.38832 -0.93535,-0.38861 z m 92.32995,6.95721 c -0.35079,-2.3e-4 -0.6871,0.1387 -0.93534,0.38654 l -35.10956,36.98076 c -0.51678,0.51666 36.98077,-35.10955 36.98077,-35.10955 0.51676,-0.51666 0.51676,-1.35455 0,-1.87121 -0.24824,-0.24784 -0.58509,-0.38677 -0.93587,-0.38654 z m -92.32995,1.31827 c -0.35079,-2.3e-4 -0.6871,0.1387 -0.93534,0.38654 l -33.79129,35.66249 c -0.51677,0.51666 35.66198,-33.79128 35.66198,-33.79128 0.51677,-0.51666 0.51677,-1.35455 0,-1.87121 -0.24824,-0.24784 -0.58456,-0.38677 -0.93535,-0.38654 z m 92.32995,6.95514 c -0.35079,-2.3e-4 -0.6871,0.13871 -0.93534,0.38655 l -26.83511,28.70732 c -0.51677,0.51666 28.70632,-26.83614 28.70632,-26.83614 0.51675,-0.51666 0.51675,-1.35455 0,-1.8712 -0.24824,-0.24784 -0.58509,-0.38678 -0.93587,-0.38655 z m -92.32995,1.31827 c -0.35079,-2.3e-4 -0.6871,0.1387 -0.93534,0.38654 l -25.51788,27.38908 c -0.51676,0.51666 27.38857,-25.51787 27.38857,-25.51787 0.51676,-0.51666 0.51676,-1.35455 0,-1.87121 -0.24824,-0.24784 -0.58456,-0.38677 -0.93535,-0.38654 z m 92.32995,6.95618 c -0.3386,0 -0.67701,0.1292 -0.93534,0.38758 l -18.56066,20.43186 c -0.51677,0.51666 20.43187,-18.56066 20.43187,-18.56066 0.51675,-0.51666 0.51675,-1.35454 0,-1.8712 -0.25833,-0.25838 -0.59726,-0.38758 -0.93587,-0.38758 z m -92.32995,1.31722 c -0.35079,-2.3e-4 -0.6871,0.1387 -0.93534,0.38654 l -17.24343,19.11566 c -0.51677,0.51666 19.11412,-17.24446 19.11412,-17.24446 0.51676,-0.51666 0.51676,-1.35454 0,-1.8712 -0.24824,-0.24784 -0.58456,-0.38677 -0.93535,-0.38654 z m 92.32995,6.95514 c -0.35107,2.9e-4 -0.68741,0.14005 -0.93534,0.38861 l -10.28725,12.15845 c -0.51677,0.51666 12.15846,-10.28724 12.15846,-10.28724 0.51675,-0.51666 0.51675,-1.35455 0,-1.87121 -0.24792,-0.24856 -0.58481,-0.38832 -0.93587,-0.38861 z m -92.32995,1.31827 c -0.35107,2.9e-4 -0.68741,0.14005 -0.93534,0.38861 l -8.96898,10.84018 c -0.51677,0.51666 10.83967,-8.96898 10.83967,-8.96898 0.51676,-0.51665 0.51676,-1.35454 0,-1.8712 -0.24793,-0.24856 -0.58428,-0.38832 -0.93535,-0.38861 z m 92.32995,6.95721 c -0.35079,-2.3e-4 -0.6871,0.1387 -0.93534,0.38654 l -2.01384,3.88504 c -0.51677,0.51666 3.88505,-2.01383 3.88505,-2.01383 0.51675,-0.51666 0.51675,-1.35455 0,-1.87121 -0.24824,-0.24784 -0.58509,-0.38677 -0.93587,-0.38654 z m -92.32995,1.3162 c -0.35107,2.9e-4 -0.68742,0.14005 -0.93534,0.38861 l -0.69557,2.56677 c -0.51677,0.51666 2.56626,-0.69556 2.56626,-0.69556 0.51676,-0.51666 0.51676,-1.35455 0,-1.87121 -0.24792,-0.24856 -0.58428,-0.38832 -0.93535,-0.38861 z"
       inkscape:export-filename="LineStyleLetters.png"
       inkscape:export-xdpi="96"
       inkscape:export-ydpi="96" />
  </g>
</svg>
