<?xml version="1.0" encoding="UTF-8" standalone="no"?>
<!-- Created with Inkscape (http://www.inkscape.org/) -->

<svg
   width="1920"
   height="1080"
   viewBox="0 0 508.00102 285.75057"
   version="1.1"
   id="svg8244"
   inkscape:version="1.2.2 (b0a8486541, 2022-12-01)"
   sodipodi:docname="MotionLetters.svg"
   inkscape:export-filename="MotionLetters.png"
   inkscape:export-xdpi="96"
   inkscape:export-ydpi="96"
   xmlns:inkscape="http://www.inkscape.org/namespaces/inkscape"
   xmlns:sodipodi="http://sodipodi.sourceforge.net/DTD/sodipodi-0.dtd"
   xmlns="http://www.w3.org/2000/svg"
   xmlns:svg="http://www.w3.org/2000/svg">
  <sodipodi:namedview
     id="namedview8246"
     pagecolor="#ffffff"
     bordercolor="#111111"
     borderopacity="1"
     inkscape:showpageshadow="0"
     inkscape:pageopacity="0"
     inkscape:pagecheckerboard="false"
     inkscape:deskcolor="#ffffff"
     inkscape:document-units="px"
     showgrid="true"
     showborder="false"
     inkscape:zoom="0.72"
     inkscape:cx="209.72222"
     inkscape:cy="408.33333"
     inkscape:window-width="1439"
     inkscape:window-height="1010"
     inkscape:window-x="0"
     inkscape:window-y="0"
     inkscape:window-maximized="0"
     inkscape:current-layer="layer1" />
  <defs
     id="defs8241" />
  <g
     inkscape:label="Layer 1"
     inkscape:groupmode="layer"
     id="layer1">
    <path
       id="path105550"
       style="font-weight:900;font-size:114.347px;font-family:Lato;-inkscape-font-specification:'Lato, Heavy';opacity:1;stroke-width:0.362111;paint-order:stroke fill markers;fill:#5a5bff;fill-opacity:1"
       d="m 32.057022,63.212108 c -3.348139,0.343343 -6.043571,3.213007 -6.043571,6.433879 0,3.220872 2.695432,5.537201 6.043571,5.193858 l 24.089017,-2.470262 c 3.348143,-0.343343 6.043571,1.972988 6.043571,5.193858 0,3.220872 -2.695428,6.090537 -6.043571,6.43388 l -8.773125,0.899659 c -3.348141,0.343343 -6.043571,3.21249 -6.043571,6.433362 0,3.220872 2.69543,5.537718 6.043571,5.194375 l 8.773125,-0.899659 5.561429,-0.57031 c 3.348143,-0.343343 6.043571,1.972981 6.043571,5.193862 0,3.22085 -2.695428,6.09054 -6.043571,6.43388 l -5.561429,0.57031 -18.528105,1.90001 -9.813374,1.00633 c -3.348141,0.34334 -6.044088,3.21254 -6.044088,6.43342 0,3.22086 2.695947,5.53765 6.044088,5.19431 l 9.813374,-1.00633 18.528105,-1.90001 5.561429,-0.57031 c 3.348143,-0.34334 6.043571,1.973 6.043571,5.19386 0,3.22087 -2.695428,6.09054 -6.043571,6.43388 l -5.561429,0.57031 -4.789381,0.49114 c -3.34814,0.34334 -6.043571,3.21248 -6.043571,6.43336 0,3.22088 2.695431,5.53772 6.043571,5.19438 l 10.35081,-1.06145 14.216215,-1.45783 v -34.63568 l 4.798166,-0.49204 c 1.833422,-0.18801 3.276735,-0.11269 4.329977,0.22621 1.092252,0.29766 1.98967,0.93185 2.691831,1.90264 l 19.309453,26.34275 c 0.39009,0.51863 0.79977,0.9795 1.22887,1.38242 0.4291,0.36567 0.93622,0.66749 1.52136,0.90542 0.58513,0.23795 1.26776,0.39126 2.04794,0.46024 0.8192,0.065 1.79415,0.0398 2.92541,-0.0762 l 17.6713,-1.81215 -25.74576,-35.124019 c -1.05325,-1.381702 -2.18484,-2.476191 -3.39412,-3.283255 -1.20928,-0.807058 -2.55514,-1.395262 -4.037485,-1.76465 2.067475,-1.217565 3.998535,-3.054222 5.792935,-5.510038 l 25.2781,-35.4962 -17.20312,1.764133 c -1.95045,0.200013 -3.58865,0.64756 -4.91496,1.342208 -1.28728,0.653405 -2.49696,1.745575 -3.6282,3.2768 L 85.403227,88.075727 c -1.287297,1.882417 -3.393852,2.973715 -6.319524,3.273735 l -3.16002,0.324051 V 58.713702 L 56.146039,60.741846 Z M 20.012255,87.702741 c -3.348138,0.343343 -6.043571,3.21249 -6.043571,6.433362 0,3.220872 2.695433,5.537718 6.043571,5.194375 L 32.057022,98.09532 c 3.348143,-0.343343 6.043571,-3.213006 6.043571,-6.433878 0,-3.220872 -2.695428,-5.537202 -6.043571,-5.193859 z M 9.4857449,135.29315 c -3.3481402,0.34335 -6.0435709,3.21249 -6.0435709,6.43337 0,3.22088 2.6954307,5.53772 6.0435709,5.19437 L 19.836038,145.8595 c 3.348142,-0.34334 6.043571,-3.213 6.043571,-6.43388 0,-3.22088 -2.695429,-5.5372 -6.043571,-5.19386 z m 25.0243621,-2.56617 c -3.348139,0.34334 -6.043571,3.21248 -6.043571,6.43336 0,3.22088 2.695432,5.53772 6.043571,5.19438 l 2.009184,-0.20604 c 3.348143,-0.34334 6.043571,-3.213 6.043571,-6.43388 0,-3.22088 -2.695428,-5.5372 -6.043571,-5.19386 z"
       inkscape:export-filename="path105550.png"
       inkscape:export-xdpi="96"
       inkscape:export-ydpi="96" />
  </g>
</svg>
