<?xml version="1.0" encoding="UTF-8" standalone="no"?>
<!-- Created with Inkscape (http://www.inkscape.org/) -->

<svg
   width="1080"
   height="1920"
   viewBox="0 0 285.75057 508.00101"
   version="1.1"
   id="svg8244"
   inkscape:version="1.2.2 (b0a8486541, 2022-12-01)"
   sodipodi:docname="MountainLogo2.svg"
   inkscape:export-filename="MountainLogo2.png"
   inkscape:export-xdpi="96"
   inkscape:export-ydpi="96"
   xmlns:inkscape="http://www.inkscape.org/namespaces/inkscape"
   xmlns:sodipodi="http://sodipodi.sourceforge.net/DTD/sodipodi-0.dtd"
   xmlns="http://www.w3.org/2000/svg"
   xmlns:svg="http://www.w3.org/2000/svg">
  <sodipodi:namedview
     id="namedview8246"
     pagecolor="#ffffff"
     bordercolor="#111111"
     borderopacity="1"
     inkscape:showpageshadow="0"
     inkscape:pageopacity="0"
     inkscape:pagecheckerboard="false"
     inkscape:deskcolor="#d1d1d1"
     inkscape:document-units="px"
     showgrid="true"
     inkscape:zoom="0.72"
     inkscape:cx="595.13889"
     inkscape:cy="822.22222"
     inkscape:window-width="1439"
     inkscape:window-height="1010"
     inkscape:window-x="0"
     inkscape:window-y="0"
     inkscape:window-maximized="0"
     inkscape:current-layer="text19686" />
  <defs
     id="defs8241">
    <inkscape:path-effect
       effect="perspective-envelope"
       up_left_point="230.65704,274.46797"
       up_right_point="305.16123,274.46797"
       down_left_point="208.75082,323.23495"
       down_right_point="327.06744,323.23495"
       id="path-effect19356"
       is_visible="true"
       lpeversion="1"
       deform_type="perspective"
       horizontal_mirror="false"
       vertical_mirror="true"
       overflow_perspective="false" />
    <inkscape:path-effect
       effect="fillet_chamfer"
       id="path-effect24340"
       is_visible="true"
       lpeversion="1"
       nodesatellites_param="F,0,0,1,0,7.5865136,0,1 @ F,0,0,1,0,5.050303,0,1 @ F,0,0,1,0,5.456218,0,1 @ F,0,0,1,0,104.3907,0,1 @ F,0,0,1,0,0,0,1 @ F,0,0,1,0,5.7953826,0,1"
       unit="px"
       method="auto"
       mode="F"
       radius="0"
       chamfer_steps="1"
       flexible="false"
       use_knot_distance="true"
       apply_no_radius="true"
       apply_with_radius="true"
       only_selected="false"
       hide_knots="false" />
    <inkscape:path-effect
       effect="perspective-envelope"
       up_left_point="111.57145,32.556533"
       up_right_point="572.33745,32.556533"
       down_left_point="162.74972,130.74933"
       down_right_point="608.62138,69.360984"
       id="path-effect19727"
       is_visible="true"
       lpeversion="1"
       deform_type="perspective"
       horizontal_mirror="false"
       vertical_mirror="false"
       overflow_perspective="false" />
    <filter
       inkscape:collect="always"
       style="color-interpolation-filters:sRGB"
       id="filter35135"
       x="-0.026253657"
       y="-0.027814971"
       width="1.0525073"
       height="1.0556299">
      <feGaussianBlur
         inkscape:collect="always"
         stdDeviation="0.68620295"
         id="feGaussianBlur35137" />
    </filter>
    <filter
       inkscape:collect="always"
       style="color-interpolation-filters:sRGB"
       id="filter35139"
       x="-0.025060563"
       y="-0.029331681"
       width="1.0501211"
       height="1.0586634">
      <feGaussianBlur
         inkscape:collect="always"
         stdDeviation="1.1165548"
         id="feGaussianBlur35141" />
    </filter>
    <filter
       inkscape:collect="always"
       style="color-interpolation-filters:sRGB"
       id="filter48228"
       x="-0.12708216"
       y="-0.20997356"
       width="1.2541643"
       height="1.4199471">
      <feGaussianBlur
         inkscape:collect="always"
         stdDeviation="11.876784"
         id="feGaussianBlur48230" />
    </filter>
  </defs>
  <g
     inkscape:label="Layer 1"
     inkscape:groupmode="layer"
     id="layer1">
    <g
       aria-label="PERSPECTIVE"
       id="text19686"
       style="font-size:83.5499px;font-family:'Noto Sans Lao';-inkscape-font-specification:'Noto Sans Lao, Normal';opacity:1;fill:#ff00ff;stroke-width:2.81486;paint-order:stroke fill markers"
       transform="matrix(1.0251609,0,0,1,-115.21212,-34.116331)">
      <path
         id="path39507"
         style="opacity:1;fill:#000000;fill-opacity:1;stroke-width:0.373696"
         d="m 244.3091,322.66091 -61.33054,-12.6549 c -3.05909,-0.63121 -5.55258,-2.95127 -6.51594,-6.06273 l -24.60585,-79.4723 c -0.90802,-2.93272 0.76395,-6.05404 3.62347,-6.76449 65.1503,-15.72877 132.09397,-15.64455 197.04856,0.95165 0.37339,0.44404 0.71602,1.17911 0.58249,1.60772 l -25.83753,82.93381 c -1.11173,3.56846 -3.96684,6.23284 -7.47725,6.95718 l -60.59947,12.50406 c -4.91558,1.01428 -9.97236,1.01428 -14.88794,0 z"
         sodipodi:nodetypes="ccccccssssc"
         inkscape:export-filename="MountainLogo2.png"
         inkscape:export-xdpi="96"
         inkscape:export-ydpi="96" />
      <path
         id="path46048"
         style="opacity:0.711268;fill:#000000;stroke-width:0.392837;filter:url(#filter48228)"
         d="m 254.188,196.86669 c -35.19452,-0.13811 -70.40806,4.03423 -105.1242,12.41551 a 6.1892715,6.1892715 0 0 0 -0.0411,0.0105 c -6.57372,1.63324 -10.18308,8.62742 -8.22704,14.945 l 25.86579,83.54336 c 1.6479,5.32241 6.00698,9.46911 11.51005,10.60461 l 64.4715,13.30247 c 5.99015,1.236 12.1619,1.236 18.15205,0 l 63.70361,-13.14437 c 5.98137,-1.23421 10.71489,-5.74447 12.51816,-11.53264 l 27.16134,-87.18158 c 0.8154,-2.61731 0.14294,-3.93439 -0.25869,-4.95224 -0.40163,-1.01784 -0.84638,-1.75472 -1.5255,-2.56235 a 6.1892715,6.1892715 0 0 0 -3.205,-2.0121 C 324.5565,201.45411 289.38243,197.00503 254.18796,196.86695 Z"
         transform="matrix(0.95805928,0,0,0.95805928,10.586425,13.749194)" />
      <path
         id="path42413"
         style="opacity:1;fill:#ffffff;stroke-width:0.373696"
         d="m 254.10156,200.17383 c -33.47964,-0.13138 -66.97738,3.83766 -100.00195,11.81055 a 5.8876951,5.8876951 0 0 0 -0.0391,0.01 c -6.25341,1.55366 -9.6869,8.20704 -7.82617,14.2168 l 24.60546,79.47265 c 1.56761,5.06307 5.71429,9.00772 10.94922,10.08789 l 61.33008,12.6543 c 5.69828,1.17578 11.5693,1.17578 17.26758,0 l 60.59961,-12.5039 c 5.68992,-1.17407 10.1928,-5.46457 11.9082,-10.97071 l 25.83789,-82.93359 c 0.77567,-2.48978 0.13597,-3.74269 -0.24609,-4.71094 -0.38206,-0.96825 -0.80514,-1.66922 -1.45117,-2.4375 a 5.8876951,5.8876951 0 0 0 -3.04883,-1.91406 c -32.94498,-8.4176 -66.40517,-12.64989 -99.88477,-12.78125 z" />
      <path
         id="path21961"
         style="opacity:1;fill:#00bef1;fill-opacity:1;stroke-width:0.373696"
         d="m 244.3091,322.66091 -61.33054,-12.6549 c -3.05909,-0.63121 -5.55258,-2.95127 -6.51594,-6.06273 l -24.60585,-79.4723 c -0.90802,-2.93272 0.76395,-6.05404 3.62347,-6.76449 65.1503,-15.72877 132.09397,-15.64455 197.04856,0.95165 0.37339,0.44404 0.71602,1.17911 0.58249,1.60772 l -25.83753,82.93381 c -1.11173,3.56846 -3.96684,6.23284 -7.47725,6.95718 l -60.59947,12.50406 c -4.91558,1.01428 -9.97236,1.01428 -14.88794,0 z"
         sodipodi:nodetypes="ccccccssssc" />
      <path
         id="path31302"
         style="opacity:0.8;fill:#4bdaff;fill-opacity:1;stroke:none;stroke-width:2.19593;paint-order:stroke fill markers;filter:url(#filter35139)"
         d="M 247.82627 206.25397 A 429.38782 450.58209 0 0 0 209.64104 208.43162 A 53.465153 50.464035 0 0 0 190.44912 247.43759 A 53.465153 50.464035 0 0 0 244.07388 297.59793 A 53.465153 50.464035 0 0 0 297.37856 247.13424 L 297.37453 246.52756 A 53.465153 50.464035 0 0 0 276.28675 206.99708 A 429.38782 450.58209 0 0 0 247.82627 206.25397 z " />
      <path
         style="opacity:1;fill:#214478;fill-opacity:1;stroke:none;stroke-width:0.73557;paint-order:stroke fill markers"
         id="path29678"
         sodipodi:type="arc"
         sodipodi:cx="206.659"
         sodipodi:cy="358.59903"
         sodipodi:rx="3.5845845"
         sodipodi:ry="3.6747758"
         sodipodi:start="0"
         sodipodi:end="0.0080869824"
         sodipodi:open="true"
         sodipodi:arc-type="arc"
         d="m 210.24358,358.59903 a 3.5845845,3.6747758 0 0 1 -1.2e-4,0.0297" />
      <path
         style="opacity:1;fill:#00ccff;fill-opacity:1;stroke:none;stroke-width:0.73557;paint-order:stroke fill markers"
         id="path29682"
         sodipodi:type="arc"
         sodipodi:cx="206.30054"
         sodipodi:cy="367.41849"
         sodipodi:rx="19.356756"
         sodipodi:ry="17.638924"
         sodipodi:start="0"
         sodipodi:end="0.0080869824"
         sodipodi:open="true"
         sodipodi:arc-type="arc"
         d="m 225.65729,367.41849 a 19.356756,17.638924 0 0 1 -6.3e-4,0.14264" />
      <path
         style="opacity:0.8;fill:#aaeeff;fill-opacity:1;stroke:none;stroke-width:1.28823;paint-order:stroke fill markers;filter:url(#filter35135)"
         id="path31300"
         sodipodi:type="arc"
         sodipodi:cx="243.91338"
         sodipodi:cy="247.13434"
         sodipodi:rx="31.364908"
         sodipodi:ry="29.604328"
         sodipodi:start="0"
         sodipodi:end="6.2711584"
         sodipodi:open="true"
         sodipodi:arc-type="chord"
         d="m 275.27828,247.13434 a 31.364908,29.604328 0 0 1 -31.2706,29.60419 31.364908,29.604328 0 0 1 -31.45865,-29.42617 31.364908,29.604328 0 0 1 31.08143,-29.78115 31.364908,29.604328 0 0 1 31.64556,29.24709 z" />
      <path
         style="opacity:1;fill:#ffffff;fill-opacity:1;stroke:none;stroke-width:0.509428;paint-order:stroke fill markers"
         id="path29794"
         sodipodi:type="arc"
         sodipodi:cx="243.91338"
         sodipodi:cy="247.13434"
         sodipodi:rx="12.403273"
         sodipodi:ry="11.707049"
         sodipodi:start="0"
         sodipodi:end="6.2711584"
         sodipodi:open="true"
         sodipodi:arc-type="chord"
         d="m 256.31665,247.13434 a 12.403273,11.707049 0 0 1 -12.36598,11.70699 12.403273,11.707049 0 0 1 -12.44034,-11.63659 12.403273,11.707049 0 0 1 12.29117,-11.77697 12.403273,11.707049 0 0 1 12.51425,11.56577 z" />
      <path
         id="rect24394"
         style="opacity:1;fill:#214478;fill-opacity:1;stroke:none;stroke-width:0.873881;stroke-dasharray:none;paint-order:stroke fill markers"
         d="M 327.89151 -2.8059017 C 327.49367 -2.4080373 327.2483 -1.8577616 327.2483 -1.248033 L 327.2483 44.488191 L 335.24844 47.733149 L 327.2483 47.733149 L 312.38863 47.733149 C 311.16917 47.733149 310.18754 48.714776 310.18754 49.934234 L 310.18754 71.190695 L 338.65691 85.941719 A 8.9090754 8.7036309 45 0 0 347.55726 85.510743 L 400.31292 50.433792 A 39.992597 39.070362 45 0 0 410.97327 39.773436 L 445.63224 -12.353442 A 10.223446 9.9876922 45 0 0 446.12675 -22.566939 L 434.77914 -44.46806 L 400.23387 -44.46806 C 399.01441 -44.46806 398.03242 -43.486072 398.03242 -42.266614 L 398.03242 -25.712635 L 405.61783 -22.636242 L 398.03242 -22.635881 L 398.03242 -22.325462 L 367.92686 -22.325462 C 366.7074 -22.325462 365.72578 -21.343834 365.72578 -20.124377 L 365.72578 -6.6940762 L 373.72592 -3.449118 L 365.72578 -3.449118 L 329.44974 -3.449479 C 328.84003 -3.449479 328.28938 -3.2037661 327.89151 -2.8059017 z "
         transform="matrix(0.69826769,0.71583673,-0.69826769,0.71583673,0,0)" />
      <path
         id="path10642"
         style="color:#000000;-inkscape-font-specification:'Noto Sans Lao, Normal';opacity:1;fill:#aaeeff;stroke-width:5.01642;-inkscape-stroke:none;fill-opacity:1"
         d="M 299.70591 274.48095 C 301.11333 274.25404 281.58567 277.15032 283.35197 276.89889 C 265.72888 278.5893 252.87371 280.13086 243.74774 281.57149 C 231.97898 283.42934 226.49402 285.10813 225.21365 286.69573 C 222.51863 290.03819 241.66843 293.28054 255.36784 296.69411 C 270.01862 300.34464 282.02277 306.67811 258.07779 309.8954 C 250.81967 312.11766 243.53185 312.41384 222.94074 318.25201 L 244.30929 322.66105 A 38.581968 40.486346 0 0 0 250.14404 323.33956 C 252.36031 323.27722 254.51554 323.1837 256.60738 323.05948 A 38.581968 40.486346 0 0 0 259.19685 322.66105 L 302.38964 313.74892 C 308.13422 311.49884 311.94867 309.45241 314.03797 308.39833 C 327.24873 302.1743 306.28198 294.47718 291.26757 291.20916 C 277.17713 288.14225 260.77984 285.5358 262.13364 282.4443 C 262.77761 280.97359 289.58994 276.11218 299.70591 274.48095 z " />
      <path
         id="rect19546"
         style="opacity:1;fill:#214478;stroke-width:0.612573;fill-opacity:1"
         d="M 291.26757 291.20916 L 286.72881 299.44795 L 288.81471 299.49756 L 283.27635 309.74192 L 286.7389 309.82667 L 282.38816 317.8758 L 298.25869 314.60106 L 295.79675 310.04732 L 299.37976 310.13466 L 293.69271 299.61435 L 295.92781 299.66758 L 291.26757 291.20916 z " />
    </g>
  </g>
</svg>
