<?xml version="1.0" encoding="UTF-8" standalone="no"?>
<!-- Created with Inkscape (http://www.inkscape.org/) -->

<svg
   inkscape:version="1.2.2 (b0a8486541, 2022-12-01)"
   id="svg8244"
   version="1.1"
   viewBox="0 0 508.00102 285.75057"
   height="1080"
   width="1920"
   sodipodi:docname="Neon Letters.svg"
   xmlns:inkscape="http://www.inkscape.org/namespaces/inkscape"
   xmlns:sodipodi="http://sodipodi.sourceforge.net/DTD/sodipodi-0.dtd"
   xmlns:xlink="http://www.w3.org/1999/xlink"
   xmlns="http://www.w3.org/2000/svg"
   xmlns:svg="http://www.w3.org/2000/svg">
  <sodipodi:namedview
     id="namedview8246"
     pagecolor="#ffffff"
     bordercolor="#111111"
     borderopacity="1"
     inkscape:showpageshadow="0"
     inkscape:pageopacity="0"
     inkscape:pagecheckerboard="false"
     inkscape:deskcolor="#cbcbcb"
     inkscape:document-units="px"
     showgrid="true"
     showborder="false"
     inkscape:zoom="0.36"
     inkscape:cx="1226.3889"
     inkscape:cy="366.66667"
     inkscape:window-width="1233"
     inkscape:window-height="1010"
     inkscape:window-x="0"
     inkscape:window-y="0"
     inkscape:window-maximized="0"
     inkscape:current-layer="layer1" />
  <defs
     id="defs8241">
    <linearGradient
       inkscape:collect="always"
       id="linearGradient57568">
      <stop
         style="stop-color:#000000;stop-opacity:0.5256917"
         offset="0"
         id="stop57564" />
      <stop
         style="stop-color:#000000;stop-opacity:0.84189723"
         offset="0.67481995"
         id="stop59874" />
      <stop
         style="stop-color:#000000;stop-opacity:0.93675889"
         offset="1"
         id="stop57566" />
    </linearGradient>
    <filter
       inkscape:collect="always"
       style="color-interpolation-filters:sRGB"
       id="filter50987"
       x="-0.14008469"
       y="-0.67905747"
       width="1.280565"
       height="2.3581149">
      <feGaussianBlur
         inkscape:collect="always"
         stdDeviation="6.4849032"
         id="feGaussianBlur50989" />
    </filter>
    <filter
       inkscape:collect="always"
       style="color-interpolation-filters:sRGB"
       id="filter50991"
       x="-0.035088299"
       y="-0.17053212"
       width="1.0703677"
       height="1.3410642">
      <feGaussianBlur
         inkscape:collect="always"
         stdDeviation="1.313202"
         id="feGaussianBlur50993" />
    </filter>
    <filter
       inkscape:collect="always"
       style="color-interpolation-filters:sRGB"
       id="filter51721"
       x="-0.006454202"
       y="-0.031432713"
       width="1.0129568"
       height="1.0628654">
      <feGaussianBlur
         inkscape:collect="always"
         stdDeviation="0.19860093"
         id="feGaussianBlur51723" />
    </filter>
    <radialGradient
       inkscape:collect="always"
       xlink:href="#linearGradient57568"
       id="radialGradient57570"
       cx="169.33368"
       cy="160.6612"
       fx="169.33368"
       fy="160.6612"
       r="169.46597"
       gradientTransform="matrix(1,0,0,0.56284151,0,70.234409)"
       gradientUnits="userSpaceOnUse" />
  </defs>
  <g
     inkscape:label="Layer 1"
     inkscape:groupmode="layer"
     id="layer1">
    <text
       xml:space="preserve"
       style="font-size:87.6664px;font-family:'Meera New';-inkscape-font-specification:'Meera New, Normal';fill:#0000ff;stroke:#000000;stroke-width:0.277622;paint-order:stroke fill markers"
       x="231.19408"
       y="29.941717"
       id="text7955"><tspan
         sodipodi:role="line"
         id="tspan7953"
         style="font-style:normal;font-variant:normal;font-weight:normal;font-stretch:normal;font-size:87.6664px;font-family:'Learning Curve';-inkscape-font-specification:'Learning Curve, Normal';font-variant-ligatures:normal;font-variant-caps:normal;font-variant-numeric:normal;font-variant-east-asian:normal;fill:#000000;stroke-width:0.277622"
         x="231.19408"
         y="29.941717">neon</tspan></text>
    <g
       id="g65087"
       transform="translate(119.06274,-8.0845069)">
      <rect
         style="fill:#ff0066;fill-opacity:1;stroke:#000000;stroke-width:0.264584;paint-order:stroke fill markers"
         id="rect16897"
         width="338.66736"
         height="190.50038"
         x="0"
         y="65.411011" />
      <rect
         style="fill:url(#radialGradient57570);fill-opacity:1;stroke:#000000;stroke-width:0.264584;paint-order:stroke fill markers"
         id="rect56813"
         width="338.66736"
         height="190.50038"
         x="0"
         y="65.411011" />
      <path
         id="path8683"
         style="font-size:87.6664px;font-family:'Learning Curve';-inkscape-font-specification:'Learning Curve, Normal';mix-blend-mode:normal;fill:#ff0066;fill-opacity:1;stroke:#ff0066;stroke-width:6.6146;stroke-linecap:round;stroke-linejoin:round;stroke-dasharray:none;stroke-opacity:1;paint-order:stroke fill markers;filter:url(#filter50987)"
         d="m 182.11997,146.76615 c -1.22732,0 -2.33751,0.4674 -3.33107,1.4025 -0.93511,0.93511 -1.75331,2.07471 -2.45463,3.41892 -0.64289,1.28577 -1.13969,2.65907 -1.49035,4.12017 -0.29222,1.46111 -0.43874,2.71785 -0.43874,3.7698 0,3.43643 0.98086,5.94686 2.93575,7.53703 1.38853,1.11771 3.204,1.74277 4.86689,1.75545 2.16243,0 4.20793,-0.75938 6.13659,-2.27894 1.98711,-1.51951 3.88664,-3.30246 5.69837,-5.348 0.0973,-0.0973 0.16651,-0.21293 0.20981,-0.34623 0.68496,-0.79375 1.42515,-1.66111 2.24483,-2.63447 0.99355,-1.11044 1.95775,-2.19123 2.89285,-3.24322 0.99355,-1.11045 1.89945,-2.07515 2.71767,-2.89337 0.87666,-0.87666 1.54887,-1.49005 2.01642,-1.84072 0.87666,-0.64289 1.60716,-0.96428 2.1916,-0.96428 0.40911,0 0.67221,0.14599 0.7891,0.43821 0.11689,0.29222 0.17518,0.64302 0.17518,1.05214 0,0.9351 -0.29199,2.25014 -0.87643,3.94498 -0.526,1.69488 -1.1982,3.53557 -2.01642,5.52268 -0.81822,1.98706 -1.72411,4.00371 -2.71767,6.04925 -0.9351,1.98711 -1.84101,3.7695 -2.71767,5.34749 -0.29222,0.58444 -0.43821,1.02294 -0.43821,1.31517 0,0.75977 0.37973,1.13946 1.13946,1.13946 0.11689,0 0.29229,-0.0583 0.52607,-0.17518 0.23378,-0.0584 0.46747,-0.26325 0.70125,-0.61392 0.35067,-0.58444 0.84747,-1.43153 1.49035,-2.54197 0.64289,-1.16884 1.37339,-2.42558 2.19161,-3.7698 0.87661,-1.40266 1.812,-2.86365 2.80551,-4.3832 0.99356,-1.51955 2.01605,-2.95165 3.06804,-4.29587 1.92867,-2.39621 3.94526,-4.47111 6.04926,-6.22444 2.16239,-1.75333 4.26622,-2.62982 6.31177,-2.62982 0.46755,0 0.81836,0.0877 1.05213,0.26303 0.29223,0.11689 0.43822,0.49658 0.43822,1.13947 0,0.526 -0.11659,1.1982 -0.35037,2.01642 -0.23378,0.75978 -0.52629,1.60742 -0.87695,2.54248 -0.35066,0.87666 -0.73035,1.78256 -1.13947,2.71767 -0.4091,0.93511 -0.8182,1.8116 -1.22731,2.62982 -0.99356,2.04555 -1.87057,3.97449 -2.63034,5.78622 -0.70133,1.81178 -1.05162,3.36047 -1.05162,4.64624 0,0.75977 0.23369,1.49027 0.70125,2.1916 0.526,0.64289 1.3442,0.96429 2.45464,0.96429 1.052,0 2.24988,-0.4091 3.5941,-1.22732 1.34421,-0.87667 2.71802,-1.95796 4.12069,-3.24374 1.40266,-1.28577 2.80536,-2.68847 4.20802,-4.20802 1.4611,-1.578 2.83439,-3.06839 4.12017,-4.47105 0.17533,-0.17533 0.26303,-0.40903 0.26303,-0.70125 0,-0.75977 -0.3508,-1.13947 -1.05213,-1.13947 -0.29222,0 -0.55532,0.11659 -0.7891,0.35037 -1.28577,1.4611 -2.62966,2.92261 -4.03232,4.38372 -1.34422,1.4611 -2.65922,2.80499 -3.94499,4.03232 -1.28577,1.16888 -2.48418,2.13307 -3.59462,2.89285 -1.11044,0.75977 -2.04523,1.13999 -2.805,1.13999 -0.70133,0 -1.05213,-0.38022 -1.05213,-1.13999 0,-0.526 0.0877,-1.13938 0.26303,-1.84072 0.23378,-0.75977 0.52577,-1.54856 0.87643,-2.36678 0.35067,-0.87667 0.73088,-1.75368 1.13999,-2.63034 0.40911,-0.87666 0.81825,-1.72375 1.22731,-2.54197 0.29222,-0.58444 0.64251,-1.34434 1.05162,-2.27945 0.46756,-0.93511 0.87665,-1.92871 1.22732,-2.9807 0.40911,-1.052 0.75991,-2.1039 1.05213,-3.15589 0.29223,-1.052 0.43822,-1.9873 0.43822,-2.80552 0,-0.99355 -0.35028,-1.75346 -1.05162,-2.27945 -0.70133,-0.58444 -1.57834,-0.87643 -2.63033,-0.87643 -2.68844,0 -5.31843,1.08134 -7.88998,3.24373 -2.5715,2.10399 -5.05554,4.76288 -7.45175,7.97731 0.46755,-1.16889 0.93546,-2.51277 1.40302,-4.03232 0.46755,-1.578 0.70125,-2.7764 0.70125,-3.59462 0,-0.87666 -0.29251,-1.72375 -0.87695,-2.54197 -0.526,-0.81822 -1.31479,-1.22732 -2.36679,-1.22732 -1.05199,0 -2.221,0.4674 -3.50677,1.40251 -0.526,0.40907 -1.22708,1.0519 -2.10375,1.92856 -0.87666,0.87667 -1.81197,1.87027 -2.80552,2.98071 -0.99355,1.05195 -1.98715,2.16219 -2.9807,3.33107 -0.93511,1.11039 -1.7822,2.10403 -2.54197,2.9807 -0.12957,0.12957 -0.22233,0.26847 -0.28009,0.41599 -3.87157,4.33971 -7.13896,6.5097 -9.802,6.5097 -2.53234,0.16735 -4.76746,-1.69061 -5.34749,-4.0323 -0.23377,-1.22733 -0.35037,-2.25034 -0.35037,-3.06856 0,-0.87662 0.1166,-1.89966 0.35037,-3.06855 0.29222,-1.22732 0.67242,-2.39581 1.13998,-3.50625 0.526,-1.11044 1.10999,-2.04574 1.75287,-2.80552 0.70133,-0.75977 1.46123,-1.13947 2.27945,-1.13947 0.35067,0 0.64318,0.1754 0.87695,0.52607 0.23378,0.29222 0.40867,0.67191 0.52555,1.13947 0.1169,0.40911 0.1757,0.84765 0.1757,1.31516 0.0585,0.46756 0.0873,0.84725 0.0873,1.13947 0,2.22088 -0.4674,4.38352 -1.4025,6.48747 -0.56436,1.23454 -1.21559,2.43639 -1.95028,3.60703 0.48606,0.80214 1.18926,1.03972 1.98025,1.04903 0.76011,-1.26744 1.45185,-2.61472 2.0743,-4.04265 0.99351,-2.27933 1.49035,-4.67562 1.49035,-7.18873 0,-0.58444 -0.0588,-1.22723 -0.1757,-1.92857 -0.11689,-0.70132 -0.32118,-1.37357 -0.6134,-2.01641 -0.23378,-0.64289 -0.61399,-1.16858 -1.13999,-1.57769 -0.526,-0.46755 -1.16879,-0.70125 -1.92857,-0.70125 z m -69.43156,0.26303 c -1.05199,0 -2.22099,0.4674 -3.50677,1.40251 -0.35066,0.29217 -1.05231,0.9933 -2.10426,2.10375 -0.99356,1.05199 -2.19145,2.3381 -3.59411,3.85765 -0.34297,0.38771 -0.7601,0.84972 -1.11828,1.25264 -0.70708,1.34865 0.37106,2.27633 1.66915,1.39888 0.30241,-0.34353 0.64548,-0.74148 0.93948,-1.07384 1.34422,-1.5195 2.51323,-2.80513 3.50677,-3.85713 1.052,-1.05199 1.72368,-1.69479 2.0159,-1.92857 0.87667,-0.64289 1.60768,-0.96428 2.19212,-0.96428 0.40912,0 0.6717,0.14599 0.78859,0.43821 0.11688,0.29222 0.1757,0.64302 0.1757,1.05214 0,0.9351 -0.29251,2.25014 -0.87695,3.94498 -0.526,1.69488 -1.1982,3.53557 -2.01642,5.52268 -0.81822,1.98706 -1.72412,4.00371 -2.71767,6.04925 -0.93511,1.98711 -1.841,3.7695 -2.71767,5.34749 -0.29222,0.58444 -0.43822,1.02294 -0.43822,1.31517 0,0.75977 0.38021,1.13946 1.13999,1.13946 0.11689,0 0.29177,-0.0583 0.52555,-0.17518 0.23378,-0.0584 0.46799,-0.26325 0.70177,-0.61392 0.35062,-0.58444 0.84746,-1.43153 1.49035,-2.54197 0.64288,-1.16884 1.37338,-2.42558 2.1916,-3.7698 0.87666,-1.40266 1.81145,-2.86365 2.805,-4.3832 0.99355,-1.51955 2.01656,-2.95165 3.06855,-4.29587 1.92866,-2.39621 3.94475,-4.47111 6.04874,-6.22444 2.16244,-1.75333 4.26675,-2.62982 6.31229,-2.62982 0.46755,0 0.81836,0.0877 1.05214,0.26303 0.29217,0.11689 0.43821,0.49658 0.43821,1.13947 0,0.526 -0.11711,1.1982 -0.35088,2.01642 -0.23378,0.75978 -0.52577,1.60742 -0.87644,2.54248 -0.35066,0.87666 -0.73087,1.78256 -1.13998,2.71767 -0.40911,0.93511 -0.81821,1.8116 -1.22732,2.62982 -0.99355,2.04555 -1.87004,3.97449 -2.62982,5.78622 -0.70133,1.81178 -1.05213,3.36047 -1.05213,4.64624 0,0.75977 0.2337,1.49027 0.70125,2.1916 0.526,0.64289 1.3442,0.96429 2.45464,0.96429 1.05195,0 2.2504,-0.4091 3.59462,-1.22732 1.34417,-0.87667 2.71751,-1.95796 4.12017,-3.24374 1.40262,-1.28577 2.80536,-2.68847 4.20802,-4.20802 0.29872,-0.32262 0.55093,-0.5989 0.84232,-0.91415 -0.15231,0.87957 -0.22841,1.71069 -0.22841,2.49235 0,1.92866 0.52569,3.65276 1.57769,5.17231 0.99355,1.4611 2.68876,2.1916 5.08497,2.1916 2.74688,0 5.87371,-1.169 9.38032,-3.50677 2.65517,-1.74109 5.34257,-4.01821 8.06258,-6.82905 -0.17297,0.97518 -0.26045,1.90756 -0.26045,2.79621 0,0.87666 0.11711,1.75367 0.35088,2.63034 0.23378,0.87667 0.61347,1.66546 1.13947,2.36679 0.46755,0.70129 1.08146,1.28583 1.84123,1.75338 0.75978,0.40911 1.66516,0.61392 2.71716,0.61392 2.0455,0 3.94504,-0.61391 5.69837,-1.84124 1.26084,-0.88259 2.44401,-1.87402 3.55379,-2.9683 -0.80978,-0.10498 -1.42082,-0.55773 -1.98799,-1.08727 -0.74064,0.67969 -1.54782,1.35941 -2.44224,2.03915 -1.4611,1.11045 -3.06865,1.66606 -4.82193,1.66606 -1.34422,0 -2.3373,-0.52621 -2.98019,-1.57821 -0.58444,-1.05195 -0.87695,-2.2504 -0.87695,-3.59462 0,-1.28573 0.2337,-2.71735 0.70125,-4.29535 0.46755,-1.63643 1.13975,-3.24394 2.01642,-4.82194 0.87666,-1.57799 1.92855,-3.09732 3.15588,-4.55838 1.28578,-1.51956 2.74733,-2.80515 4.38372,-3.85714 0.35067,-0.23378 0.52555,-0.5557 0.52555,-0.9648 0,-0.29222 -0.11658,-0.52592 -0.35036,-0.70125 -0.23378,-0.23378 -0.49688,-0.35037 -0.7891,-0.35037 -0.11689,0 -0.29229,0.0583 -0.52607,0.17518 -1.87021,1.22734 -3.50661,2.65948 -4.90927,4.29587 -1.40267,1.63644 -2.60059,3.33113 -3.5941,5.08446 -0.44064,0.82618 -0.82746,1.65222 -1.16428,2.47841 -0.0573,0.0434 -0.10772,0.0939 -0.15089,0.15141 -3.91576,4.50016 -7.53936,7.7441 -10.87068,9.73121 -3.27283,1.98706 -5.93228,2.9807 -7.97782,2.9807 -1.51955,0 -2.62975,-0.4385 -3.33107,-1.31517 -0.64289,-0.9351 -0.96429,-2.1624 -0.96429,-3.68195 0,-1.51955 0.26311,-3.21424 0.78911,-5.08446 5.43527,-1.16888 9.46748,-2.80528 12.09747,-4.90927 2.68843,-2.16243 4.03284,-4.26673 4.03284,-6.31229 0,-1.22728 -0.4091,-2.19152 -1.22732,-2.89285 -0.81822,-0.70132 -1.89956,-1.05213 -3.24373,-1.05213 -1.92866,0 -3.76935,0.70161 -5.52268,2.10427 -1.75328,1.40261 -3.33142,3.12675 -4.73408,5.1723 -1.1784,1.79322 -2.13208,3.69866 -2.86133,5.71646 -1.16271,1.30885 -2.36964,2.61804 -3.62615,3.9269 -1.34417,1.4611 -2.65921,2.80499 -3.94498,4.03232 -1.28578,1.16888 -2.48367,2.13307 -3.59411,2.89285 -1.11039,0.75977 -2.04578,1.13999 -2.80551,1.13999 -0.70134,0 -1.05214,-0.38022 -1.05214,-1.13999 0,-0.526 0.0877,-1.13938 0.26303,-1.84072 0.23378,-0.75977 0.5263,-1.54856 0.87696,-2.36678 0.35066,-0.87667 0.73035,-1.75368 1.13946,-2.63034 0.40911,-0.87666 0.81821,-1.72375 1.22732,-2.54197 0.29222,-0.58444 0.64303,-1.34434 1.05214,-2.27945 0.46751,-0.93511 0.87665,-1.92871 1.22731,-2.9807 0.40912,-1.052 0.75992,-2.1039 1.05214,-3.15589 0.29222,-1.052 0.43821,-1.9873 0.43821,-2.80552 0,-0.99355 -0.3508,-1.75346 -1.05213,-2.27945 -0.70133,-0.58444 -1.57782,-0.87643 -2.62982,-0.87643 -2.68843,0 -5.31847,1.08134 -7.88997,3.24373 -2.57155,2.10399 -5.05554,4.76288 -7.45176,7.97731 0.46756,-1.16889 0.93495,-2.51277 1.4025,-4.03232 0.46755,-1.578 0.70125,-2.7764 0.70125,-3.59462 0,-0.87666 -0.29199,-1.72375 -0.87643,-2.54197 -0.52599,-0.81822 -1.31479,-1.22732 -2.36679,-1.22732 z m 41.02756,2.27894 c 0.40907,0 0.87701,0.11711 1.40301,0.35088 0.58444,0.23378 0.87644,0.67228 0.87644,1.31517 0,0.64289 -0.2631,1.34398 -0.7891,2.10375 -0.46756,0.75977 -1.22746,1.54857 -2.27946,2.36679 -1.05195,0.81822 -2.39588,1.60752 -4.03232,2.3673 -1.63639,0.75977 -3.59423,1.43198 -5.87355,2.01642 0.40911,-0.93511 0.99365,-2.01641 1.75338,-3.24374 0.75978,-1.22733 1.60686,-2.36693 2.54197,-3.41892 0.93511,-1.11044 1.92871,-2.01633 2.98071,-2.71767 1.1104,-0.75977 2.25004,-1.13998 3.41892,-1.13998 z"
         sodipodi:nodetypes="scccscccccccscssscsccssccccsccscsccsccscscsccsscccsssccssccsscscccscscsccccccscccscccsccccssccssscccccccssscsccssccccsccscsccsccscscsccscsccssccssccsscscsccscscsccccscsccssssccccsssccssccsscscccscsscscsscsccsc" />
      <path
         d="m 182.13339,146.7659 c -1.227,0 -2.337,0.4674 -3.331,1.4025 -0.935,0.9352 -1.753,2.0748 -2.455,3.419 -0.642,1.2857 -1.139,2.659 -1.49,4.1201 -0.292,1.4611 -0.439,2.7179 -0.439,3.7698 0,3.4365 0.981,5.9472 2.936,7.5372 1.389,1.118 3.204,1.743 4.867,1.755 2.162,0 4.208,-0.759 6.137,-2.279 1.987,-1.519 3.886,-3.3021 5.698,-5.3476 0.097,-0.0973 0.166,-0.213 0.21,-0.3463 0.685,-0.7937 1.425,-1.6611 2.245,-2.6344 0.993,-1.1105 1.957,-2.1913 2.892,-3.2432 0.994,-1.1105 1.9,-2.0752 2.718,-2.8934 0.877,-0.8767 1.549,-1.4901 2.017,-1.8407 0.876,-0.6429 1.607,-0.9643 2.191,-0.9643 0.409,0 0.672,0.146 0.789,0.4382 0.117,0.2922 0.175,0.643 0.175,1.0521 0,0.9351 -0.292,2.2502 -0.876,3.945 -0.526,1.6949 -1.198,3.5356 -2.016,5.5227 -0.819,1.9871 -1.725,4.0039 -2.718,6.0489 -0.935,1.987 -1.841,3.77 -2.718,5.348 -0.292,0.584 -0.438,1.023 -0.438,1.315 0,0.76 0.38,1.139 1.139,1.139 0.117,0 0.293,-0.058 0.527,-0.175 0.233,-0.058 0.467,-0.263 0.701,-0.614 0.35,-0.584 0.847,-1.431 1.49,-2.542 0.643,-1.168 1.374,-2.425 2.192,-3.769 0.876,-1.403 1.812,-2.8641 2.805,-4.3836 0.994,-1.5196 2.016,-2.9517 3.068,-4.2959 1.929,-2.3962 3.946,-4.4711 6.05,-6.2244 2.162,-1.7533 4.266,-2.6298 6.311,-2.6298 0.468,0 0.819,0.0877 1.052,0.263 0.293,0.1169 0.439,0.4966 0.439,1.1395 0,0.526 -0.117,1.1982 -0.351,2.0164 -0.233,0.7598 -0.526,1.6074 -0.877,2.5425 -0.35,0.8766 -0.73,1.7825 -1.139,2.7176 -0.409,0.9351 -0.818,1.8116 -1.227,2.6299 -0.994,2.0455 -1.871,3.9748 -2.631,5.7858 -0.701,1.812 -1.051,3.361 -1.051,4.647 0,0.759 0.233,1.49 0.701,2.191 0.526,0.643 1.344,0.965 2.455,0.965 1.052,0 2.249,-0.41 3.594,-1.228 1.344,-0.876 2.718,-1.958 4.12,-3.244 1.403,-1.285 2.806,-2.688 4.208,-4.208 1.461,-1.5776 2.835,-3.068 4.12,-4.4706 0.176,-0.1754 0.264,-0.4091 0.264,-0.7013 0,-0.7597 -0.351,-1.1394 -1.053,-1.1394 -0.292,0 -0.555,0.1165 -0.789,0.3503 -1.285,1.4611 -2.629,2.9226 -4.032,4.3837 -1.344,1.4613 -2.659,2.8053 -3.945,4.0323 -1.286,1.169 -2.484,2.133 -3.595,2.893 -1.11,0.76 -2.045,1.14 -2.805,1.14 -0.701,0 -1.052,-0.38 -1.052,-1.14 0,-0.526 0.088,-1.139 0.263,-1.841 0.234,-0.76 0.526,-1.548 0.877,-2.367 0.35,-0.876 0.731,-1.753 1.14,-2.6299 0.409,-0.8767 0.818,-1.7238 1.227,-2.542 0.292,-0.5844 0.643,-1.3443 1.052,-2.2794 0.467,-0.9352 0.876,-1.9288 1.227,-2.9807 0.409,-1.052 0.76,-2.1039 1.052,-3.1559 0.292,-1.052 0.438,-1.9873 0.438,-2.8056 0,-0.9935 -0.35,-1.7534 -1.051,-2.2794 -0.702,-0.5844 -1.579,-0.8764 -2.631,-0.8764 -2.688,0 -5.318,1.0813 -7.89,3.2437 -2.571,2.104 -5.055,4.7629 -7.451,7.9773 0.467,-1.1689 0.935,-2.5128 1.403,-4.0323 0.467,-1.578 0.701,-2.7764 0.701,-3.5946 0,-0.8767 -0.293,-1.7238 -0.877,-2.542 -0.526,-0.8182 -1.315,-1.2273 -2.367,-1.2273 -1.052,0 -2.221,0.4674 -3.507,1.4025 -0.526,0.4091 -1.227,1.0519 -2.103,1.9285 -0.877,0.8767 -1.812,1.8703 -2.806,2.9808 -0.993,1.0519 -1.987,2.1621 -2.981,3.331 -0.935,1.1104 -1.782,2.1041 -2.542,2.9807 -0.129,0.1296 -0.222,0.2685 -0.28,0.416 -3.871,4.34 -7.139,6.51 -9.802,6.51 -2.532,0.167 -4.767,-1.691 -5.347,-4.0326 -0.234,-1.2273 -0.351,-2.2503 -0.351,-3.0685 0,-0.8767 0.117,-1.8997 0.351,-3.0686 0.292,-1.2273 0.672,-2.3958 1.14,-3.5062 0.526,-1.1105 1.11,-2.0458 1.753,-2.8056 0.701,-0.7597 1.461,-1.1394 2.279,-1.1394 0.351,0 0.643,0.1754 0.877,0.526 0.234,0.2923 0.409,0.6719 0.526,1.1395 0.117,0.4091 0.175,0.8477 0.175,1.3152 0.059,0.4675 0.088,0.8472 0.088,1.1394 0,2.2209 -0.468,4.3836 -1.403,6.4875 -0.564,1.2345 -1.215,2.4364 -1.95,3.607 0.486,0.8022 1.189,1.0393 1.98,1.0493 0.76,-1.2677 1.452,-2.615 2.074,-4.0429 0.994,-2.2793 1.491,-4.6756 1.491,-7.1887 0,-0.5845 -0.059,-1.2272 -0.176,-1.9286 -0.117,-0.7013 -0.321,-1.3736 -0.613,-2.0164 -0.234,-0.6429 -0.614,-1.1686 -1.14,-1.5777 -0.526,-0.4675 -1.169,-0.7012 -1.929,-0.7012 z m -69.431,0.2631 c -1.052,0 -2.221,0.4674 -3.507,1.4025 -0.351,0.2922 -1.052,0.9933 -2.104,2.1037 -0.994,1.052 -2.192,2.3381 -3.595,3.8577 -0.343,0.3877 -0.76,0.8497 -1.118,1.2526 -0.707,1.3487 0.371,2.2764 1.669,1.3989 0.303,-0.3435 0.646,-0.7415 0.94,-1.0738 1.344,-1.5195 2.513,-2.8052 3.507,-3.8572 1.052,-1.052 1.723,-1.6948 2.015,-1.9285 0.877,-0.6429 1.608,-0.9643 2.193,-0.9643 0.409,0 0.671,0.146 0.788,0.4382 0.117,0.2922 0.176,0.643 0.176,1.0521 0,0.9351 -0.293,2.2502 -0.877,3.945 -0.526,1.6949 -1.198,3.5356 -2.016,5.5227 -0.819,1.9871 -1.725,4.0039 -2.718,6.0489 -0.935,1.987 -1.841,3.77 -2.718,5.348 -0.292,0.584 -0.438,1.023 -0.438,1.315 0,0.76 0.38,1.139 1.14,1.139 0.117,0 0.292,-0.058 0.525,-0.175 0.234,-0.058 0.468,-0.263 0.702,-0.614 0.351,-0.584 0.848,-1.431 1.491,-2.542 0.642,-1.168 1.373,-2.425 2.191,-3.769 0.877,-1.403 1.812,-2.8641 2.805,-4.3836 0.994,-1.5196 2.017,-2.9517 3.069,-4.2959 1.928,-2.3962 3.945,-4.4711 6.048,-6.2244 2.163,-1.7533 4.267,-2.6298 6.313,-2.6298 0.467,0 0.818,0.0877 1.052,0.263 0.292,0.1169 0.438,0.4966 0.438,1.1395 0,0.526 -0.117,1.1982 -0.351,2.0164 -0.234,0.7598 -0.526,1.6074 -0.876,2.5425 -0.351,0.8766 -0.731,1.7825 -1.14,2.7176 -0.409,0.9351 -0.818,1.8116 -1.227,2.6299 -0.994,2.0455 -1.871,3.9748 -2.63,5.7858 -0.702,1.812 -1.052,3.361 -1.052,4.647 0,0.759 0.233,1.49 0.701,2.191 0.526,0.643 1.344,0.965 2.454,0.965 1.052,0 2.251,-0.41 3.595,-1.228 1.344,-0.876 2.718,-1.958 4.12,-3.244 1.403,-1.285 2.806,-2.688 4.208,-4.208 0.299,-0.322 0.551,-0.598 0.843,-0.914 -0.153,0.88 -0.229,1.711 -0.229,2.493 0,1.928 0.526,3.652 1.578,5.172 0.993,1.461 2.689,2.192 5.085,2.192 2.747,0 5.874,-1.169 9.38,-3.507 2.655,-1.741 5.343,-4.018 8.063,-6.829 -0.173,0.975 -0.261,1.907 -0.261,2.796 0,0.877 0.117,1.754 0.351,2.63 0.234,0.877 0.614,1.666 1.14,2.367 0.467,0.701 1.081,1.286 1.841,1.753 0.76,0.41 1.665,0.614 2.717,0.614 2.046,0 3.945,-0.614 5.698,-1.841 1.261,-0.882 2.444,-1.874 3.554,-2.968 -0.81,-0.105 -1.421,-0.558 -1.988,-1.087 -0.74,0.679 -1.548,1.359 -2.442,2.039 -1.461,1.11 -3.069,1.666 -4.822,1.666 -1.344,0 -2.337,-0.526 -2.98,-1.578 -0.585,-1.052 -0.877,-2.251 -0.877,-3.595 0,-1.286 0.234,-2.717 0.701,-4.2954 0.468,-1.6365 1.14,-3.244 2.017,-4.822 0.876,-1.578 1.928,-3.0973 3.155,-4.5583 1.286,-1.5196 2.748,-2.8052 4.384,-3.8572 0.351,-0.2338 0.526,-0.5557 0.526,-0.9648 0,-0.2922 -0.117,-0.5259 -0.351,-0.7012 -0.233,-0.2338 -0.497,-0.3504 -0.789,-0.3504 -0.117,0 -0.292,0.0583 -0.526,0.1752 -1.87,1.2273 -3.506,2.6595 -4.909,4.2958 -1.403,1.6365 -2.601,3.3312 -3.594,5.0845 -0.441,0.8262 -0.828,1.6522 -1.164,2.4784 -0.058,0.0434 -0.108,0.0939 -0.151,0.1514 -3.916,4.5002 -7.54,7.744 -10.871,9.731 -3.273,1.987 -5.932,2.981 -7.978,2.981 -1.519,0 -2.63,-0.439 -3.331,-1.315 -0.643,-0.935 -0.964,-2.163 -0.964,-3.682 0,-1.52 0.263,-3.2144 0.789,-5.0846 5.435,-1.1689 9.467,-2.8053 12.097,-4.9093 2.689,-2.1624 4.033,-4.2667 4.033,-6.3123 0,-1.2273 -0.409,-2.1915 -1.227,-2.8929 -0.818,-0.7013 -1.9,-1.0521 -3.244,-1.0521 -1.929,0 -3.769,0.7016 -5.523,2.1043 -1.753,1.4026 -3.331,3.1267 -4.734,5.1723 -1.178,1.7932 -2.132,3.6986 -2.861,5.7164 -1.163,1.3089 -2.37,2.6181 -3.626,3.9269 -1.344,1.4613 -2.659,2.8053 -3.945,4.0323 -1.286,1.169 -2.484,2.133 -3.594,2.893 -1.111,0.76 -2.046,1.14 -2.806,1.14 -0.701,0 -1.052,-0.38 -1.052,-1.14 0,-0.526 0.088,-1.139 0.263,-1.841 0.234,-0.76 0.527,-1.548 0.877,-2.367 0.351,-0.876 0.731,-1.753 1.14,-2.6299 0.409,-0.8767 0.818,-1.7238 1.227,-2.542 0.292,-0.5844 0.643,-1.3443 1.052,-2.2794 0.468,-0.9352 0.877,-1.9288 1.227,-2.9807 0.41,-1.052 0.76,-2.1039 1.053,-3.1559 0.292,-1.052 0.438,-1.9873 0.438,-2.8056 0,-0.9935 -0.351,-1.7534 -1.052,-2.2794 -0.702,-0.5844 -1.578,-0.8764 -2.63,-0.8764 -2.689,0 -5.319,1.0813 -7.89,3.2437 -2.572,2.104 -5.056,4.7629 -7.452,7.9773 0.468,-1.1689 0.935,-2.5128 1.403,-4.0323 0.467,-1.578 0.701,-2.7764 0.701,-3.5946 0,-0.8767 -0.292,-1.7238 -0.877,-2.542 -0.526,-0.8182 -1.314,-1.2273 -2.366,-1.2273 z m 41.027,2.2789 c 0.409,0 0.877,0.1171 1.403,0.3509 0.585,0.2338 0.877,0.6723 0.877,1.3152 0,0.6429 -0.263,1.3439 -0.789,2.1037 -0.468,0.7598 -1.228,1.5486 -2.28,2.3668 -1.052,0.8182 -2.396,1.6075 -4.032,2.3673 -1.637,0.7598 -3.595,1.432 -5.874,2.0164 0.409,-0.9351 0.994,-2.0164 1.754,-3.2437 0.759,-1.2273 1.606,-2.3669 2.542,-3.4189 0.935,-1.1105 1.928,-2.0164 2.98,-2.7177 1.111,-0.7598 2.25,-1.14 3.419,-1.14 z"
         style="mix-blend-mode:normal;fill:#ff5599;fill-opacity:1;stroke:#ff5599;stroke-width:3.17501;stroke-dasharray:none;stroke-opacity:1;filter:url(#filter50991)"
         id="path39379" />
      <path
         d="m 182.14297,146.76615 c -1.227,0 -2.337,0.4674 -3.331,1.4025 -0.935,0.9352 -1.753,2.0748 -2.455,3.419 -0.642,1.2857 -1.139,2.659 -1.49,4.1201 -0.292,1.4611 -0.439,2.7179 -0.439,3.7698 0,3.4365 0.981,5.9469 2.936,7.5371 1.389,1.1177 3.204,1.7427 4.867,1.7554 2.162,0 4.208,-0.7594 6.137,-2.2789 1.987,-1.5195 3.886,-3.3025 5.698,-5.348 0.097,-0.0973 0.166,-0.213 0.21,-0.3463 0.685,-0.7937 1.425,-1.6611 2.245,-2.6344 0.993,-1.1105 1.957,-2.1913 2.892,-3.2432 0.994,-1.1105 1.9,-2.0752 2.718,-2.8934 0.877,-0.8767 1.549,-1.4901 2.017,-1.8407 0.876,-0.6429 1.607,-0.9643 2.191,-0.9643 0.409,0 0.672,0.146 0.789,0.4382 0.117,0.2922 0.175,0.643 0.175,1.0521 0,0.9351 -0.292,2.2502 -0.876,3.945 -0.526,1.6949 -1.198,3.5356 -2.016,5.5227 -0.819,1.9871 -1.725,4.0037 -2.718,6.0492 -0.935,1.9872 -1.841,3.7695 -2.718,5.3475 -0.292,0.5845 -0.438,1.023 -0.438,1.3152 0,0.7598 0.38,1.1395 1.139,1.1395 0.117,0 0.293,-0.0583 0.527,-0.1752 0.233,-0.0584 0.467,-0.2633 0.701,-0.6139 0.35,-0.5845 0.847,-1.4316 1.49,-2.542 0.643,-1.1688 1.374,-2.4256 2.192,-3.7698 0.876,-1.4027 1.812,-2.8637 2.805,-4.3832 0.994,-1.5196 2.016,-2.9517 3.068,-4.2959 1.929,-2.3962 3.946,-4.4711 6.05,-6.2244 2.162,-1.7533 4.266,-2.6298 6.311,-2.6298 0.468,0 0.819,0.0877 1.052,0.263 0.293,0.1169 0.439,0.4966 0.439,1.1395 0,0.526 -0.117,1.1982 -0.351,2.0164 -0.233,0.7598 -0.526,1.6074 -0.877,2.5425 -0.35,0.8766 -0.73,1.7825 -1.139,2.7176 -0.409,0.9351 -0.818,1.8116 -1.227,2.6299 -0.994,2.0455 -1.871,3.9744 -2.631,5.7862 -0.701,1.8118 -1.051,3.3604 -1.051,4.6462 0,0.7598 0.233,1.4903 0.701,2.1916 0.526,0.6429 1.344,0.9643 2.455,0.9643 1.052,0 2.249,-0.4091 3.594,-1.2273 1.344,-0.8767 2.718,-1.958 4.12,-3.2438 1.403,-1.2857 2.806,-2.6884 4.208,-4.208 1.461,-1.578 2.835,-3.0684 4.12,-4.471 0.176,-0.1754 0.264,-0.4091 0.264,-0.7013 0,-0.7597 -0.351,-1.1394 -1.053,-1.1394 -0.292,0 -0.555,0.1165 -0.789,0.3503 -1.285,1.4611 -2.629,2.9226 -4.032,4.3837 -1.344,1.4611 -2.659,2.805 -3.945,4.0324 -1.286,1.1688 -2.484,2.133 -3.595,2.8928 -1.11,0.7598 -2.045,1.14 -2.805,1.14 -0.701,0 -1.052,-0.3802 -1.052,-1.14 0,-0.526 0.088,-1.1394 0.263,-1.8407 0.234,-0.7598 0.526,-1.5486 0.877,-2.3668 0.35,-0.8767 0.731,-1.7537 1.14,-2.6303 0.409,-0.8767 0.818,-1.7238 1.227,-2.542 0.292,-0.5844 0.643,-1.3443 1.052,-2.2794 0.467,-0.9352 0.876,-1.9288 1.227,-2.9807 0.409,-1.052 0.76,-2.1039 1.052,-3.1559 0.292,-1.052 0.438,-1.9873 0.438,-2.8056 0,-0.9935 -0.35,-1.7534 -1.051,-2.2794 -0.702,-0.5844 -1.579,-0.8764 -2.631,-0.8764 -2.688,0 -5.318,1.0813 -7.89,3.2437 -2.571,2.104 -5.055,4.7629 -7.451,7.9773 0.467,-1.1689 0.935,-2.5128 1.403,-4.0323 0.467,-1.578 0.701,-2.7764 0.701,-3.5946 0,-0.8767 -0.293,-1.7238 -0.877,-2.542 -0.526,-0.8182 -1.315,-1.2273 -2.367,-1.2273 -1.052,0 -2.221,0.4674 -3.507,1.4025 -0.526,0.4091 -1.227,1.0519 -2.103,1.9285 -0.877,0.8767 -1.812,1.8703 -2.806,2.9808 -0.993,1.0519 -1.987,2.1621 -2.981,3.331 -0.935,1.1104 -1.782,2.1041 -2.542,2.9807 -0.129,0.1296 -0.222,0.2685 -0.28,0.416 -3.871,4.3397 -7.139,6.5097 -9.802,6.5097 -2.532,0.1674 -4.767,-1.6906 -5.347,-4.0323 -0.234,-1.2273 -0.351,-2.2503 -0.351,-3.0685 0,-0.8767 0.117,-1.8997 0.351,-3.0686 0.292,-1.2273 0.672,-2.3958 1.14,-3.5062 0.526,-1.1105 1.11,-2.0458 1.753,-2.8056 0.701,-0.7597 1.461,-1.1394 2.279,-1.1394 0.351,0 0.643,0.1754 0.877,0.526 0.234,0.2923 0.409,0.6719 0.526,1.1395 0.117,0.4091 0.175,0.8477 0.175,1.3152 0.059,0.4675 0.088,0.8472 0.088,1.1394 0,2.2209 -0.468,4.3836 -1.403,6.4875 -0.564,1.2345 -1.215,2.4364 -1.95,3.607 0.486,0.8022 1.189,1.0398 1.98,1.0491 0.76,-1.2675 1.452,-2.6148 2.074,-4.0427 0.994,-2.2793 1.491,-4.6756 1.491,-7.1887 0,-0.5845 -0.059,-1.2272 -0.176,-1.9286 -0.117,-0.7013 -0.321,-1.3736 -0.613,-2.0164 -0.234,-0.6429 -0.614,-1.1686 -1.14,-1.5777 -0.526,-0.4675 -1.169,-0.7012 -1.929,-0.7012 z m -69.431,0.2631 c -1.052,0 -2.221,0.4674 -3.507,1.4025 -0.351,0.2922 -1.052,0.9933 -2.104,2.1037 -0.994,1.052 -2.192,2.3381 -3.595,3.8577 -0.343,0.3877 -0.76,0.8497 -1.118,1.2526 -0.707,1.3487 0.371,2.2764 1.669,1.3989 0.303,-0.3435 0.646,-0.7415 0.94,-1.0738 1.344,-1.5195 2.513,-2.8052 3.507,-3.8572 1.052,-1.052 1.723,-1.6948 2.015,-1.9285 0.877,-0.6429 1.608,-0.9643 2.193,-0.9643 0.409,0 0.671,0.146 0.788,0.4382 0.117,0.2922 0.176,0.643 0.176,1.0521 0,0.9351 -0.293,2.2502 -0.877,3.945 -0.526,1.6949 -1.198,3.5356 -2.016,5.5227 -0.819,1.9871 -1.725,4.0037 -2.718,6.0492 -0.935,1.9872 -1.841,3.7695 -2.718,5.3475 -0.292,0.5845 -0.438,1.023 -0.438,1.3152 0,0.7598 0.38,1.1395 1.14,1.1395 0.117,0 0.292,-0.0583 0.525,-0.1752 0.234,-0.0584 0.468,-0.2633 0.702,-0.6139 0.351,-0.5845 0.848,-1.4316 1.491,-2.542 0.642,-1.1688 1.373,-2.4256 2.191,-3.7698 0.877,-1.4027 1.812,-2.8637 2.805,-4.3832 0.994,-1.5196 2.017,-2.9517 3.069,-4.2959 1.928,-2.3962 3.945,-4.4711 6.048,-6.2244 2.163,-1.7533 4.267,-2.6298 6.313,-2.6298 0.467,0 0.818,0.0877 1.052,0.263 0.292,0.1169 0.438,0.4966 0.438,1.1395 0,0.526 -0.117,1.1982 -0.351,2.0164 -0.234,0.7598 -0.526,1.6074 -0.876,2.5425 -0.351,0.8766 -0.731,1.7825 -1.14,2.7176 -0.409,0.9351 -0.818,1.8116 -1.227,2.6299 -0.994,2.0455 -1.871,3.9744 -2.63,5.7862 -0.702,1.8118 -1.052,3.3604 -1.052,4.6462 0,0.7598 0.233,1.4903 0.701,2.1916 0.526,0.6429 1.344,0.9643 2.454,0.9643 1.052,0 2.251,-0.4091 3.595,-1.2273 1.344,-0.8767 2.718,-1.958 4.12,-3.2438 1.403,-1.2857 2.806,-2.6884 4.208,-4.208 0.299,-0.3226 0.551,-0.5989 0.843,-0.9141 -0.153,0.8795 -0.229,1.7107 -0.229,2.4923 0,1.9287 0.526,3.6528 1.578,5.1723 0.993,1.4611 2.689,2.1916 5.085,2.1916 2.747,0 5.874,-1.169 9.38,-3.5067 2.655,-1.7411 5.343,-4.0182 8.063,-6.8291 -0.173,0.9752 -0.261,1.9076 -0.261,2.7962 0,0.8767 0.117,1.7537 0.351,2.6304 0.234,0.8766 0.614,1.6654 1.14,2.3668 0.467,0.7012 1.081,1.2858 1.841,1.7533 0.76,0.4091 1.665,0.614 2.717,0.614 2.046,0 3.945,-0.614 5.698,-1.8413 1.261,-0.8826 2.444,-1.874 3.554,-2.9683 -0.81,-0.105 -1.421,-0.5577 -1.988,-1.0873 -0.74,0.6797 -1.548,1.3595 -2.442,2.0392 -1.461,1.1104 -3.069,1.6661 -4.822,1.6661 -1.344,0 -2.337,-0.5263 -2.98,-1.5783 -0.585,-1.0519 -0.877,-2.2504 -0.877,-3.5946 0,-1.2857 0.234,-2.7173 0.701,-4.2953 0.468,-1.6365 1.14,-3.244 2.017,-4.822 0.876,-1.578 1.928,-3.0973 3.155,-4.5583 1.286,-1.5196 2.748,-2.8052 4.384,-3.8572 0.351,-0.2338 0.526,-0.5557 0.526,-0.9648 0,-0.2922 -0.117,-0.5259 -0.351,-0.7012 -0.233,-0.2338 -0.497,-0.3504 -0.789,-0.3504 -0.117,0 -0.292,0.0583 -0.526,0.1752 -1.87,1.2273 -3.506,2.6595 -4.909,4.2958 -1.403,1.6365 -2.601,3.3312 -3.594,5.0845 -0.441,0.8262 -0.828,1.6522 -1.164,2.4784 -0.058,0.0434 -0.108,0.0939 -0.151,0.1514 -3.916,4.5002 -7.54,7.7441 -10.871,9.7312 -3.273,1.9871 -5.932,2.9807 -7.978,2.9807 -1.519,0 -2.63,-0.4385 -3.331,-1.3151 -0.643,-0.9351 -0.964,-2.1624 -0.964,-3.682 0,-1.5195 0.263,-3.2142 0.789,-5.0844 5.435,-1.1689 9.467,-2.8053 12.097,-4.9093 2.689,-2.1624 4.033,-4.2667 4.033,-6.3123 0,-1.2273 -0.409,-2.1915 -1.227,-2.8929 -0.818,-0.7013 -1.9,-1.0521 -3.244,-1.0521 -1.929,0 -3.769,0.7016 -5.523,2.1043 -1.753,1.4026 -3.331,3.1267 -4.734,5.1723 -1.178,1.7932 -2.132,3.6986 -2.861,5.7164 -1.163,1.3089 -2.37,2.6181 -3.626,3.9269 -1.344,1.4611 -2.659,2.805 -3.945,4.0324 -1.286,1.1688 -2.484,2.133 -3.594,2.8928 -1.111,0.7598 -2.046,1.14 -2.806,1.14 -0.701,0 -1.052,-0.3802 -1.052,-1.14 0,-0.526 0.088,-1.1394 0.263,-1.8407 0.234,-0.7598 0.527,-1.5486 0.877,-2.3668 0.351,-0.8767 0.731,-1.7537 1.14,-2.6303 0.409,-0.8767 0.818,-1.7238 1.227,-2.542 0.292,-0.5844 0.643,-1.3443 1.052,-2.2794 0.468,-0.9352 0.877,-1.9288 1.227,-2.9807 0.41,-1.052 0.76,-2.1039 1.053,-3.1559 0.292,-1.052 0.438,-1.9873 0.438,-2.8056 0,-0.9935 -0.351,-1.7534 -1.052,-2.2794 -0.702,-0.5844 -1.578,-0.8764 -2.63,-0.8764 -2.689,0 -5.319,1.0813 -7.89,3.2437 -2.572,2.104 -5.056,4.7629 -7.452,7.9773 0.468,-1.1689 0.935,-2.5128 1.403,-4.0323 0.467,-1.578 0.701,-2.7764 0.701,-3.5946 0,-0.8767 -0.292,-1.7238 -0.877,-2.542 -0.526,-0.8182 -1.314,-1.2273 -2.366,-1.2273 z m 41.027,2.2789 c 0.409,0 0.877,0.1171 1.403,0.3509 0.585,0.2338 0.877,0.6723 0.877,1.3152 0,0.6429 -0.263,1.3439 -0.789,2.1037 -0.468,0.7598 -1.228,1.5486 -2.28,2.3668 -1.052,0.8182 -2.396,1.6075 -4.032,2.3673 -1.637,0.7598 -3.595,1.432 -5.874,2.0164 0.409,-0.9351 0.994,-2.0164 1.754,-3.2437 0.759,-1.2273 1.606,-2.3669 2.542,-3.4189 0.935,-1.1105 1.928,-2.0164 2.98,-2.7177 1.111,-0.7598 2.25,-1.14 3.419,-1.14 z"
         style="mix-blend-mode:normal;fill:#ffaacc;fill-opacity:1;stroke:#ffaacc;stroke-width:0.793752;stroke-dasharray:none;stroke-opacity:1;filter:url(#filter51721)"
         id="path39381" />
      <path
         id="path63626"
         style="font-size:87.6664px;font-family:'Learning Curve';-inkscape-font-specification:'Learning Curve, Normal';opacity:0.146245;fill:#000000;fill-opacity:1;stroke:none;stroke-width:0.267833;paint-order:stroke fill markers"
         d="m 185.4102,151.82265 c -1.24074,0 -2.36307,0.43032 -3.3675,1.29123 -0.94532,0.86092 -1.77248,1.9101 -2.48147,3.14766 -0.64991,1.18376 -1.15215,2.4481 -1.50664,3.79328 -0.29542,1.34518 -0.44354,2.50221 -0.44354,3.4707 0,3.16378 0.9916,5.47504 2.96785,6.93904 1.40371,1.02903 3.23903,1.6045 4.92012,1.61618 2.18606,0 4.25393,-0.69913 6.20368,-2.09813 2.00883,-1.39896 3.92913,-3.04045 5.76067,-4.92369 0.0984,-0.0896 0.16833,-0.19604 0.21212,-0.31876 0.69244,-0.73078 1.44072,-1.52932 2.26936,-2.42545 1.00441,-1.02234 1.97916,-2.01738 2.92448,-2.98591 1.00441,-1.02234 1.92023,-1.9105 2.74739,-2.66381 0.88625,-0.8071 1.5658,-1.37183 2.03847,-1.69467 0.88625,-0.59189 1.62473,-0.88778 2.21556,-0.88778 0.41359,0 0.67956,0.13441 0.79774,0.40344 0.11816,0.26904 0.17708,0.59201 0.17708,0.96867 0,0.86091 -0.29518,2.07161 -0.886,3.63198 -0.53176,1.56041 -1.21131,3.25506 -2.03848,5.08451 -0.82716,1.82941 -1.74296,3.68606 -2.74738,5.56931 -0.94532,1.82945 -1.86114,3.47042 -2.74739,4.92322 -0.2954,0.53807 -0.44299,0.94178 -0.44299,1.21082 0,0.69949 0.38388,1.04906 1.15191,1.04906 0.11817,0 0.29548,-0.0537 0.53182,-0.16129 0.23635,-0.0538 0.47259,-0.24236 0.70892,-0.56521 0.35451,-0.53807 0.85674,-1.31795 1.50665,-2.34029 0.64992,-1.0761 1.38841,-2.23313 2.21557,-3.4707 0.8862,-1.29137 1.83182,-2.63645 2.83619,-4.03544 1.00442,-1.39899 2.03809,-2.71746 3.10158,-3.95503 1.94976,-2.2061 3.98841,-4.11638 6.11541,-5.7306 2.18603,-1.61422 4.31286,-2.42117 6.38078,-2.42117 0.47266,0 0.82731,0.0807 1.06364,0.24216 0.29542,0.10762 0.44301,0.45719 0.44301,1.04907 0,0.48427 -0.11786,1.10313 -0.35421,1.85644 -0.23633,0.69949 -0.53203,1.47988 -0.88653,2.34076 -0.3545,0.8071 -0.73833,1.64113 -1.15192,2.50205 -0.41359,0.86091 -0.82716,1.66786 -1.24075,2.42117 -1.00442,1.88325 -1.89102,3.65915 -2.65909,5.32714 -0.70899,1.66803 -1.06312,3.09385 -1.06312,4.2776 0,0.69949 0.23625,1.37204 0.70892,2.01772 0.53175,0.59189 1.3589,0.88779 2.48148,0.88779 1.0635,0 2.27447,-0.37665 3.63339,-1.12995 1.35891,-0.80711 2.74775,-1.80261 4.16576,-2.98638 1.41799,-1.18376 2.83603,-2.47517 4.25402,-3.87416 1.47708,-1.4528 2.86538,-2.82494 4.16522,-4.11631 0.17726,-0.16142 0.26591,-0.37658 0.26591,-0.64562 0,-0.69949 -0.35464,-1.04906 -1.06363,-1.04906 -0.29542,0 -0.56139,0.10734 -0.79774,0.32257 -1.29981,1.34518 -2.65841,2.69073 -4.0764,4.03592 -1.35892,1.34517 -2.6883,2.58244 -3.98814,3.71239 -1.29981,1.07614 -2.51132,1.96384 -3.63391,2.66333 -1.12259,0.69949 -2.06759,1.04955 -2.83567,1.04955 -0.709,0 -1.06363,-0.35006 -1.06363,-1.04955 0,-0.48426 0.0886,-1.04898 0.2659,-1.69467 0.23633,-0.69949 0.53152,-1.4257 0.88602,-2.179 0.3545,-0.80712 0.73887,-1.61455 1.15244,-2.42165 0.41359,-0.80711 0.8272,-1.58699 1.24074,-2.34029 0.29541,-0.53807 0.64954,-1.23768 1.06311,-2.0986 0.47268,-0.86092 0.88624,-1.77569 1.24075,-2.74421 0.41358,-0.96854 0.76822,-1.93698 1.06363,-2.9055 0.29543,-0.96854 0.44301,-1.82963 0.44301,-2.58293 0,-0.91472 -0.35411,-1.61434 -1.06312,-2.0986 -0.709,-0.53807 -1.5956,-0.8069 -2.65909,-0.8069 -2.71783,0 -5.37658,0.99555 -7.97625,2.98638 -2.59962,1.93706 -5.11082,4.38499 -7.53323,7.34439 0.47267,-1.07615 0.94569,-2.31341 1.41837,-3.7124 0.47265,-1.4528 0.70891,-2.55612 0.70891,-3.30942 0,-0.80711 -0.2957,-1.58699 -0.88653,-2.34029 -0.53176,-0.7533 -1.32918,-1.12995 -2.39268,-1.12995 -1.0635,0 -2.24529,0.43032 -3.54512,1.29124 -0.53174,0.37661 -1.24049,0.96844 -2.12674,1.77555 -0.88625,0.80711 -1.83178,1.72188 -2.83619,2.74422 -1.00443,0.96849 -2.00889,1.99064 -3.0133,3.06678 -0.94533,1.02229 -1.8017,1.9371 -2.56977,2.74421 -0.13099,0.11929 -0.22476,0.24717 -0.28315,0.38299 -3.91389,3.99539 -7.21702,5.99322 -9.90917,5.99322 -2.56004,0.15407 -4.81959,-1.55648 -5.40597,-3.71238 -0.23633,-1.12995 -0.3542,-2.0718 -0.3542,-2.8251 0,-0.80707 0.11787,-1.74894 0.3542,-2.82509 0.29541,-1.12995 0.67978,-2.20573 1.15245,-3.22807 0.53175,-1.02233 1.12213,-1.88343 1.77203,-2.58293 0.70901,-0.69949 1.47721,-1.04906 2.30438,-1.04906 0.35451,0 0.65021,0.16148 0.88654,0.48433 0.23633,0.26904 0.41314,0.6186 0.5313,1.04907 0.11817,0.37665 0.17761,0.78039 0.17761,1.21081 0.0591,0.43046 0.0882,0.78003 0.0882,1.04907 0,2.04467 -0.47252,4.03573 -1.41785,5.97275 -0.57052,1.13659 -1.22887,2.24309 -1.9716,3.32085 0.49138,0.7385 1.20227,0.95723 2.0019,0.9658 0.76843,-1.16688 1.46772,-2.40727 2.09698,-3.72191 1.00437,-2.09849 1.50664,-4.30465 1.50664,-6.61837 0,-0.53808 -0.0594,-1.12987 -0.17762,-1.77556 -0.11815,-0.64568 -0.32468,-1.26459 -0.6201,-1.85643 -0.23633,-0.59188 -0.62069,-1.07586 -1.15245,-1.45252 -0.53175,-0.43045 -1.18157,-0.64561 -1.94966,-0.64561 z m -70.19074,0.24216 c -1.0635,0 -2.24528,0.43032 -3.54512,1.29124 -0.35448,0.26899 -1.06381,0.91449 -2.12726,1.93684 -1.00443,0.96852 -2.21541,2.15259 -3.63342,3.55158 -0.34671,0.35695 -0.7684,0.7823 -1.1305,1.15326 -0.71481,1.24165 0.37512,2.09572 1.68741,1.28789 0.3057,-0.31627 0.65252,-0.68265 0.94975,-0.98864 1.35891,-1.39894 2.5407,-2.58257 3.5451,-3.55111 1.06351,-0.96852 1.74253,-1.56032 2.03795,-1.77555 0.88625,-0.59189 1.62526,-0.88778 2.21609,-0.88778 0.41359,0 0.67904,0.13441 0.79721,0.40344 0.11816,0.26904 0.17762,0.59201 0.17762,0.96867 0,0.86091 -0.2957,2.07161 -0.88653,3.63198 -0.53176,1.56041 -1.21131,3.25506 -2.03848,5.08451 -0.82715,1.82941 -1.74297,3.68606 -2.74738,5.56931 -0.94533,1.82945 -1.86114,3.47042 -2.74738,4.92322 -0.29542,0.53807 -0.44302,0.94178 -0.44302,1.21082 0,0.69949 0.38437,1.04906 1.15245,1.04906 0.11818,0 0.29497,-0.0537 0.5313,-0.16129 0.23635,-0.0538 0.4731,-0.24236 0.70945,-0.56521 0.35446,-0.53807 0.85672,-1.31795 1.50665,-2.34029 0.64991,-1.0761 1.38839,-2.23313 2.21556,-3.4707 0.88624,-1.29137 1.83126,-2.63645 2.83567,-4.03544 1.00441,-1.39899 2.03861,-2.71746 3.1021,-3.95503 1.94974,-2.2061 3.98788,-4.11638 6.11488,-5.7306 2.18609,-1.61422 4.3134,-2.42117 6.38131,-2.42117 0.47266,0 0.8273,0.0807 1.06364,0.24216 0.29537,0.10762 0.443,0.45719 0.443,1.04907 0,0.48427 -0.11839,1.10313 -0.35472,1.85644 -0.23633,0.69949 -0.53151,1.47988 -0.88602,2.34076 -0.3545,0.8071 -0.73886,1.64113 -1.15243,2.50205 -0.4136,0.86091 -0.82717,1.66786 -1.24075,2.42117 -1.00441,1.88325 -1.89049,3.65915 -2.65858,5.32714 -0.709,1.66803 -1.06363,3.09385 -1.06363,4.2776 0,0.69949 0.23626,1.37204 0.70892,2.01772 0.53175,0.59189 1.3589,0.88779 2.48147,0.88779 1.06346,0 2.27501,-0.37665 3.63393,-1.12995 1.35887,-0.80711 2.74722,-1.80261 4.16523,-2.98638 1.41794,-1.18376 2.83603,-2.47517 4.25402,-3.87416 0.30199,-0.29702 0.55696,-0.55138 0.85152,-0.84162 -0.15396,0.80979 -0.23089,1.57497 -0.23089,2.29461 0,1.77564 0.53144,3.36295 1.59494,4.76194 1.00441,1.34518 2.71817,2.01772 5.14057,2.01772 2.77691,0 5.93793,-1.07625 9.48288,-3.22855 2.6842,-1.60295 5.40099,-3.6994 8.15075,-6.28723 -0.17488,0.89781 -0.26331,1.75622 -0.26331,2.57436 0,0.80711 0.11839,1.61453 0.35473,2.42165 0.23633,0.80711 0.62016,1.53332 1.15192,2.17901 0.47267,0.64565 1.09329,1.18381 1.86136,1.61426 0.76809,0.37666 1.68337,0.56522 2.74688,0.56522 2.06786,0 3.98817,-0.56521 5.76067,-1.69516 1.27462,-0.81257 2.47074,-1.72534 3.59265,-2.7328 -0.81864,-0.0966 -1.43636,-0.51347 -2.00973,-1.001 -0.74873,0.62576 -1.56475,1.25155 -2.46894,1.87736 -1.47708,1.02235 -3.10221,1.53388 -4.87465,1.53388 -1.35892,0 -2.36287,-0.48446 -3.01278,-1.453 -0.59083,-0.96849 -0.88654,-2.07185 -0.88654,-3.30942 0,-1.18372 0.23626,-2.50176 0.70892,-3.95456 0.47266,-1.50659 1.15221,-2.98656 2.03846,-4.43936 0.88625,-1.4528 1.94964,-2.85158 3.19039,-4.19672 1.29983,-1.399 2.77737,-2.58259 4.43165,-3.55112 0.35451,-0.21523 0.5313,-0.51161 0.5313,-0.88825 0,-0.26904 -0.11786,-0.48419 -0.35419,-0.64561 -0.23633,-0.21523 -0.50232,-0.32257 -0.79773,-0.32257 -0.11817,0 -0.29549,0.0537 -0.53182,0.16128 -1.89066,1.12996 -3.54496,2.44847 -4.96294,3.95503 -1.41801,1.50661 -2.62903,3.06684 -3.63341,4.68106 -0.44545,0.76063 -0.8365,1.52113 -1.17701,2.28177 -0.058,0.04 -0.10893,0.0864 -0.15254,0.1394 -3.95857,4.14312 -7.6218,7.12968 -10.98954,8.95914 -3.30861,1.8294 -5.99714,2.74421 -8.06505,2.74421 -1.53617,0 -2.65851,-0.40371 -3.3675,-1.21083 -0.64992,-0.8609 -0.97484,-1.99083 -0.97484,-3.38982 0,-1.39899 0.266,-2.95922 0.79775,-4.68106 5.49469,-1.07614 9.571,-2.58271 12.22974,-4.51977 2.71783,-1.99086 4.07694,-3.9282 4.07694,-5.81147 0,-1.12991 -0.41356,-2.01765 -1.24074,-2.66333 -0.82717,-0.64568 -1.92033,-0.96866 -3.2792,-0.96866 -1.94974,0 -3.81056,0.64595 -5.58307,1.93732 -1.77243,1.29133 -3.36784,2.87868 -4.78584,4.76193 -1.19127,1.65095 -2.15539,3.40521 -2.89262,5.26292 -1.17542,1.205 -2.39554,2.41032 -3.66579,3.61534 -1.35887,1.34517 -2.68828,2.58244 -3.98812,3.71239 -1.29983,1.07614 -2.51082,1.96384 -3.63341,2.66333 -1.12252,0.69949 -2.06814,1.04955 -2.83618,1.04955 -0.70901,0 -1.06365,-0.35006 -1.06365,-1.04955 0,-0.48426 0.0887,-1.04898 0.26592,-1.69467 0.23633,-0.69949 0.53204,-1.4257 0.88654,-2.179 0.35449,-0.80712 0.73833,-1.61455 1.15191,-2.42165 0.41359,-0.80711 0.82717,-1.58699 1.24075,-2.34029 0.29541,-0.53807 0.65005,-1.23768 1.06364,-2.0986 0.47263,-0.86092 0.88624,-1.77569 1.24074,-2.74421 0.41358,-0.96854 0.76822,-1.93698 1.06363,-2.9055 0.29542,-0.96854 0.443,-1.82963 0.443,-2.58293 0,-0.91472 -0.35462,-1.61434 -1.06362,-2.0986 -0.70901,-0.53807 -1.59508,-0.8069 -2.65858,-0.8069 -2.71783,0 -5.37663,0.99555 -7.97624,2.98638 -2.59967,1.93706 -5.11082,4.38499 -7.53324,7.34439 0.47268,-1.07615 0.94517,-2.31341 1.41783,-3.7124 0.47266,-1.4528 0.70892,-2.55612 0.70892,-3.30942 0,-0.80711 -0.29518,-1.58699 -0.886,-2.34029 -0.53175,-0.7533 -1.32918,-1.12995 -2.39268,-1.12995 z m 41.47616,2.09813 c 0.41354,0 0.8866,0.10782 1.41835,0.32304 0.59084,0.21524 0.88603,0.61895 0.88603,1.21083 0,0.59188 -0.26599,1.23735 -0.79773,1.93684 -0.47268,0.69949 -1.24089,1.4257 -2.30438,2.17901 -1.06346,0.7533 -2.42208,1.47998 -4.07642,2.17947 -1.65428,0.69949 -3.63352,1.31837 -5.93777,1.85644 0.41358,-0.86092 1.00451,-1.85643 1.77255,-2.98638 0.76809,-1.12995 1.62443,-2.17914 2.56977,-3.14766 0.94534,-1.02234 1.94979,-1.85636 3.0133,-2.50205 1.12254,-0.69949 2.27465,-1.04954 3.4563,-1.04954 z"
         sodipodi:nodetypes="scccscccccccscssscsccssccccsccscsccsccscscsccsscccsssccssccsscscccscscsccccccscccscccsccccssccssscccccccssscsccssccccsccscsccsccscscsccscsccssccssccsscscsccscscsccccscsccssssccccsssccssccsscscccscsscscsscsccsc" />
      <path
         id="path35881"
         style="font-size:87.6664px;font-family:'Learning Curve';-inkscape-font-specification:'Learning Curve, Normal';fill:#ffffff;fill-opacity:1;stroke:none;stroke-width:0.277622;paint-order:stroke fill markers"
         d="m 182.14654,146.76615 c -1.22732,0 -2.33751,0.4674 -3.33107,1.4025 -0.93511,0.93511 -1.75331,2.07471 -2.45463,3.41892 -0.64289,1.28577 -1.13969,2.65907 -1.49035,4.12017 -0.29222,1.46111 -0.43874,2.71785 -0.43874,3.7698 0,3.43643 0.98086,5.94686 2.93575,7.53703 1.38853,1.11771 3.204,1.74277 4.86689,1.75545 2.16243,0 4.20793,-0.75938 6.13659,-2.27894 1.98711,-1.51951 3.88664,-3.30246 5.69837,-5.348 0.0973,-0.0973 0.16651,-0.21293 0.20981,-0.34623 0.68496,-0.79375 1.42515,-1.66111 2.24483,-2.63447 0.99355,-1.11044 1.95775,-2.19123 2.89285,-3.24322 0.99355,-1.11045 1.89945,-2.07515 2.71767,-2.89337 0.87666,-0.87666 1.54887,-1.49005 2.01642,-1.84072 0.87666,-0.64289 1.60716,-0.96428 2.1916,-0.96428 0.40911,0 0.67221,0.14599 0.7891,0.43821 0.11689,0.29222 0.17518,0.64302 0.17518,1.05214 0,0.9351 -0.29199,2.25014 -0.87643,3.94498 -0.526,1.69488 -1.1982,3.53557 -2.01642,5.52268 -0.81822,1.98706 -1.72411,4.00371 -2.71767,6.04925 -0.9351,1.98711 -1.84101,3.7695 -2.71767,5.34749 -0.29222,0.58444 -0.43821,1.02294 -0.43821,1.31517 0,0.75977 0.37973,1.13946 1.13946,1.13946 0.11689,0 0.29229,-0.0583 0.52607,-0.17518 0.23378,-0.0584 0.46747,-0.26325 0.70125,-0.61392 0.35067,-0.58444 0.84747,-1.43153 1.49035,-2.54197 0.64289,-1.16884 1.37339,-2.42558 2.19161,-3.7698 0.87661,-1.40266 1.812,-2.86365 2.80551,-4.3832 0.99356,-1.51955 2.01605,-2.95165 3.06804,-4.29587 1.92867,-2.39621 3.94526,-4.47111 6.04926,-6.22444 2.16239,-1.75333 4.26622,-2.62982 6.31177,-2.62982 0.46755,0 0.81836,0.0877 1.05213,0.26303 0.29223,0.11689 0.43822,0.49658 0.43822,1.13947 0,0.526 -0.11659,1.1982 -0.35037,2.01642 -0.23378,0.75978 -0.52629,1.60742 -0.87695,2.54248 -0.35066,0.87666 -0.73035,1.78256 -1.13947,2.71767 -0.4091,0.93511 -0.8182,1.8116 -1.22731,2.62982 -0.99356,2.04555 -1.87057,3.97449 -2.63034,5.78622 -0.70133,1.81178 -1.05162,3.36047 -1.05162,4.64624 0,0.75977 0.23369,1.49027 0.70125,2.1916 0.526,0.64289 1.3442,0.96429 2.45464,0.96429 1.052,0 2.24988,-0.4091 3.5941,-1.22732 1.34421,-0.87667 2.71802,-1.95796 4.12069,-3.24374 1.40266,-1.28577 2.80536,-2.68847 4.20802,-4.20802 1.4611,-1.578 2.83439,-3.06839 4.12017,-4.47105 0.17533,-0.17533 0.26303,-0.40903 0.26303,-0.70125 0,-0.75977 -0.3508,-1.13947 -1.05213,-1.13947 -0.29222,0 -0.55532,0.11659 -0.7891,0.35037 -1.28577,1.4611 -2.62966,2.92261 -4.03232,4.38372 -1.34422,1.4611 -2.65922,2.80499 -3.94499,4.03232 -1.28577,1.16888 -2.48418,2.13307 -3.59462,2.89285 -1.11044,0.75977 -2.04523,1.13999 -2.805,1.13999 -0.70133,0 -1.05213,-0.38022 -1.05213,-1.13999 0,-0.526 0.0877,-1.13938 0.26303,-1.84072 0.23378,-0.75977 0.52577,-1.54856 0.87643,-2.36678 0.35067,-0.87667 0.73088,-1.75368 1.13999,-2.63034 0.40911,-0.87666 0.81825,-1.72375 1.22731,-2.54197 0.29222,-0.58444 0.64251,-1.34434 1.05162,-2.27945 0.46756,-0.93511 0.87665,-1.92871 1.22732,-2.9807 0.40911,-1.052 0.75991,-2.1039 1.05213,-3.15589 0.29223,-1.052 0.43822,-1.9873 0.43822,-2.80552 0,-0.99355 -0.35028,-1.75346 -1.05162,-2.27945 -0.70133,-0.58444 -1.57834,-0.87643 -2.63033,-0.87643 -2.68844,0 -5.31843,1.08134 -7.88998,3.24373 -2.5715,2.10399 -5.05554,4.76288 -7.45175,7.97731 0.46755,-1.16889 0.93546,-2.51277 1.40302,-4.03232 0.46755,-1.578 0.70125,-2.7764 0.70125,-3.59462 0,-0.87666 -0.29251,-1.72375 -0.87695,-2.54197 -0.526,-0.81822 -1.31479,-1.22732 -2.36679,-1.22732 -1.05199,0 -2.221,0.4674 -3.50677,1.40251 -0.526,0.40907 -1.22708,1.0519 -2.10375,1.92856 -0.87666,0.87667 -1.81197,1.87027 -2.80552,2.98071 -0.99355,1.05195 -1.98715,2.16219 -2.9807,3.33107 -0.93511,1.11039 -1.7822,2.10403 -2.54197,2.9807 -0.12957,0.12957 -0.22233,0.26847 -0.28009,0.41599 -3.87157,4.33971 -7.13896,6.5097 -9.802,6.5097 -2.53234,0.16735 -4.76746,-1.69061 -5.34749,-4.0323 -0.23377,-1.22733 -0.35037,-2.25034 -0.35037,-3.06856 0,-0.87662 0.1166,-1.89966 0.35037,-3.06855 0.29222,-1.22732 0.67242,-2.39581 1.13998,-3.50625 0.526,-1.11044 1.10999,-2.04574 1.75287,-2.80552 0.70133,-0.75977 1.46123,-1.13947 2.27945,-1.13947 0.35067,0 0.64318,0.1754 0.87695,0.52607 0.23378,0.29222 0.40867,0.67191 0.52555,1.13947 0.1169,0.40911 0.1757,0.84765 0.1757,1.31516 0.0585,0.46756 0.0873,0.84725 0.0873,1.13947 0,2.22088 -0.4674,4.38352 -1.4025,6.48747 -0.56436,1.23454 -1.21559,2.43639 -1.95028,3.60703 0.48606,0.80214 1.18926,1.03972 1.98025,1.04903 0.76011,-1.26744 1.45185,-2.61472 2.0743,-4.04265 0.99351,-2.27933 1.49035,-4.67562 1.49035,-7.18873 0,-0.58444 -0.0588,-1.22723 -0.1757,-1.92857 -0.11689,-0.70132 -0.32118,-1.37357 -0.6134,-2.01641 -0.23378,-0.64289 -0.61399,-1.16858 -1.13999,-1.57769 -0.526,-0.46755 -1.16879,-0.70125 -1.92857,-0.70125 z m -69.43156,0.26303 c -1.05199,0 -2.22099,0.4674 -3.50677,1.40251 -0.35066,0.29217 -1.05231,0.9933 -2.10426,2.10375 -0.99356,1.05199 -2.19145,2.3381 -3.59411,3.85765 -0.34297,0.38771 -0.7601,0.84972 -1.11828,1.25264 -0.70708,1.34865 0.37106,2.27633 1.66915,1.39888 0.30241,-0.34353 0.64548,-0.74148 0.93948,-1.07384 1.34422,-1.5195 2.51323,-2.80513 3.50677,-3.85713 1.052,-1.05199 1.72368,-1.69479 2.0159,-1.92857 0.87667,-0.64289 1.60768,-0.96428 2.19212,-0.96428 0.40912,0 0.6717,0.14599 0.78859,0.43821 0.11688,0.29222 0.1757,0.64302 0.1757,1.05214 0,0.9351 -0.29251,2.25014 -0.87695,3.94498 -0.526,1.69488 -1.1982,3.53557 -2.01642,5.52268 -0.81822,1.98706 -1.72412,4.00371 -2.71767,6.04925 -0.93511,1.98711 -1.841,3.7695 -2.71767,5.34749 -0.29222,0.58444 -0.43822,1.02294 -0.43822,1.31517 0,0.75977 0.38021,1.13946 1.13999,1.13946 0.11689,0 0.29177,-0.0583 0.52555,-0.17518 0.23378,-0.0584 0.46799,-0.26325 0.70177,-0.61392 0.35062,-0.58444 0.84746,-1.43153 1.49035,-2.54197 0.64288,-1.16884 1.37338,-2.42558 2.1916,-3.7698 0.87666,-1.40266 1.81145,-2.86365 2.805,-4.3832 0.99355,-1.51955 2.01656,-2.95165 3.06855,-4.29587 1.92866,-2.39621 3.94475,-4.47111 6.04874,-6.22444 2.16244,-1.75333 4.26675,-2.62982 6.31229,-2.62982 0.46755,0 0.81836,0.0877 1.05214,0.26303 0.29217,0.11689 0.43821,0.49658 0.43821,1.13947 0,0.526 -0.11711,1.1982 -0.35088,2.01642 -0.23378,0.75978 -0.52577,1.60742 -0.87644,2.54248 -0.35066,0.87666 -0.73087,1.78256 -1.13998,2.71767 -0.40911,0.93511 -0.81821,1.8116 -1.22732,2.62982 -0.99355,2.04555 -1.87004,3.97449 -2.62982,5.78622 -0.70133,1.81178 -1.05213,3.36047 -1.05213,4.64624 0,0.75977 0.2337,1.49027 0.70125,2.1916 0.526,0.64289 1.3442,0.96429 2.45464,0.96429 1.05195,0 2.2504,-0.4091 3.59462,-1.22732 1.34417,-0.87667 2.71751,-1.95796 4.12017,-3.24374 1.40262,-1.28577 2.80536,-2.68847 4.20802,-4.20802 0.29872,-0.32262 0.55093,-0.5989 0.84232,-0.91415 -0.15231,0.87957 -0.22841,1.71069 -0.22841,2.49235 0,1.92866 0.52569,3.65276 1.57769,5.17231 0.99355,1.4611 2.68876,2.1916 5.08497,2.1916 2.74688,0 5.87371,-1.169 9.38032,-3.50677 2.65517,-1.74109 5.34257,-4.01821 8.06258,-6.82905 -0.17297,0.97518 -0.26045,1.90756 -0.26045,2.79621 0,0.87666 0.11711,1.75367 0.35088,2.63034 0.23378,0.87667 0.61347,1.66546 1.13947,2.36679 0.46755,0.70129 1.08146,1.28583 1.84123,1.75338 0.75978,0.40911 1.66516,0.61392 2.71716,0.61392 2.0455,0 3.94504,-0.61391 5.69837,-1.84124 1.26084,-0.88259 2.44401,-1.87402 3.55379,-2.9683 -0.80978,-0.10498 -1.42082,-0.55773 -1.98799,-1.08727 -0.74064,0.67969 -1.54782,1.35941 -2.44224,2.03915 -1.4611,1.11045 -3.06865,1.66606 -4.82193,1.66606 -1.34422,0 -2.3373,-0.52621 -2.98019,-1.57821 -0.58444,-1.05195 -0.87695,-2.2504 -0.87695,-3.59462 0,-1.28573 0.2337,-2.71735 0.70125,-4.29535 0.46755,-1.63643 1.13975,-3.24394 2.01642,-4.82194 0.87666,-1.57799 1.92855,-3.09732 3.15588,-4.55838 1.28578,-1.51956 2.74733,-2.80515 4.38372,-3.85714 0.35067,-0.23378 0.52555,-0.5557 0.52555,-0.9648 0,-0.29222 -0.11658,-0.52592 -0.35036,-0.70125 -0.23378,-0.23378 -0.49688,-0.35037 -0.7891,-0.35037 -0.11689,0 -0.29229,0.0583 -0.52607,0.17518 -1.87021,1.22734 -3.50661,2.65948 -4.90927,4.29587 -1.40267,1.63644 -2.60059,3.33113 -3.5941,5.08446 -0.44064,0.82618 -0.82746,1.65222 -1.16428,2.47841 -0.0573,0.0434 -0.10772,0.0939 -0.15089,0.15141 -3.91576,4.50016 -7.53936,7.7441 -10.87068,9.73121 -3.27283,1.98706 -5.93228,2.9807 -7.97782,2.9807 -1.51955,0 -2.62975,-0.4385 -3.33107,-1.31517 -0.64289,-0.9351 -0.96429,-2.1624 -0.96429,-3.68195 0,-1.51955 0.26311,-3.21424 0.78911,-5.08446 5.43527,-1.16888 9.46748,-2.80528 12.09747,-4.90927 2.68843,-2.16243 4.03284,-4.26673 4.03284,-6.31229 0,-1.22728 -0.4091,-2.19152 -1.22732,-2.89285 -0.81822,-0.70132 -1.89956,-1.05213 -3.24373,-1.05213 -1.92866,0 -3.76935,0.70161 -5.52268,2.10427 -1.75328,1.40261 -3.33142,3.12675 -4.73408,5.1723 -1.1784,1.79322 -2.13208,3.69866 -2.86133,5.71646 -1.16271,1.30885 -2.36964,2.61804 -3.62615,3.9269 -1.34417,1.4611 -2.65921,2.80499 -3.94498,4.03232 -1.28578,1.16888 -2.48367,2.13307 -3.59411,2.89285 -1.11039,0.75977 -2.04578,1.13999 -2.80551,1.13999 -0.70134,0 -1.05214,-0.38022 -1.05214,-1.13999 0,-0.526 0.0877,-1.13938 0.26303,-1.84072 0.23378,-0.75977 0.5263,-1.54856 0.87696,-2.36678 0.35066,-0.87667 0.73035,-1.75368 1.13946,-2.63034 0.40911,-0.87666 0.81821,-1.72375 1.22732,-2.54197 0.29222,-0.58444 0.64303,-1.34434 1.05214,-2.27945 0.46751,-0.93511 0.87665,-1.92871 1.22731,-2.9807 0.40912,-1.052 0.75992,-2.1039 1.05214,-3.15589 0.29222,-1.052 0.43821,-1.9873 0.43821,-2.80552 0,-0.99355 -0.3508,-1.75346 -1.05213,-2.27945 -0.70133,-0.58444 -1.57782,-0.87643 -2.62982,-0.87643 -2.68843,0 -5.31847,1.08134 -7.88997,3.24373 -2.57155,2.10399 -5.05554,4.76288 -7.45176,7.97731 0.46756,-1.16889 0.93495,-2.51277 1.4025,-4.03232 0.46755,-1.578 0.70125,-2.7764 0.70125,-3.59462 0,-0.87666 -0.29199,-1.72375 -0.87643,-2.54197 -0.52599,-0.81822 -1.31479,-1.22732 -2.36679,-1.22732 z m 41.02756,2.27894 c 0.40907,0 0.87701,0.11711 1.40301,0.35088 0.58444,0.23378 0.87644,0.67228 0.87644,1.31517 0,0.64289 -0.2631,1.34398 -0.7891,2.10375 -0.46756,0.75977 -1.22746,1.54857 -2.27946,2.36679 -1.05195,0.81822 -2.39588,1.60752 -4.03232,2.3673 -1.63639,0.75977 -3.59423,1.43198 -5.87355,2.01642 0.40911,-0.93511 0.99365,-2.01641 1.75338,-3.24374 0.75978,-1.22733 1.60686,-2.36693 2.54197,-3.41892 0.93511,-1.11044 1.92871,-2.01633 2.98071,-2.71767 1.1104,-0.75977 2.25004,-1.13998 3.41892,-1.13998 z"
         sodipodi:nodetypes="scccscccccccscssscsccssccccsccscsccsccscscsccsscccsssccssccsscscccscscsccccccscccscccsccccssccssscccccccssscsccssccccsccscsccsccscscsccscsccssccssccsscscsccscscsccccscsccssssccccsssccssccsscscccscsscscsscsccsc" />
    </g>
  </g>
</svg>
