<?xml version="1.0" encoding="UTF-8" standalone="no"?>
<!-- Created with Inkscape (http://www.inkscape.org/) -->

<svg
   width="1920"
   height="1080"
   viewBox="0 0 508.00102 285.75057"
   version="1.1"
   id="svg8244"
   inkscape:version="1.2.2 (b0a8486541, 2022-12-01)"
   sodipodi:docname="SplitText.svg"
   inkscape:export-filename="SplitText.png"
   inkscape:export-xdpi="96"
   inkscape:export-ydpi="96"
   xmlns:inkscape="http://www.inkscape.org/namespaces/inkscape"
   xmlns:sodipodi="http://sodipodi.sourceforge.net/DTD/sodipodi-0.dtd"
   xmlns="http://www.w3.org/2000/svg"
   xmlns:svg="http://www.w3.org/2000/svg">
  <sodipodi:namedview
     id="namedview8246"
     pagecolor="#ffffff"
     bordercolor="#111111"
     borderopacity="1"
     inkscape:showpageshadow="0"
     inkscape:pageopacity="0"
     inkscape:pagecheckerboard="false"
     inkscape:deskcolor="#ffffff"
     inkscape:document-units="px"
     showgrid="true"
     showborder="true"
     inkscape:zoom="0.48229167"
     inkscape:cx="948.59611"
     inkscape:cy="290.28078"
     inkscape:window-width="1920"
     inkscape:window-height="1018"
     inkscape:window-x="0"
     inkscape:window-y="0"
     inkscape:window-maximized="1"
     inkscape:current-layer="layer1" />
  <defs
     id="defs8241" />
  <g
     inkscape:label="Layer 1"
     inkscape:groupmode="layer"
     id="layer1">
    <path
       id="path156114"
       style="font-weight:normal;font-size:83.55px;font-family:'Meera New';-inkscape-font-specification:'Meera New, Normal';fill:#0000ff;fill-opacity:1;stroke-width:0.264584;paint-order:stroke fill markers"
       d="m 391.87239,82.293711 -5.18109,0.333831 v 24.931348 c 0,2.61093 0.53043,4.52876 1.59112,5.75263 1.0607,1.22387 2.7741,1.83555 5.09944,1.83555 h 0.53072 c 0.0408,0 0.20384,-0.0409 0.5302,-0.1633 0.48956,0 1.55044,-0.1221 3.22307,-0.32608 v -4.07986 h -1.50947 c -2.85571,0 -4.28399,-1.14216 -4.28399,-3.50832 z m -17.77518,1.146186 -6.42597,0.413929 -4.60077,7.305512 -4.24161,-6.735003 -6.21255,0.400493 6.94584,10.536329 -12.56515,19.296533 h 6.52727 l 9.1793,-15.053888 9.38291,15.053888 h 6.69056 L 366.21189,95.361157 Z m -32.48903,2.09445 -5.21623,0.336414 c 0.9923,1.962673 1.6211,4.483761 1.87482,7.573196 h -21.41786 c 0.12964,-2.463156 0.62524,-4.593845 1.48002,-6.408407 l -5.73868,0.370004 c -0.93701,2.638003 -1.4118,5.639725 -1.4118,9.016006 0,6.11937 1.46864,10.85184 4.40594,14.19709 2.93731,3.34526 6.93545,5.0178 11.99412,5.0178 8.36314,0 13.46254,-3.99766 15.33915,-12.03444 H 337.981 c -0.40796,2.20298 -1.55009,3.99764 -3.4675,5.3847 -1.91739,1.38706 -4.20207,2.08101 -6.77221,2.08101 -6.89449,0 -10.52522,-4.52854 -10.89238,-13.544416 h 26.92555 c -0.26308,-4.866867 -0.98711,-8.863375 -2.16628,-11.988957 z m -50.70554,3.269574 -5.79294,0.373621 v 25.480148 h 5.79294 z m -44.67178,2.879933 -5.04776,0.325563 c 0.0595,0.464788 0.11191,0.941045 0.15244,1.43454 h -21.41785 c 0.001,-0.02175 0.004,-0.04186 0.005,-0.06356 l -5.55781,0.358119 c -0.0708,0.869582 -0.11782,1.757624 -0.11782,2.683046 0,6.11937 1.46864,10.85184 4.40594,14.19709 2.93731,3.34526 6.93545,5.0178 11.99412,5.0178 8.36316,0 13.46253,-3.99766 15.33915,-12.03444 h -4.93614 c -0.40796,2.20298 -1.55009,3.99764 -3.4675,5.3847 -1.91741,1.38706 -4.20207,2.08101 -6.77221,2.08101 -6.89449,0 -10.52575,-4.52854 -10.89289,-13.544416 h 26.92554 c -0.11441,-2.116445 -0.32472,-4.051125 -0.61237,-5.83945 z m -35.85938,2.312525 -5.18109,0.333831 v 20.32748 h 5.18109 z m -21.58064,1.391133 -5.22191,0.336932 v 18.933246 h 5.22191 z m -21.78528,1.404569 -5.14028,0.331764 v 17.533845 h 5.14028 z m -9.33641,0.602032 -5.52784,0.356568 c -0.22763,3.751529 -1.19594,6.827629 -2.96365,9.196359 -2.03979,2.73332 -4.7323,4.12068 -8.07756,4.12068 -3.38605,0 -6.07856,-1.38742 -8.07756,-4.20233 -1.48337,-2.08883 -2.42484,-4.65185 -2.81327,-7.700839 l -5.44671,0.3514 c 0.52741,4.250369 2.03908,7.822999 4.58836,10.694979 3.18208,3.59003 7.13925,5.42552 11.74918,5.42552 2.48855,0 4.6916,-0.48955 6.73139,-1.46865 6.19414,-3.00089 9.48288,-8.61659 9.83766,-16.773687 z m -36.87896,2.377637 -5.58003,0.36019 c 0.0659,0.52689 0.10697,1.07929 0.10697,1.67483 0,2.85571 -1.18305,5.05873 -3.6308,6.69056 -2.40695,1.63184 -5.79284,2.44792 -10.0764,2.44792 -4.283566,0 -7.751222,-1.01998 -10.321358,-3.05977 -1.854332,-1.44225 -3.061418,-3.44511 -3.641646,-5.97639 l -5.497867,0.3545 c 0.284901,1.63395 0.721047,3.10557 1.306383,4.39819 2.896503,6.16017 8.934601,9.21961 18.113658,9.21961 6.11937,0 10.85184,-1.30566 14.1971,-3.95739 3.38605,-2.65172 5.05861,-6.36367 5.05861,-11.09598 0,-0.36069 -0.0163,-0.70927 -0.0346,-1.05627 z" />
    <path
       id="path160567"
       style="opacity:1;fill:#0000ff;fill-opacity:1;stroke:#000000;stroke-width:0.264584;paint-order:stroke fill markers"
       d="m 96.276388,60.443322 c -2.937298,0 -5.466856,0.407784 -7.669831,1.2237 -6.649718,2.488546 -9.954451,7.261863 -9.954451,14.278744 0.122387,6.282556 3.630982,10.280699 10.525477,11.994123 l 10.28053,2.447918 c 4.242767,1.060691 7.179997,2.243678 8.730237,3.549144 1.26391,1.037055 2.00469,2.571741 2.2593,4.607481 l 5.58003,-0.360186 C 115.6773,91.545153 111.98308,87.406062 104.9658,85.777743 l -14.31957,-3.50832 c -4.242765,-1.019895 -6.363966,-3.427296 -6.363966,-7.262103 0,-3.059686 1.060342,-5.425689 3.181725,-7.139113 2.121383,-1.67263 5.059127,-2.488742 8.73075,-2.488742 3.71242,0 6.812691,0.856995 9.260441,2.611215 2.48854,1.754219 3.75335,4.446704 3.87574,8.036734 h 5.38521 C 114.51215,65.665276 108.35195,60.443322 96.276388,60.443322 Z m 166.895572,0.856797 v 5.466861 h 17.17521 v 20.823059 l 5.79294,-0.373621 V 66.76698 h 16.97109 v -5.466861 z m 118.75681,3.589969 v 10.688774 h -4.97697 v 4.446766 h 4.97697 v 1.01441 l 5.18109,-0.33383 v -0.68058 h 5.95624 v -4.446766 h -5.95624 V 64.890088 Z m -245.38706,9.627855 c -4.8955,0 -8.89367,1.876398 -12.03495,5.588817 -3.14127,3.71242 -4.73202,8.485766 -4.73202,14.319568 0,1.219277 0.086,2.379064 0.22531,3.502119 l 5.44671,-0.3514 c -0.13502,-1.059845 -0.20567,-2.176266 -0.20567,-3.354841 0,-4.528336 1.01997,-8.159089 3.05976,-10.933205 2.0398,-2.73332 4.73236,-4.12017 8.15921,-4.12017 3.38606,0 6.07854,1.386908 8.03674,4.201819 1.9582,2.774116 2.93729,6.445722 2.93729,11.014854 0,0.609465 -0.0203,1.200244 -0.0553,1.777673 l 5.52784,-0.356568 c 0.0214,-0.4925 0.0351,-0.991721 0.0351,-1.502754 0,-5.833802 -1.50953,-10.606603 -4.52842,-14.278227 -3.01889,-3.671624 -6.97615,-5.507685 -11.87165,-5.507685 z m 37.20607,0 c -2.16219,0 -4.12039,0.530429 -5.91541,1.59112 -1.79502,1.060692 -3.71287,3.141039 -5.79346,6.282317 v -6.812518 h -4.93614 v 19.957479 l 5.14026,-0.331764 v -2.613799 c 0.0408,-4.038786 0.93816,-7.261698 2.73318,-9.627856 1.71341,-2.52934 4.20207,-3.794091 7.50653,-3.794091 1.999,0 3.54943,0.734264 4.69171,2.121322 1.10149,1.427854 1.63195,3.30428 1.63195,5.629642 v 7.217145 l 5.22191,-0.336931 V 90.14286 c 0,-3.141278 0.89733,-5.752542 2.69235,-7.833129 1.83582,-2.080587 3.99795,-3.1409 6.56809,-3.1409 2.52933,0 4.36539,0.815568 5.50768,2.447401 1.10149,1.672628 1.63143,4.039205 1.63143,7.221279 v 3.905196 l 5.18109,-0.333831 v -5.489081 c 0,-3.916399 -0.97912,-6.934988 -2.97812,-9.137962 -1.999,-2.162179 -4.69154,-3.26389 -8.11838,-3.26389 -2.08059,0 -3.95702,0.489547 -5.62965,1.468647 -1.63182,0.9791 -3.46739,2.692545 -5.50716,5.181089 -1.26467,-2.52934 -2.65203,-4.28361 -4.12069,-5.221913 -1.50945,-0.938304 -3.30419,-1.427823 -5.50717,-1.427823 z m 52.42275,0 c -4.9771,0 -9.01608,1.876398 -12.07578,5.588817 -2.59696,3.150997 -4.09503,7.163699 -4.49224,12.04425 l 5.55781,-0.358118 c 0.21285,-3.844749 1.31177,-6.884821 3.29955,-9.156565 2.0398,-2.325362 4.60971,-3.467496 7.79179,-3.467496 5.80017,0 9.21089,3.764375 10.16891,11.253082 l 5.04776,-0.325562 c -0.73811,-4.588829 -2.03729,-8.112635 -3.91605,-10.519792 -2.57013,-3.386053 -6.40467,-5.058616 -11.38175,-5.058616 z m 96.93071,0 c -4.9771,0 -9.01556,1.876398 -12.07526,5.588817 -1.37155,1.664143 -2.43698,3.568019 -3.19826,5.711291 l 5.73868,-0.370004 c 0.49015,-1.040524 1.09618,-1.97912 1.8247,-2.81172 2.0398,-2.325362 4.60971,-3.467496 7.79179,-3.467496 3.90652,0 6.72645,1.712284 8.44653,5.114427 l 5.21623,-0.336414 c -0.64942,-1.721373 -1.43488,-3.182233 -2.36214,-4.370285 -2.57015,-3.386053 -6.40519,-5.058616 -11.38227,-5.058616 z m 19.70426,1.060919 5.04828,7.658463 6.21255,-0.400493 -4.57027,-7.25797 z m 24.31484,0 -4.21163,6.687461 6.42597,-0.413929 4.14963,-6.273532 z M 77.020678,97.159501 c 0.04922,1.246916 0.174213,2.417414 0.365869,3.516589 l 5.497867,-0.3545 c -0.223978,-0.977122 -0.363306,-2.025891 -0.397393,-3.162089 z" />
  </g>
</svg>
